<svg width="24" height="24" viewBox="0 0 24 24" fill="none" xmlns="http://www.w3.org/2000/svg">
<path d="M16.354 9.646C16.549 9.841 16.549 10.158 16.354 10.353L11.354 15.353C11.256 15.451 11.128 15.499 11 15.499C10.872 15.499 10.744 15.45 10.646 15.353L7.646 12.353C7.451 12.158 7.451 11.841 7.646 11.646C7.841 11.451 8.158 11.451 8.353 11.646L10.999 14.292L15.645 9.646C15.842 9.451 16.158 9.451 16.354 9.646ZM21.5 12C21.5 17.238 17.238 21.5 12 21.5C6.762 21.5 2.5 17.238 2.5 12C2.5 6.762 6.762 2.5 12 2.5C17.238 2.5 21.5 6.761 21.5 12ZM20.5 12C20.5 7.313 16.687 3.5 12 3.5C7.313 3.5 3.5 7.313 3.5 12C3.5 16.687 7.313 20.5 12 20.5C16.687 20.5 20.5 16.687 20.5 12Z" fill="#41416E"/>
</svg>
