<svg width="24" height="24" viewBox="0 0 24 24" fill="none" xmlns="http://www.w3.org/2000/svg">
<path d="M12 2.5C6.762 2.5 2.5 6.762 2.5 12C2.5 17.238 6.762 21.5 12 21.5C17.238 21.5 21.5 17.238 21.5 12C21.5 6.762 17.238 2.5 12 2.5ZM12 20.5C7.313 20.5 3.5 16.687 3.5 12C3.5 7.313 7.313 3.5 12 3.5C16.687 3.5 20.5 7.313 20.5 12C20.5 16.687 16.687 20.5 12 20.5ZM15.354 10.646C15.549 10.841 15.549 11.158 15.354 11.353L12.354 14.353C12.256 14.451 12.128 14.499 12 14.499C11.872 14.499 11.744 14.45 11.646 14.353L8.646 11.353C8.451 11.158 8.451 10.841 8.646 10.646C8.841 10.451 9.15803 10.451 9.35303 10.646L11.999 13.292L14.645 10.646C14.842 10.451 15.158 10.451 15.354 10.646Z" fill="#41416E"/>
</svg>
