<svg width="24" height="24" viewBox="0 0 24 24" fill="none" xmlns="http://www.w3.org/2000/svg">
<path d="M12 2.5C6.762 2.5 2.5 6.762 2.5 12C2.5 17.238 6.762 21.5 12 21.5C17.238 21.5 21.5 17.238 21.5 12C21.5 6.762 17.238 2.5 12 2.5ZM12 20.5C7.313 20.5 3.5 16.687 3.5 12C3.5 7.313 7.313 3.5 12 3.5C16.687 3.5 20.5 7.313 20.5 12C20.5 16.687 16.687 20.5 12 20.5ZM15.354 12.646C15.549 12.841 15.549 13.158 15.354 13.353C15.256 13.451 15.128 13.499 15 13.499C14.872 13.499 14.744 13.45 14.646 13.353L12 10.707L9.354 13.353C9.159 13.548 8.84197 13.548 8.64697 13.353C8.45197 13.158 8.45197 12.841 8.64697 12.646L11.647 9.646C11.842 9.451 12.159 9.451 12.354 9.646L15.354 12.646Z" fill="#41416E"/>
</svg>
