<svg width="24" height="24" viewBox="0 0 24 24" fill="none" xmlns="http://www.w3.org/2000/svg">
<path d="M12 2.5C6.762 2.5 2.5 6.762 2.5 12C2.5 17.238 6.762 21.5 12 21.5C17.238 21.5 21.5 17.238 21.5 12C21.5 6.762 17.238 2.5 12 2.5ZM12 20.5C7.313 20.5 3.5 16.687 3.5 12C3.5 7.313 7.313 3.5 12 3.5C16.687 3.5 20.5 7.313 20.5 12C20.5 16.687 16.687 20.5 12 20.5ZM16.5 12C16.5 12.276 16.276 12.5 16 12.5H12C11.724 12.5 11.5 12.276 11.5 12V7C11.5 6.724 11.724 6.5 12 6.5C12.276 6.5 12.5 6.724 12.5 7V11.5H16C16.276 11.5 16.5 11.723 16.5 12Z" fill="#41416E"/>
</svg>
