<svg width="24" height="24" viewBox="0 0 24 24" fill="none" xmlns="http://www.w3.org/2000/svg">
<path d="M21.061 6.353L17.647 2.939C17.364 2.656 16.987 2.5 16.586 2.5H11C9.07 2.5 7.5 4.07 7.5 6V6.5H6C4.07 6.5 2.5 8.07 2.5 10V18C2.5 19.93 4.07 21.5 6 21.5H13C14.93 21.5 16.5 19.93 16.5 18V17.5H18C19.93 17.5 21.5 15.93 21.5 14V7.414C21.501 7.013 21.344 6.636 21.061 6.353ZM17.482 4.18799L19.812 6.51801H18.802C18.074 6.51801 17.482 5.926 17.482 5.198V4.18799ZM15.501 18C15.501 19.378 14.379 20.5 13.001 20.5H6.00098C4.62298 20.5 3.50098 19.378 3.50098 18V10C3.50098 8.622 4.62298 7.5 6.00098 7.5H7.50098V14C7.50098 15.93 9.07098 17.5 11.001 17.5H15.501V18ZM18.001 16.5H11.001C9.62298 16.5 8.50098 15.378 8.50098 14V6C8.50098 4.622 9.62298 3.5 11.001 3.5H16.482V5.198C16.482 6.477 17.523 7.51801 18.802 7.51801H20.5V14C20.501 15.378 19.379 16.5 18.001 16.5Z" fill="#41416E"/>
</svg>
