<svg width="24" height="24" viewBox="0 0 24 24" fill="none" xmlns="http://www.w3.org/2000/svg">
<path d="M21 10.5H21.5V9C21.5 6.519 19.481 4.5 17 4.5H7C4.519 4.5 2.5 6.519 2.5 9V10.5H3C3.827 10.5 4.5 11.173 4.5 12C4.5 12.827 3.827 13.5 3 13.5H2.5V15C2.5 17.481 4.519 19.5 7 19.5H17C19.481 19.5 21.5 17.481 21.5 15V13.5H21C20.173 13.5 19.5 12.827 19.5 12C19.5 11.173 20.173 10.5 21 10.5ZM20.5 14.449V15C20.5 16.93 18.93 18.5 17 18.5H15.5V16C15.5 15.724 15.276 15.5 15 15.5C14.724 15.5 14.5 15.724 14.5 16V18.5H7C5.07 18.5 3.5 16.93 3.5 15V14.45C4.64 14.218 5.5 13.208 5.5 12C5.5 10.792 4.64 9.78299 3.5 9.54999V9C3.5 7.07 5.07 5.5 7 5.5H14.5V8C14.5 8.276 14.724 8.5 15 8.5C15.276 8.5 15.5 8.276 15.5 8V5.5H17C18.93 5.5 20.5 7.07 20.5 9V9.54999C19.36 9.78199 18.5 10.792 18.5 12C18.5 13.208 19.36 14.217 20.5 14.449ZM15.5 11V13C15.5 13.276 15.276 13.5 15 13.5C14.724 13.5 14.5 13.276 14.5 13V11C14.5 10.724 14.724 10.5 15 10.5C15.276 10.5 15.5 10.723 15.5 11Z" fill="#41416E"/>
</svg>
