<svg width="24" height="24" viewBox="0 0 24 24" fill="none" xmlns="http://www.w3.org/2000/svg">
<path d="M17 4.5H7C4.519 4.5 2.5 6.519 2.5 9V15C2.5 17.481 4.519 19.5 7 19.5H17C19.481 19.5 21.5 17.481 21.5 15V9C21.5 6.518 19.481 4.5 17 4.5ZM7 5.5H17C18.532 5.5 19.823 6.49602 20.296 7.86902L13.942 12.105C12.762 12.891 11.239 12.891 10.059 12.105L3.70502 7.86902C4.17702 6.49502 5.468 5.5 7 5.5ZM20.5 15C20.5 16.93 18.93 18.5 17 18.5H7C5.07 18.5 3.5 16.93 3.5 15V9C3.5 8.979 3.50598 8.95899 3.50598 8.93799L9.50403 12.937C10.262 13.442 11.131 13.695 12 13.695C12.869 13.695 13.738 13.443 14.496 12.937L20.494 8.93799C20.494 8.95899 20.5 8.978 20.5 9V15Z" fill="#41416E"/>
</svg>
