<svg width="24" height="24" viewBox="0 0 24 24" fill="none" xmlns="http://www.w3.org/2000/svg">
<path d="M12 2.5C6.762 2.5 2.5 6.762 2.5 12C2.5 17.238 6.762 21.5 12 21.5C17.238 21.5 21.5 17.238 21.5 12C21.5 6.762 17.238 2.5 12 2.5ZM12 20.5C7.313 20.5 3.5 16.687 3.5 12C3.5 7.313 7.313 3.5 12 3.5C16.687 3.5 20.5 7.313 20.5 12C20.5 16.687 16.687 20.5 12 20.5ZM12.75 16C12.75 16.414 12.414 16.75 12 16.75C11.586 16.75 11.25 16.414 11.25 16C11.25 15.586 11.586 15.25 12 15.25C12.414 15.25 12.75 15.586 12.75 16ZM11.5 12V8C11.5 7.724 11.724 7.5 12 7.5C12.276 7.5 12.5 7.724 12.5 8V12C12.5 12.276 12.276 12.5 12 12.5C11.724 12.5 11.5 12.276 11.5 12Z" fill="#41416E"/>
</svg>
