<svg width="25" height="24" viewBox="0 0 25 24" fill="none" xmlns="http://www.w3.org/2000/svg">
<path d="M22.0136 10.2426C21.4186 9.25062 20.4086 7.88261 18.9876 6.71461L21.3486 4.35362C21.5436 4.15862 21.5436 3.84162 21.3486 3.64662C21.1536 3.45162 20.8366 3.45162 20.6416 3.64662L15.1096 9.17863L15.1076 9.17961L15.1066 9.18061L4.64061 19.6466C4.44561 19.8416 4.44561 20.1586 4.64061 20.3536C4.73861 20.4516 4.86661 20.4996 4.99461 20.4996C5.12261 20.4996 5.25062 20.4506 5.34862 20.3536L7.8036 17.8986C9.3926 18.9566 11.1356 19.5006 12.9976 19.5006C17.8216 19.5006 20.7166 15.9036 22.0146 13.7576C22.6626 12.6736 22.6626 11.3266 22.0136 10.2426ZM15.9956 12.0006C15.9956 13.6546 14.6496 15.0006 12.9956 15.0006C12.3616 15.0006 11.7646 14.7996 11.2646 14.4386L15.4336 10.2696C15.7936 10.7696 15.9956 11.3666 15.9956 12.0006ZM21.1576 13.2416C19.9696 15.2056 17.3306 18.5006 12.9976 18.5006C11.4066 18.5006 9.9146 18.0346 8.5396 17.1636L10.5576 15.1456C11.2516 15.6906 12.0936 16.0006 12.9956 16.0006C15.2016 16.0006 16.9956 14.2066 16.9956 12.0006C16.9956 11.0986 16.6846 10.2566 16.1406 9.56263L18.2806 7.42262C19.6346 8.51362 20.5926 9.81663 21.1566 10.7566C21.6146 11.5236 21.6146 12.4766 21.1576 13.2416ZM5.31761 15.6226C4.82761 15.0426 4.37861 14.4146 3.98161 13.7586C3.33361 12.6736 3.3336 11.3276 3.9806 10.2436C5.2786 8.09763 8.1736 4.49961 12.9976 4.49961C13.9286 4.49961 14.8296 4.63462 15.7506 4.91062C16.0146 4.99062 16.1646 5.26861 16.0856 5.53361C16.0056 5.79761 15.7316 5.94763 15.4626 5.86863C14.6356 5.61963 13.8296 5.49961 12.9976 5.49961C8.6646 5.49961 6.0256 8.79462 4.8376 10.7586C4.3806 11.5236 4.38061 12.4766 4.83861 13.2436C5.20661 13.8536 5.62561 14.4376 6.08061 14.9766C6.25861 15.1876 6.23259 15.5036 6.02159 15.6816C5.92759 15.7616 5.8136 15.7996 5.6996 15.7996C5.5576 15.8006 5.41661 15.7406 5.31761 15.6226ZM12.3696 8.05561C12.6416 8.01361 12.8976 8.20161 12.9396 8.47361C12.9816 8.74661 12.7946 9.00162 12.5216 9.04362C11.2556 9.23862 10.2346 10.2596 10.0396 11.5256C10.0016 11.7726 9.78861 11.9496 9.54561 11.9496C9.52061 11.9496 9.49461 11.9476 9.46861 11.9436C9.19561 11.9016 9.00861 11.6466 9.05061 11.3736C9.31161 9.68161 10.6766 8.31761 12.3696 8.05561Z" fill="#41416E"/>
</svg>
