<svg width="25" height="24" viewBox="0 0 25 24" fill="none" xmlns="http://www.w3.org/2000/svg">
<path d="M22.0129 10.2445C20.7249 8.09851 17.8409 4.49951 12.9979 4.49951C8.15586 4.49951 5.27084 8.09851 3.98284 10.2445C3.33384 11.3275 3.33384 12.6725 3.98284 13.7555C5.27184 15.9015 8.15586 19.5005 12.9979 19.5005C17.8409 19.5005 20.7249 15.9015 22.0129 13.7555C22.6629 12.6725 22.6629 11.3275 22.0129 10.2445ZM21.1558 13.2405C19.9768 15.2045 17.3489 18.4995 12.9979 18.4995C8.64786 18.4995 6.01987 15.2045 4.83987 13.2405C4.38087 12.4755 4.38087 11.5245 4.83987 10.7595C6.01987 8.79552 8.64786 5.50052 12.9979 5.50052C17.3489 5.50052 19.9768 8.79552 21.1558 10.7595C21.6148 11.5245 21.6148 12.4755 21.1558 13.2405ZM12.9979 8.00052C10.7919 8.00052 8.99786 9.79452 8.99786 12.0005C8.99786 14.2065 10.7919 16.0005 12.9979 16.0005C15.2039 16.0005 16.9979 14.2065 16.9979 12.0005C16.9979 9.79452 15.2039 8.00052 12.9979 8.00052ZM12.9979 15.0005C11.3439 15.0005 9.99786 13.6545 9.99786 12.0005C9.99786 10.3465 11.3439 9.00052 12.9979 9.00052C14.6519 9.00052 15.9979 10.3465 15.9979 12.0005C15.9979 13.6545 14.6519 15.0005 12.9979 15.0005Z" fill="#41416E"/>
</svg>
