<svg width="24" height="24" viewBox="0 0 24 24" fill="none" xmlns="http://www.w3.org/2000/svg">
<path d="M19.061 7.353L14.647 2.939C14.364 2.656 13.987 2.5 13.586 2.5H9C6.519 2.5 4.5 4.519 4.5 7V17C4.5 19.481 6.519 21.5 9 21.5H15C17.481 21.5 19.5 19.481 19.5 17V8.414C19.501 8.013 19.344 7.636 19.061 7.353ZM14.501 4.20599L17.794 7.49899H16.501C15.398 7.49899 14.501 6.60199 14.501 5.49899V4.20599ZM15.001 20.499H9.00101C7.07101 20.499 5.50101 18.929 5.50101 16.999V6.99899C5.50101 5.06899 7.07101 3.49899 9.00101 3.49899H13.501V5.49899C13.501 7.15299 14.847 8.49899 16.501 8.49899H18.501V16.999C18.501 18.929 16.93 20.499 15.001 20.499Z" fill="#41416E"/>
</svg>
