<svg width="24" height="24" viewBox="0 0 24 24" fill="none" xmlns="http://www.w3.org/2000/svg">
<path d="M19.9185 5.25549C18.7205 3.80049 17.0556 3.00049 15.2296 3.00049C14.0806 3.00049 12.9716 3.29148 12.0016 3.84448C11.0316 3.29148 9.92256 3.00049 8.77356 3.00049C6.94756 3.00049 5.28256 3.80149 4.08456 5.25549C2.77556 6.84449 2.23156 9.01449 2.63156 11.0615C3.58656 15.9575 8.60554 19.3965 10.7195 20.6485C11.1155 20.8825 11.5576 20.9995 12.0016 20.9995C12.4456 20.9995 12.8886 20.8825 13.2836 20.6485C15.3966 19.3975 20.4155 15.9585 21.3705 11.0615C21.7705 9.01449 21.2275 6.84449 19.9185 5.25549ZM20.3896 10.8695C19.5126 15.3685 14.7716 18.6045 12.7736 19.7875C12.2966 20.0695 11.7055 20.0695 11.2285 19.7875C9.23054 18.6045 4.49055 15.3685 3.61255 10.8695C3.26955 9.11348 3.73456 7.2515 4.85556 5.8905C5.86056 4.6705 7.25155 3.99948 8.77255 3.99948C9.83755 3.99948 10.8606 4.29248 11.7306 4.84848C11.8946 4.95248 12.1046 4.95248 12.2686 4.84848C13.1386 4.29248 14.1616 3.99948 15.2266 3.99948C16.7476 3.99948 18.1396 4.6705 19.1436 5.8905C20.2676 7.2525 20.7326 9.11348 20.3896 10.8695Z" fill="#41416E"/>
</svg>
