<svg width="24" height="24" viewBox="0 0 24 24" fill="none" xmlns="http://www.w3.org/2000/svg">
<path d="M19.821 7.50695L14.821 3.48548C13.186 2.17101 10.814 2.17201 9.17801 3.48548L4.17801 7.50695C3.11201 8.36426 2.5 9.64069 2.5 11.0092V17.0034C2.5 19.4832 4.519 21.5 7 21.5H9.5V17.0034C9.5 15.6269 10.622 14.5065 12 14.5065C13.378 14.5065 14.5 15.6269 14.5 17.0034V21.5H17C19.481 21.5 21.5 19.4832 21.5 17.0034V11.0092C21.5 9.64069 20.888 8.36426 19.821 7.50695ZM20.5 17.0034C20.5 18.931 18.93 20.4996 17 20.4996H15.5V17.0034C15.5 15.0747 13.93 13.5061 12 13.5061C10.07 13.5061 8.5 15.0747 8.5 17.0034V20.4996H7C5.07 20.4996 3.5 18.931 3.5 17.0034V11.0092C3.5 9.9458 3.97601 8.95346 4.80501 8.28622L9.80501 4.26478C11.077 3.24241 12.924 3.24342 14.195 4.26478L19.195 8.28622C20.025 8.95346 20.5 9.9458 20.5 11.0092V17.0034Z" fill="#41416E"/>
</svg>
