<svg width="24" height="24" viewBox="0 0 24 24" fill="none" xmlns="http://www.w3.org/2000/svg">
<path d="M12 2.5C6.762 2.5 2.5 6.762 2.5 12C2.5 17.238 6.762 21.5 12 21.5C17.238 21.5 21.5 17.238 21.5 12C21.5 6.762 17.238 2.5 12 2.5ZM12 20.5C7.313 20.5 3.5 16.687 3.5 12C3.5 7.313 7.313 3.5 12 3.5C16.687 3.5 20.5 7.313 20.5 12C20.5 16.687 16.687 20.5 12 20.5ZM12.75 8C12.75 8.414 12.414 8.75 12 8.75C11.586 8.75 11.25 8.414 11.25 8C11.25 7.586 11.586 7.25 12 7.25C12.414 7.25 12.75 7.586 12.75 8ZM12.5 12V16C12.5 16.276 12.276 16.5 12 16.5C11.724 16.5 11.5 16.276 11.5 16V12C11.5 11.724 11.724 11.5 12 11.5C12.276 11.5 12.5 11.723 12.5 12Z" fill="#41416E"/>
</svg>
