<svg width="24" height="24" viewBox="0 0 24 24" fill="none" xmlns="http://www.w3.org/2000/svg">
<path d="M16.5 9.776V7C16.5 4.519 14.481 2.5 12 2.5C9.519 2.5 7.5 4.519 7.5 7V9.776C5.758 10.397 4.5 12.047 4.5 14V17C4.5 19.481 6.519 21.5 9 21.5H15C17.481 21.5 19.5 19.481 19.5 17V14C19.5 12.047 18.242 10.397 16.5 9.776ZM8.5 7C8.5 5.07 10.07 3.5 12 3.5C13.93 3.5 15.5 5.07 15.5 7V9.55099C15.334 9.53199 15.171 9.5 15 9.5H9C8.829 9.5 8.666 9.53199 8.5 9.55099V7ZM18.5 17C18.5 18.93 16.93 20.5 15 20.5H9C7.07 20.5 5.5 18.93 5.5 17V14C5.5 12.07 7.07 10.5 9 10.5H15C16.93 10.5 18.5 12.07 18.5 14V17ZM12.5 15V17C12.5 17.276 12.276 17.5 12 17.5C11.724 17.5 11.5 17.276 11.5 17V15C11.5 14.724 11.724 14.5 12 14.5C12.276 14.5 12.5 14.723 12.5 15Z" fill="#41416E"/>
</svg>
