<svg width="24" height="24" viewBox="0 0 24 24" fill="none" xmlns="http://www.w3.org/2000/svg">
<path d="M12.4998 21C12.4998 21.276 12.2758 21.5 11.9998 21.5H7.99982C5.51882 21.5 3.49982 19.481 3.49982 17V7C3.49982 4.519 5.51882 2.5 7.99982 2.5H11.9998C12.2758 2.5 12.4998 2.724 12.4998 3C12.4998 3.276 12.2758 3.5 11.9998 3.5H7.99982C6.06982 3.5 4.49982 5.07 4.49982 7V17C4.49982 18.93 6.06982 20.5 7.99982 20.5H11.9998C12.2758 20.5 12.4998 20.724 12.4998 21ZM20.3538 11.646L16.3538 7.646C16.1588 7.451 15.8418 7.451 15.6468 7.646C15.4518 7.841 15.4518 8.158 15.6468 8.353L18.7928 11.499H9.99982C9.72382 11.499 9.49982 11.723 9.49982 11.999C9.49982 12.275 9.72382 12.499 9.99982 12.499H18.7928L15.6468 15.645C15.4518 15.84 15.4518 16.157 15.6468 16.352C15.7448 16.45 15.8728 16.498 16.0008 16.498C16.1288 16.498 16.2568 16.449 16.3548 16.352L20.3548 12.352C20.5488 12.158 20.5488 11.842 20.3538 11.646Z" fill="#41416E"/>
</svg>
