<svg width="24" height="24" viewBox="0 0 24 24" fill="none" xmlns="http://www.w3.org/2000/svg">
<path d="M12 6.5C10.07 6.5 8.5 8.07 8.5 10C8.5 11.93 10.07 13.5 12 13.5C13.93 13.5 15.5 11.93 15.5 10C15.5 8.07 13.929 6.5 12 6.5ZM12 12.5C10.622 12.5 9.5 11.378 9.5 10C9.5 8.622 10.622 7.5 12 7.5C13.378 7.5 14.5 8.622 14.5 10C14.5 11.378 13.378 12.5 12 12.5ZM11.996 2.5C7.723 2.5 4.5 5.724 4.5 10C4.5 16.088 9.159 19.891 11.161 21.243C11.414 21.414 11.705 21.5 11.996 21.5C12.286 21.5 12.576 21.415 12.829 21.244C14.835 19.889 19.5 16.081 19.5 9.99902C19.5 5.72402 16.273 2.5 11.996 2.5ZM12.27 20.415C12.103 20.527 11.888 20.527 11.721 20.414C10.262 19.429 5.5 15.766 5.5 9.99902C5.5 6.29302 8.292 3.49902 11.996 3.49902C15.704 3.49902 18.5 6.29302 18.5 9.99902C18.5 15.602 14.142 19.15 12.27 20.415Z" fill="#41416E"/>
</svg>
