<svg width="24" height="24" viewBox="0 0 24 24" fill="none" xmlns="http://www.w3.org/2000/svg">
<path d="M20.283 3.88898C19.545 3.43798 18.646 3.40495 17.877 3.79895L15.666 4.93396C15.249 5.14796 14.751 5.14896 14.334 4.93396L10.123 2.77197C9.77499 2.59297 9.39299 2.50395 9.01199 2.50195C9.00799 2.50195 9.004 2.5 9 2.5C8.996 2.5 8.99201 2.50195 8.98801 2.50195C8.60601 2.50395 8.22501 2.59297 7.87701 2.77197L4.42999 4.54199C3.23999 5.15299 2.5 6.38 2.5 7.742V17.919C2.5 18.826 2.95501 19.646 3.71701 20.111C4.45601 20.562 5.35499 20.595 6.12299 20.201L8.33401 19.066C8.75001 18.851 9.24798 18.851 9.66599 19.066L13.877 21.228C14.223 21.406 14.603 21.494 14.983 21.496C14.989 21.496 14.994 21.5 15 21.5C15.006 21.5 15.011 21.497 15.017 21.496C15.397 21.493 15.776 21.405 16.123 21.228L19.57 19.4579C20.76 18.8469 21.5 17.62 21.5 16.258V6.08099C21.5 5.17499 21.045 4.35498 20.283 3.88898ZM7.87701 18.177L5.66599 19.312C5.20499 19.55 4.68401 19.53 4.23901 19.258C3.77701 18.976 3.5 18.475 3.5 17.92V7.74298C3.5 6.75698 4.03099 5.87201 4.88699 5.43201L8.33401 3.66199C8.38701 3.63499 8.445 3.62095 8.5 3.60095V17.965C8.286 18.009 8.07601 18.075 7.87701 18.177ZM10.123 18.177C9.92399 18.075 9.714 18.009 9.5 17.965V3.60095C9.555 3.62095 9.61299 3.63499 9.66599 3.66199L13.877 5.82397C14.076 5.92597 14.286 5.99195 14.5 6.03595V20.4C14.445 20.38 14.387 20.366 14.334 20.339L10.123 18.177ZM20.5 16.259C20.5 17.245 19.969 18.1299 19.113 18.5699L15.666 20.34C15.613 20.367 15.555 20.381 15.5 20.401V6.03699C15.714 5.99299 15.924 5.92695 16.123 5.82495L18.334 4.69C18.796 4.452 19.317 4.47196 19.761 4.74396C20.223 5.02596 20.5 5.52697 20.5 6.08197V16.259Z" fill="#41416E"/>
</svg>
