<svg width="24" height="24" viewBox="0 0 24 24" fill="none" xmlns="http://www.w3.org/2000/svg">
<path d="M20.3064 3.6955C19.5354 2.9245 18.5114 2.50049 17.4214 2.50049C16.3324 2.50049 15.3074 2.9245 14.5364 3.6955L4.00347 14.2285C3.63247 14.5995 3.39044 15.0685 3.30444 15.5855L2.51446 20.3235C2.46046 20.6445 2.56644 20.9735 2.79644 21.2035C2.98644 21.3945 3.24543 21.4995 3.51043 21.4995C3.56543 21.4995 3.62045 21.4955 3.67645 21.4855L8.41546 20.6955C8.93246 20.6095 9.40048 20.3685 9.77148 19.9975L20.3044 9.46448C21.0754 8.69348 21.4994 7.6695 21.4994 6.5795C21.4994 5.4895 21.0765 4.4655 20.3064 3.6955ZM9.06548 19.2915C8.84248 19.5145 8.56143 19.6585 8.25243 19.7105L3.50243 20.4885L4.29247 15.7505C4.34447 15.4395 4.48848 15.1585 4.71148 14.9365L12.9714 6.67648L17.3265 11.0325L9.06548 19.2915ZM19.5995 8.75848L18.0325 10.3255L13.6775 5.96948L15.2444 4.4025C15.8264 3.8205 16.5995 3.50049 17.4225 3.50049C18.2455 3.50049 19.0195 3.8205 19.6005 4.4025C20.1825 4.9845 20.5024 5.75747 20.5024 6.58047C20.5024 7.40347 20.1815 8.17648 19.5995 8.75848Z" fill="#41416E"/>
</svg>
