<svg width="24" height="24" viewBox="0 0 24 24" fill="none" xmlns="http://www.w3.org/2000/svg">
<path d="M21.4402 16.6448C21.4182 16.5198 21.3932 16.4098 21.3652 16.3118C21.2162 15.7788 20.7502 15.3737 20.1792 15.2787L15.8472 14.5578C15.3032 14.4658 14.7512 14.6777 14.4152 15.1067C14.3642 15.1707 14.3162 15.2368 14.2702 15.3038C14.1082 15.5408 13.8382 15.6297 13.5992 15.5257C11.2952 14.5237 9.4742 12.7027 8.4732 10.3987C8.3692 10.1597 8.45616 9.89174 8.69116 9.73174C8.78016 9.67074 8.86617 9.60675 8.95117 9.53875C9.36917 9.20075 9.57619 8.66074 9.49219 8.12774L8.8222 3.87273C8.7342 3.31273 8.3502 2.85675 7.8222 2.68175C7.6872 2.63775 7.5302 2.59574 7.3482 2.56274C6.1562 2.34974 4.9362 2.68779 3.9992 3.49279C3.0132 4.34079 2.4672 5.57079 2.5022 6.86779C2.7172 14.8558 9.1442 21.2828 17.1322 21.4988C17.1712 21.4998 17.2092 21.4997 17.2482 21.4997C18.4922 21.4997 19.6682 20.9608 20.4902 20.0098C21.3022 19.0718 21.6482 17.8448 21.4402 16.6448ZM19.7322 19.3588C19.0822 20.1108 18.1492 20.5388 17.1582 20.5008C9.7002 20.2998 3.70116 14.2998 3.50116 6.84276C3.47416 5.84776 3.89321 4.90478 4.65021 4.25378C5.21921 3.76478 5.92416 3.50378 6.64416 3.50378C6.81916 3.50378 6.99516 3.51877 7.17016 3.55077C7.29916 3.57377 7.41019 3.60278 7.50519 3.63378C7.67719 3.69078 7.80215 3.84275 7.83215 4.03075L8.50317 8.28576C8.53117 8.46676 8.46116 8.64875 8.32117 8.76275C8.25917 8.81375 8.1942 8.86179 8.1272 8.90679C7.4932 9.33779 7.25817 10.1158 7.55517 10.7988C8.65817 13.3368 10.6622 15.3408 13.2002 16.4448C13.8822 16.7398 14.6612 16.5058 15.0962 15.8688C15.1292 15.8208 15.1642 15.7728 15.2012 15.7258C15.3112 15.5828 15.4952 15.5148 15.6822 15.5448L20.0142 16.2657C20.2042 16.2977 20.3562 16.4218 20.4012 16.5818C20.4212 16.6508 20.4382 16.7278 20.4532 16.8158C20.6122 17.7198 20.3492 18.6458 19.7322 19.3588Z" fill="#41416E"/>
</svg>
