<svg width="24" height="24" viewBox="0 0 24 24" fill="none" xmlns="http://www.w3.org/2000/svg">
<path d="M15 2.5H9C5.416 2.5 2.5 5.416 2.5 9V15C2.5 18.584 5.416 21.5 9 21.5H15C18.584 21.5 21.5 18.584 21.5 15V9C21.5 5.416 18.584 2.5 15 2.5ZM20.5 15C20.5 18.033 18.033 20.5 15 20.5H9C5.967 20.5 3.5 18.033 3.5 15V9C3.5 5.967 5.967 3.5 9 3.5H15C18.033 3.5 20.5 5.967 20.5 9V15ZM16.5 12C16.5 12.276 16.276 12.5 16 12.5H12.5V16C12.5 16.276 12.276 16.5 12 16.5C11.724 16.5 11.5 16.276 11.5 16V12.5H8C7.724 12.5 7.5 12.276 7.5 12C7.5 11.724 7.724 11.5 8 11.5H11.5V8C11.5 7.724 11.724 7.5 12 7.5C12.276 7.5 12.5 7.724 12.5 8V11.5H16C16.276 11.5 16.5 11.723 16.5 12Z" fill="#41416E"/>
</svg>
