<svg width="24" height="24" viewBox="0 0 24 24" fill="none" xmlns="http://www.w3.org/2000/svg">
<path d="M12 2.5C6.762 2.5 2.5 6.762 2.5 12C2.5 17.238 6.762 21.5 12 21.5C17.238 21.5 21.5 17.238 21.5 12C21.5 6.762 17.238 2.5 12 2.5ZM12 20.5C7.313 20.5 3.5 16.687 3.5 12C3.5 7.313 7.313 3.5 12 3.5C16.687 3.5 20.5 7.313 20.5 12C20.5 16.687 16.687 20.5 12 20.5ZM15.445 9.36899C15.693 10.782 15.112 12.002 13.763 12.898C12.843 13.509 12.554 13.921 12.473 14.159C12.403 14.368 12.208 14.499 11.999 14.499C11.946 14.499 11.892 14.491 11.839 14.473C11.577 14.385 11.437 14.101 11.525 13.84C11.719 13.263 12.254 12.699 13.208 12.066C14.214 11.398 14.635 10.548 14.458 9.543C14.282 8.54 13.458 7.71699 12.456 7.54099C11.703 7.40899 10.968 7.60099 10.392 8.08499C9.824 8.56199 9.49799 9.26001 9.49799 10.001C9.49799 10.277 9.27399 10.501 8.99799 10.501C8.72199 10.501 8.49799 10.277 8.49799 10.001C8.49799 8.96401 8.95399 7.987 9.74799 7.319C10.542 6.652 11.59 6.374 12.628 6.556C14.04 6.802 15.198 7.95999 15.445 9.36899ZM12.75 17C12.75 17.414 12.414 17.75 12 17.75C11.586 17.75 11.25 17.414 11.25 17C11.25 16.586 11.586 16.25 12 16.25C12.414 16.25 12.75 16.586 12.75 17Z" fill="#41416E"/>
</svg>
