<svg width="24" height="24" viewBox="0 0 24 24" fill="none" xmlns="http://www.w3.org/2000/svg">
<path d="M21.3538 20.647L16.4908 15.784C17.7368 14.373 18.4998 12.526 18.4998 10.5C18.4998 6.089 14.9108 2.5 10.4998 2.5C6.08876 2.5 2.49976 6.089 2.49976 10.5C2.49976 14.911 6.08876 18.5 10.4998 18.5C12.5258 18.5 14.3728 17.737 15.7838 16.491L20.6468 21.354C20.7448 21.452 20.8728 21.5 21.0008 21.5C21.1288 21.5 21.2568 21.451 21.3548 21.354C21.5488 21.159 21.5488 20.843 21.3538 20.647ZM10.4998 17.501C6.63976 17.501 3.49976 14.361 3.49976 10.501C3.49976 6.64101 6.63976 3.50101 10.4998 3.50101C14.3598 3.50101 17.4998 6.64101 17.4998 10.501C17.4998 14.361 14.3598 17.501 10.4998 17.501Z" fill="#41416E"/>
</svg>
