<svg width="24" height="24" viewBox="0 0 24 24" fill="none" xmlns="http://www.w3.org/2000/svg">
<path d="M12.015 15.5C11.3228 15.503 10.6452 15.3006 10.068 14.9185C9.49082 14.5364 9.03988 13.9917 8.77224 13.3533C8.5046 12.7149 8.43227 12.0114 8.56441 11.3319C8.69655 10.6524 9.02722 10.0274 9.5146 9.53581C10.002 9.04423 10.6242 8.70822 11.3025 8.57026C11.9809 8.43231 12.6849 8.4986 13.3256 8.76076C13.9662 9.02292 14.5148 9.46917 14.9018 10.0431C15.2889 10.617 15.497 11.2928 15.5 11.985C15.502 12.4446 15.4134 12.9002 15.2393 13.3256C15.0653 13.751 14.8091 14.1379 14.4855 14.4643C14.1619 14.7907 13.7772 15.0502 13.3533 15.2279C12.9294 15.4056 12.4746 15.4981 12.015 15.5ZM11.99 9.50002C11.4956 9.502 11.0128 9.65056 10.6028 9.92691C10.1928 10.2033 9.87392 10.595 9.68653 11.0525C9.49914 11.5101 9.45165 12.013 9.55005 12.4975C9.64845 12.9821 9.88833 13.4266 10.2394 13.7748C10.5904 14.1231 11.0368 14.3594 11.5221 14.4539C12.0075 14.5484 12.5099 14.4969 12.966 14.3059C13.422 14.1148 13.8112 13.7928 14.0842 13.3806C14.3573 12.9684 14.502 12.4845 14.5 11.99C14.4987 11.6617 14.4327 11.3369 14.3059 11.0341C14.179 10.7313 13.9938 10.4564 13.7607 10.2252C13.5276 9.99396 13.2513 9.81091 12.9475 9.68649C12.6437 9.56207 12.3183 9.4987 11.99 9.50002ZM12.54 21.5H11.54C11.0098 21.5024 10.5003 21.2941 10.1235 20.921C9.74678 20.5478 9.53367 20.0403 9.53102 19.51C9.53199 19.3883 9.4965 19.269 9.42914 19.1676C9.36178 19.0662 9.26561 18.9873 9.15302 18.941H9.14602C9.03998 18.8975 8.92342 18.8864 8.81109 18.9092C8.69876 18.932 8.59572 18.9876 8.51502 19.069C8.33056 19.2592 8.11029 19.411 7.8669 19.5157C7.62351 19.6203 7.36181 19.6758 7.09689 19.6789C6.83197 19.6819 6.56906 19.6325 6.32331 19.5335C6.07756 19.4345 5.85383 19.2879 5.66502 19.102L4.95702 18.402C4.77009 18.2167 4.62157 17.9964 4.51997 17.7536C4.41837 17.5108 4.36568 17.2504 4.36494 16.9872C4.3642 16.724 4.41541 16.4632 4.51564 16.2199C4.61587 15.9765 4.76314 15.7553 4.94902 15.569C5.03299 15.4824 5.08991 15.3732 5.11282 15.2547C5.13573 15.1363 5.12363 15.0137 5.07802 14.902C5.03411 14.7946 4.9592 14.7027 4.86284 14.6381C4.76649 14.5734 4.65306 14.5389 4.53702 14.539C4.27162 14.543 4.00806 14.4943 3.76161 14.3957C3.51516 14.2971 3.29072 14.1506 3.10127 13.9647C2.91182 13.7788 2.76113 13.5571 2.65792 13.3126C2.55472 13.068 2.50105 12.8055 2.50002 12.54V11.54C2.49763 11.0098 2.70591 10.5003 3.07908 10.1235C3.45225 9.74678 3.95976 9.53367 4.49002 9.53102C4.61175 9.53199 4.73099 9.4965 4.8324 9.42914C4.9338 9.36178 5.01272 9.26561 5.05902 9.15302V9.14602C5.10214 9.03992 5.11299 8.92345 5.09022 8.81121C5.06745 8.69897 5.01207 8.59594 4.93102 8.51502C4.74109 8.33036 4.58956 8.10996 4.48515 7.86651C4.38073 7.62305 4.32549 7.36135 4.32261 7.09647C4.31973 6.83159 4.36926 6.56875 4.46836 6.32308C4.56745 6.07741 4.71416 5.85377 4.90002 5.66502L5.60002 4.95402C5.78496 4.76743 6.00485 4.6191 6.24713 4.51751C6.4894 4.41592 6.74932 4.36305 7.01203 4.36194C7.27475 4.36083 7.53511 4.41148 7.77824 4.51101C8.02137 4.61055 8.24251 4.757 8.42902 4.94202C8.51407 5.0291 8.62326 5.08869 8.74251 5.11311C8.86176 5.13753 8.98559 5.12566 9.09802 5.07902C9.20604 5.03576 9.29858 4.96107 9.36366 4.86461C9.42873 4.76815 9.46335 4.65438 9.46302 4.53802C9.45905 4.27274 9.5077 4.00929 9.60614 3.76292C9.70459 3.51655 9.85088 3.29212 10.0366 3.10262C10.2223 2.91312 10.4437 2.76229 10.688 2.65886C10.9323 2.55543 11.1947 2.50144 11.46 2.50002H12.46C12.9903 2.49763 13.4998 2.70591 13.8765 3.07908C14.2533 3.45225 14.4664 3.95976 14.469 4.49002C14.4659 4.6104 14.4995 4.72889 14.5654 4.82966C14.6314 4.93043 14.7264 5.0087 14.838 5.05402C14.9472 5.09855 15.0668 5.11082 15.1828 5.08937C15.2987 5.06792 15.406 5.01366 15.492 4.93302C15.6768 4.74146 15.8981 4.58887 16.1429 4.48427C16.3876 4.37967 16.6509 4.32518 16.917 4.32402C17.1798 4.32229 17.4403 4.37266 17.6836 4.47221C17.9268 4.57176 18.1479 4.71853 18.334 4.90402L19.042 5.60402C19.2286 5.78896 19.3769 6.00885 19.4785 6.25113C19.5801 6.4934 19.633 6.75332 19.6341 7.01603C19.6352 7.27875 19.5846 7.53911 19.485 7.78224C19.3855 8.02537 19.239 8.24651 19.054 8.43302C18.9673 8.51573 18.9073 8.62251 18.8818 8.73961C18.8564 8.8567 18.8665 8.97875 18.911 9.09002L18.918 9.10402C18.9613 9.21166 19.0359 9.30382 19.1322 9.36855C19.2285 9.43327 19.342 9.46758 19.458 9.46702C19.7233 9.46252 19.9869 9.51064 20.2334 9.6086C20.48 9.70655 20.7047 9.85241 20.8946 10.0377C21.0845 10.223 21.2357 10.4442 21.3397 10.6883C21.4436 10.9324 21.4981 11.1947 21.5 11.46V12.46C21.5012 12.7227 21.4506 12.9831 21.3511 13.2263C21.2517 13.4695 21.1052 13.6907 20.9203 13.8772C20.7353 14.0638 20.5153 14.2121 20.273 14.3136C20.0307 14.4152 19.7708 14.468 19.508 14.469C19.3876 14.4659 19.2692 14.4995 19.1684 14.5654C19.0676 14.6314 18.9893 14.7264 18.944 14.838C18.8997 14.9472 18.8876 15.0668 18.909 15.1827C18.9305 15.2986 18.9846 15.4059 19.065 15.492C19.2551 15.6761 19.4068 15.8961 19.5113 16.1392C19.6158 16.3824 19.671 16.6438 19.6737 16.9085C19.6764 17.1731 19.6265 17.4356 19.527 17.6808C19.4275 17.9261 19.2803 18.1491 19.094 18.337L18.394 19.045C18.2091 19.2316 17.9892 19.3799 17.7469 19.4815C17.5046 19.5831 17.2447 19.636 16.982 19.6371C16.7193 19.6382 16.4589 19.5876 16.2158 19.488C15.9727 19.3885 15.7515 19.242 15.565 19.057C15.4823 18.9703 15.3755 18.9103 15.2584 18.8848C15.1413 18.8594 15.0193 18.8695 14.908 18.914C14.7983 18.9579 14.704 19.0333 14.6369 19.1306C14.5698 19.2279 14.533 19.3428 14.531 19.461C14.5351 19.7259 14.4868 19.9889 14.3888 20.235C14.2907 20.4811 14.145 20.7054 13.9599 20.895C13.7749 21.0845 13.5541 21.2355 13.3104 21.3394C13.0667 21.4432 12.8049 21.4978 12.54 21.5ZM9.58102 18.039C9.85937 18.1643 10.0964 18.3661 10.2646 18.6208C10.4328 18.8756 10.5252 19.1728 10.531 19.478C10.5289 19.6111 10.5531 19.7432 10.6024 19.8668C10.6516 19.9905 10.7248 20.1031 10.8177 20.1983C10.9107 20.2935 11.0216 20.3694 11.144 20.4215C11.2664 20.4736 11.398 20.501 11.531 20.502H12.531C12.7962 20.502 13.0506 20.3967 13.2381 20.2091C13.4257 20.0216 13.531 19.7672 13.531 19.502C13.5298 19.1819 13.6234 18.8685 13.8002 18.6015C13.9769 18.3346 14.2288 18.1259 14.524 18.002C14.8123 17.881 15.13 17.8483 15.4369 17.9079C15.7437 17.9676 16.026 18.1169 16.248 18.337C16.3409 18.4331 16.4519 18.5097 16.5746 18.5625C16.6973 18.6153 16.8293 18.6432 16.9629 18.6446C17.0965 18.646 17.229 18.6209 17.3528 18.5707C17.4766 18.5204 17.5892 18.4461 17.684 18.352L18.384 17.644C18.4768 17.5506 18.5502 17.4398 18.6 17.3179C18.6498 17.196 18.6751 17.0655 18.6743 16.9339C18.6736 16.8022 18.6468 16.672 18.5957 16.5507C18.5445 16.4294 18.4698 16.3194 18.376 16.227C18.1524 16.004 17.9989 15.7205 17.9342 15.4114C17.8696 15.1023 17.8966 14.781 18.012 14.487V14.476L18.017 14.463C18.1344 14.1727 18.3358 13.9239 18.5953 13.7486C18.8549 13.5733 19.1608 13.4795 19.474 13.479C19.6069 13.4809 19.7388 13.4564 19.8622 13.4071C19.9856 13.3578 20.098 13.2845 20.193 13.1916C20.288 13.0987 20.3637 12.9879 20.4157 12.8656C20.4677 12.7433 20.495 12.6119 20.496 12.479V11.479C20.496 11.2138 20.3907 10.9594 20.2031 10.7719C20.0156 10.5844 19.7612 10.479 19.496 10.479C19.1772 10.4848 18.8641 10.3945 18.5973 10.2199C18.3305 10.0453 18.1224 9.79446 18 9.50002V9.49302C17.8764 9.20344 17.8418 8.88361 17.9005 8.57427C17.9593 8.26493 18.1088 7.98009 18.33 7.75602C18.4262 7.66323 18.5029 7.55225 18.5558 7.42952C18.6087 7.3068 18.6367 7.17479 18.6381 7.04116C18.6395 6.90753 18.6143 6.77497 18.564 6.65116C18.5137 6.52736 18.4392 6.4148 18.345 6.32002L17.637 5.62002C17.5437 5.52746 17.433 5.4542 17.3114 5.40444C17.1897 5.35468 17.0595 5.32939 16.928 5.33002C16.7961 5.33041 16.6657 5.35715 16.5442 5.40867C16.4228 5.46019 16.3129 5.53544 16.221 5.63002C15.998 5.85359 15.7145 6.00714 15.4054 6.07181C15.0963 6.13647 14.775 6.10944 14.481 5.99402H14.47H14.457C14.1667 5.87662 13.9179 5.67527 13.7426 5.41571C13.5673 5.15616 13.4735 4.85022 13.473 4.53702C13.4749 4.40415 13.4504 4.27222 13.4011 4.14882C13.3518 4.02543 13.2785 3.91301 13.1856 3.81802C13.0927 3.72304 12.9819 3.64737 12.8596 3.59537C12.7373 3.54337 12.6059 3.51606 12.473 3.51502H11.473C11.2078 3.51502 10.9534 3.62038 10.7659 3.80791C10.5784 3.99545 10.473 4.2498 10.473 4.51502C10.4763 4.83256 10.3843 5.14378 10.2089 5.4085C10.0335 5.67321 9.78272 5.87925 9.48902 6.00002C9.19882 6.12023 8.87983 6.15304 8.57124 6.09441C8.26265 6.03578 7.97791 5.88828 7.75202 5.67002C7.65916 5.57397 7.54815 5.49733 7.42544 5.44452C7.30272 5.39172 7.17074 5.36381 7.03716 5.36241C6.90357 5.36101 6.77103 5.38616 6.64724 5.43639C6.52345 5.48662 6.41087 5.56094 6.31602 5.65502L5.61602 6.36602C5.52344 6.45929 5.45014 6.56989 5.40033 6.6915C5.35052 6.81311 5.32517 6.94335 5.32573 7.07476C5.32629 7.20618 5.35274 7.3362 5.40358 7.45738C5.45442 7.57857 5.52865 7.68854 5.62202 7.78102C5.85051 8.0013 6.00785 8.28491 6.07379 8.59536C6.13973 8.90581 6.11125 9.22889 5.99202 9.52302C5.98457 9.5419 5.97588 9.56028 5.96602 9.57802C5.84072 9.85637 5.63896 10.0934 5.38422 10.2616C5.12947 10.4298 4.83222 10.5222 4.52702 10.528C4.39398 10.5259 4.26183 10.5501 4.13821 10.5994C4.01458 10.6486 3.90192 10.7218 3.80673 10.8147C3.71153 10.9077 3.63568 11.0186 3.58356 11.141C3.53143 11.2634 3.50406 11.395 3.50302 11.528V12.528C3.50302 12.7932 3.60838 13.0476 3.79591 13.2351C3.98345 13.4227 4.2378 13.528 4.50302 13.528C4.82199 13.5214 5.13552 13.6113 5.40261 13.7858C5.66969 13.9602 5.87791 14.2113 6.00002 14.506V14.516V14.527C6.11743 14.8172 6.14809 15.1352 6.08826 15.4425C6.02844 15.7498 5.88072 16.0331 5.66302 16.258C5.56734 16.3505 5.49109 16.4612 5.43874 16.5836C5.38638 16.706 5.35899 16.8375 5.35815 16.9706C5.35731 17.1037 5.38305 17.2356 5.43385 17.3587C5.48466 17.4817 5.55951 17.5933 5.65402 17.687L6.36202 18.387C6.45529 18.4796 6.56589 18.5529 6.6875 18.6027C6.80911 18.6525 6.93935 18.6779 7.07076 18.6773C7.20218 18.6768 7.3322 18.6503 7.45338 18.5995C7.57457 18.5486 7.68454 18.4744 7.77702 18.381C7.9973 18.1525 8.28091 17.9952 8.59136 17.9293C8.90181 17.8633 9.22489 17.8918 9.51902 18.011C9.54034 18.0188 9.56107 18.0282 9.58102 18.039Z" fill="#41416E"/>
</svg>
