<svg width="24" height="24" viewBox="0 0 24 24" fill="none" xmlns="http://www.w3.org/2000/svg">
<path d="M21.4102 9.75073C21.1922 9.07273 20.6151 8.58873 19.9031 8.48672L15.5942 7.86972L13.6682 4.02472C13.3522 3.39272 12.7122 3.00073 12.0002 3.00073C11.2882 3.00073 10.6482 3.39372 10.3322 4.02472L8.40617 7.86972L4.09715 8.48672C3.38515 8.58873 2.80816 9.07273 2.59016 9.75073C2.37416 10.4207 2.55715 11.1417 3.06715 11.6317L6.18116 14.6217L5.44615 18.8427C5.32615 19.5317 5.60416 20.2187 6.17216 20.6347C6.75116 21.0587 7.50615 21.1177 8.14515 20.7867L12.0012 18.7887L15.8572 20.7867C16.1312 20.9297 16.4282 20.9987 16.7232 20.9987C17.1132 20.9987 17.5002 20.8757 17.8302 20.6347C18.3982 20.2177 18.6762 19.5317 18.5562 18.8427L17.8211 14.6217L20.9352 11.6307C21.4432 11.1407 21.6252 10.4207 21.4102 9.75073ZM20.2402 10.9097L16.9342 14.0847C16.8142 14.1997 16.7592 14.3677 16.7882 14.5317L17.5682 19.0147C17.6232 19.3317 17.4992 19.6357 17.2362 19.8287C16.9622 20.0297 16.6172 20.0567 16.3152 19.8997L12.2292 17.7827C12.1572 17.7447 12.0782 17.7267 11.9992 17.7267C11.9202 17.7267 11.8411 17.7457 11.7691 17.7827L7.68315 19.8997C7.37915 20.0567 7.03616 20.0297 6.76216 19.8287C6.49916 19.6357 6.37516 19.3317 6.43016 19.0147L7.21016 14.5317C7.23816 14.3677 7.18416 14.1997 7.06416 14.0847L3.75816 10.9107C3.52316 10.6837 3.44114 10.3657 3.54014 10.0577C3.64214 9.74274 3.90216 9.52475 4.23716 9.47675L8.80516 8.82272C8.96716 8.79972 9.10816 8.69773 9.18116 8.55173L11.2242 4.47174C11.5202 3.88074 12.4762 3.88074 12.7722 4.47174L14.8152 8.55072C14.8892 8.69672 15.0291 8.79875 15.1911 8.82175L19.7592 9.47574C20.0942 9.52374 20.3552 9.74073 20.4562 10.0567C20.5572 10.3647 20.4762 10.6837 20.2402 10.9097Z" fill="#41416E"/>
</svg>
