<svg width="24" height="24" viewBox="0 0 24 24" fill="none" xmlns="http://www.w3.org/2000/svg">
<path d="M15.354 9.353L12.707 12L15.353 14.646C15.548 14.841 15.548 15.158 15.353 15.353C15.255 15.451 15.127 15.499 14.999 15.499C14.871 15.499 14.743 15.45 14.645 15.353L12 12.707L9.354 15.353C9.256 15.451 9.128 15.499 9 15.499C8.872 15.499 8.744 15.45 8.646 15.353C8.451 15.158 8.451 14.841 8.646 14.646L11.292 12L8.646 9.354C8.451 9.159 8.451 8.842 8.646 8.647C8.841 8.452 9.15803 8.452 9.35303 8.647L11.999 11.293L14.645 8.647C14.84 8.452 15.157 8.452 15.352 8.647C15.547 8.842 15.549 9.158 15.354 9.353ZM21.5 9V15C21.5 18.584 18.584 21.5 15 21.5H9C5.416 21.5 2.5 18.584 2.5 15V9C2.5 5.416 5.416 2.5 9 2.5H15C18.584 2.5 21.5 5.416 21.5 9ZM20.5 9C20.5 5.967 18.033 3.5 15 3.5H9C5.967 3.5 3.5 5.967 3.5 9V15C3.5 18.033 5.967 20.5 9 20.5H15C18.033 20.5 20.5 18.033 20.5 15V9Z" fill="#41416E"/>
</svg>
