<svg width="24" height="24" viewBox="0 0 24 24" fill="none" xmlns="http://www.w3.org/2000/svg">
<path d="M11.9995 12.4998C14.7565 12.4998 16.9995 10.2568 16.9995 7.49976C16.9995 4.74276 14.7565 2.49976 11.9995 2.49976C9.24251 2.49976 6.99951 4.74276 6.99951 7.49976C6.99951 10.2568 9.24251 12.4998 11.9995 12.4998ZM11.9995 3.49976C14.2055 3.49976 15.9995 5.29376 15.9995 7.49976C15.9995 9.70576 14.2055 11.4998 11.9995 11.4998C9.79351 11.4998 7.99951 9.70576 7.99951 7.49976C7.99951 5.29376 9.79351 3.49976 11.9995 3.49976ZM19.4995 17.9668V18.9778C19.4995 19.8508 19.1805 20.6868 18.6025 21.3328C18.5035 21.4428 18.3675 21.4998 18.2295 21.4998C18.1105 21.4998 17.9915 21.4577 17.8965 21.3727C17.6905 21.1877 17.6735 20.8727 17.8575 20.6667C18.2725 20.2047 18.5005 19.6048 18.5005 18.9788V17.9677C18.5005 16.3397 17.4185 14.9298 15.8685 14.5398C15.5525 14.4608 15.2135 14.5037 14.9375 14.6617C13.1145 15.6757 10.8815 15.6728 9.06653 14.6638C8.78653 14.5038 8.44851 14.4598 8.13251 14.5398C6.58251 14.9298 5.49951 16.3387 5.49951 17.9677V18.9788C5.49951 19.6048 5.72752 20.2047 6.14252 20.6667C6.32652 20.8727 6.30952 21.1877 6.10352 21.3727C5.89852 21.5567 5.58352 21.5397 5.39752 21.3337C4.81852 20.6877 4.50049 19.8518 4.50049 18.9788V17.9677C4.50049 15.8807 5.89449 14.0718 7.88849 13.5708C8.45149 13.4288 9.06049 13.5088 9.5575 13.7928C11.0655 14.6318 12.9305 14.6337 14.4465 13.7907C14.9395 13.5087 15.5485 13.4288 16.1125 13.5708C18.1065 14.0708 19.4995 15.8788 19.4995 17.9668Z" fill="#41416E"/>
</svg>
