<svg width="195" height="275" viewBox="0 0 195 275" fill="none" xmlns="http://www.w3.org/2000/svg">
<path d="M53.3335 213.333C53.3335 225.066 58.5335 235.6 66.6668 242.933V266.666C66.6668 274 72.6668 280 80.0002 280H93.3335C100.667 280 106.667 274 106.667 266.666V253.333H213.333V266.666C213.333 274 219.333 280 226.667 280H240C247.333 280 253.333 274 253.333 266.666V242.933C261.467 235.6 266.667 225.066 266.667 213.333V79.9998C266.667 33.3332 218.933 26.6665 160 26.6665C101.067 26.6665 53.3335 33.3332 53.3335 79.9998V213.333ZM100 226.666C88.9335 226.666 80.0002 217.733 80.0002 206.666C80.0002 195.6 88.9335 186.667 100 186.667C111.067 186.667 120 195.6 120 206.666C120 217.733 111.067 226.666 100 226.666ZM220 226.666C208.933 226.666 200 217.733 200 206.666C200 195.6 208.933 186.667 220 186.667C231.067 186.667 240 195.6 240 206.666C240 217.733 231.067 226.666 220 226.666ZM240 146.667H80.0002V79.9998H240V146.667Z" fill="#5C5C5C" fill-opacity="0.2"/>
</svg>
