<svg width="24" height="24" viewBox="0 0 24 24" fill="none" xmlns="http://www.w3.org/2000/svg">
<path d="M12 2.5C6.76 2.5 2.5 6.76 2.5 12C2.5 17.24 6.76 21.5 12 21.5C17.24 21.5 21.5 17.24 21.5 12C21.5 6.76 17.24 2.5 12 2.5ZM15.71 13.71C15.51 13.9 15.26 14 15 14C14.74 14 14.49 13.9 14.29 13.71L12 11.4099L9.71002 13.71C9.32002 14.1 8.67998 14.1 8.28998 13.71C7.89998 13.32 7.89998 12.68 8.28998 12.29L11.29 9.29004C11.68 8.90004 12.32 8.90004 12.71 9.29004L15.71 12.29C16.1 12.68 16.1 13.32 15.71 13.71Z" fill="#41416E"/>
</svg>
