<svg width="24" height="24" viewBox="0 0 24 24" fill="none" xmlns="http://www.w3.org/2000/svg">
<path d="M12 2.5C6.76 2.5 2.5 6.76 2.5 12C2.5 17.24 6.76 21.5 12 21.5C17.24 21.5 21.5 17.24 21.5 12C21.5 6.76 17.24 2.5 12 2.5ZM15.71 11.71L12.71 14.71C12.51 14.9 12.26 15 12 15C11.74 15 11.49 14.9 11.29 14.71L8.28998 11.71C7.89998 11.32 7.89998 10.68 8.28998 10.29C8.67998 9.90004 9.32002 9.90004 9.71002 10.29L12 12.5901L14.29 10.29C14.68 9.90004 15.32 9.90004 15.71 10.29C16.1 10.68 16.1 11.32 15.71 11.71Z" fill="#41416E"/>
</svg>
