<svg width="24" height="24" viewBox="0 0 24 24" fill="none" xmlns="http://www.w3.org/2000/svg">
<path d="M21.0095 10.241C20.4667 9.344 19.5839 8.1291 18.3643 7.0391L20.6956 4.70707C21.0864 4.31607 21.0864 3.68401 20.6956 3.29301C20.3047 2.90201 19.6729 2.90201 19.282 3.29301L3.2873 19.293C2.89643 19.684 2.89643 20.3161 3.2873 20.7071C3.48224 20.9021 3.73815 21 3.99407 21C4.24998 21 4.5059 20.9021 4.70083 20.7071L7.235 18.1722C8.70452 19.0512 10.297 19.501 11.9924 19.501C16.8208 19.501 19.7099 15.901 21.0095 13.761C21.6593 12.671 21.6593 11.331 21.0095 10.241ZM11.9924 16.501C11.1107 16.501 10.301 16.2341 9.60825 15.7981L11.0808 14.324C11.3627 14.435 11.6685 14.501 11.9914 14.501C13.371 14.501 14.4906 13.381 14.4906 12.001C14.4906 11.951 14.4906 11.9211 14.4806 11.8711C14.3407 11.9511 14.1707 12.001 13.9908 12.001C13.8208 12.001 13.6689 11.9481 13.5299 11.8741L15.7912 9.6121C16.2291 10.3061 16.49 11.122 16.49 12.001C16.4909 14.481 14.4716 16.501 11.9924 16.501ZM4.31498 15.6211C3.82514 15.0411 3.3753 14.411 2.98543 13.761C2.33564 12.671 2.33563 11.331 2.97542 10.241C4.27499 8.101 7.17403 4.50101 11.9924 4.50101C12.9221 4.50101 13.8218 4.63093 14.7415 4.91093C14.9115 4.96093 15.0414 5.10103 15.0914 5.27103C15.1314 5.44103 15.0814 5.621 14.9515 5.741L13.0621 7.63114C12.7222 7.55114 12.3623 7.50101 11.9924 7.50101C9.51326 7.50101 7.49392 9.52101 7.49392 12.001C7.49392 12.371 7.53391 12.7311 7.62388 13.0811L5.05472 15.6509C4.95476 15.7509 4.83481 15.8011 4.69486 15.8011C4.69486 15.8011 4.68484 15.8011 4.67484 15.8011C4.53489 15.7911 4.40495 15.7311 4.31498 15.6211Z" fill="#41416E"/>
</svg>
