<svg width="24" height="24" viewBox="0 0 24 24" fill="none" xmlns="http://www.w3.org/2000/svg">
<path d="M21.0102 10.24C19.7207 8.09999 16.8418 4.5 11.9937 4.5C7.15564 4.5 4.2668 8.09999 2.98731 10.24C2.33756 11.33 2.33756 12.67 2.98731 13.75C4.2668 15.9 7.15564 19.5 11.9937 19.5C16.8418 19.5 19.7207 15.9 21.0102 13.75C21.3301 13.21 21.5 12.61 21.5 12C21.5 11.39 21.3301 10.79 21.0102 10.24ZM11.9937 16.5C9.51471 16.5 7.49551 14.48 7.49551 12C7.49551 9.52 9.51471 7.5 11.9937 7.5C14.4728 7.5 16.492 9.52 16.492 12C16.492 14.48 14.4728 16.5 11.9937 16.5ZM14.4828 11.8601C14.4928 11.9101 14.4928 11.95 14.4928 12C14.4928 13.38 13.3732 14.5 11.9937 14.5C10.6143 14.5 9.49472 13.38 9.49472 12C9.49472 10.62 10.6143 9.5 11.9937 9.5C12.6035 9.5 13.1633 9.72008 13.5931 10.0801C13.2433 10.2401 12.9933 10.59 12.9933 11C12.9933 11.55 13.4432 12 13.9929 12C14.1729 12 14.3428 11.9501 14.4828 11.8601Z" fill="#41416E"/>
</svg>
