<svg width="25" height="24" viewBox="0 0 25 24" fill="none" xmlns="http://www.w3.org/2000/svg">
<path d="M17.5 10.24V7.25C17.5 4.49 15.26 2.25 12.5 2.25C9.74 2.25 7.5 4.49 7.5 7.25V10.24C6.02 10.98 5 12.49 5 14.25V17.25C5 19.73 7.02 21.75 9.5 21.75H15.5C17.98 21.75 20 19.73 20 17.25V14.25C20 12.49 18.98 10.98 17.5 10.24ZM13.5 16.25C13.5 16.8 13.05 17.25 12.5 17.25C11.95 17.25 11.5 16.8 11.5 16.25V15.25C11.5 14.7 11.95 14.25 12.5 14.25C13.05 14.25 13.5 14.7 13.5 15.25V16.25ZM15.5 9.75H9.5V7.25C9.5 5.6 10.85 4.25 12.5 4.25C14.15 4.25 15.5 5.6 15.5 7.25V9.75Z" fill="#41416E"/>
</svg>
