<svg width="24" height="24" viewBox="0 0 24 24" fill="none" xmlns="http://www.w3.org/2000/svg">
<path d="M12.9999 21C12.9999 21.553 12.5519 22 11.9999 22H7.99988C5.24288 22 2.99988 19.757 2.99988 17L2.99988 7C2.99988 4.243 5.24288 2 7.99988 2L11.9999 2C12.5519 2 12.9999 2.447 12.9999 3C12.9999 3.553 12.5519 4 11.9999 4L7.99988 4C6.34588 4 4.99988 5.346 4.99988 7L4.99988 17C4.99988 18.654 6.34588 20 7.99988 20H11.9999C12.5529 20 12.9999 20.447 12.9999 21ZM20.7069 11.293L16.7069 7.29297C16.3159 6.90197 15.6839 6.90197 15.2929 7.29297C14.9019 7.68397 14.9019 8.31603 15.2929 8.70703L17.5859 11H9.99988C9.44788 11 8.99988 11.447 8.99988 12C8.99988 12.553 9.44788 13 9.99988 13H17.5859L15.2929 15.293C14.9019 15.684 14.9019 16.316 15.2929 16.707C15.4879 16.902 15.7439 17 15.9999 17C16.2559 17 16.5119 16.902 16.7069 16.707L20.7069 12.707C21.0979 12.316 21.0979 11.683 20.7069 11.293Z" fill="#41416E"/>
</svg>
