<svg width="24" height="24" viewBox="0 0 24 24" fill="none" xmlns="http://www.w3.org/2000/svg">
<path d="M14 10C14 11.1 13.1 12 12 12C10.9 12 10 11.1 10 10C10 8.9 10.9 8 12 8C13.1 8 14 8.9 14 10ZM19.5 10C19.5 16.08 14.83 19.89 12.83 21.24C12.58 21.42 12.29 21.5 12 21.5C11.71 21.5 11.42 21.42 11.16 21.24C9.16 19.89 4.5 16.09 4.5 10C4.5 5.72 7.72 2.5 12 2.5C16.27 2.5 19.5 5.72 19.5 10ZM16 10C16 7.79 14.21 6 12 6C9.79 6 8 7.79 8 10C8 12.21 9.79 14 12 14C14.21 14 16 12.21 16 10Z" fill="#41416E"/>
</svg>
