<svg width="24" height="24" viewBox="0 0 24 24" fill="none" xmlns="http://www.w3.org/2000/svg">
<path d="M7.88 2.77482C8 2.71486 8.12 2.66498 8.25 2.625V19.1064L6.12 20.1957C5.35 20.5955 4.46 20.5557 3.72 20.1059C2.96 19.6461 2.5 18.8264 2.5 17.9168V7.74221C2.5 6.38292 3.23999 5.1536 4.42999 4.54392L7.88 2.77482ZM9.75 2.625V19.1064L13.88 21.2252C14 21.2851 14.12 21.335 14.25 21.375V4.89359L10.12 2.77482C10 2.71486 9.88 2.66498 9.75 2.625ZM20.28 3.89411C19.54 3.44435 18.65 3.41452 17.88 3.80432L15.75 4.89359V21.375C15.88 21.335 16 21.2851 16.12 21.2252L19.57 19.4561C20.76 18.8464 21.5 17.6171 21.5 16.2578V6.08316C21.5 5.17363 21.04 4.35387 20.28 3.89411Z" fill="#41416E"/>
</svg>
