<svg width="24" height="24" viewBox="0 0 24 24" fill="none" xmlns="http://www.w3.org/2000/svg">
<path d="M11.9109 6.33008L17.6709 12.0901L9.77097 20C9.40097 20.37 8.93093 20.61 8.42094 20.7L3.68094 21.49C3.62094 21.5 3.57096 21.5 3.51096 21.5C3.25096 21.5 2.99094 21.39 2.80094 21.2C2.57094 20.97 2.46096 20.6401 2.51096 20.3201L3.30094 15.5801C3.39094 15.0701 3.63095 14.6 4.00095 14.23L11.9109 6.33008ZM20.3009 3.69995C19.5309 2.91995 18.5109 2.5 17.4209 2.5C16.3309 2.5 15.3109 2.91995 14.5409 3.69995L13.331 4.90991L19.091 10.6699L20.3009 9.45996C21.0809 8.68996 21.501 7.67008 21.501 6.58008C21.501 5.49008 21.0809 4.46995 20.3009 3.69995Z" fill="#41416E"/>
</svg>
