<svg width="24" height="24" viewBox="0 0 24 24" fill="none" xmlns="http://www.w3.org/2000/svg">
<path d="M20.49 20.0117C19.668 20.9617 18.493 21.4997 17.249 21.4997C17.21 21.4997 17.171 21.4997 17.132 21.4987C9.14396 21.2817 2.71695 14.8546 2.50195 6.86765C2.46695 5.57065 3.01296 4.34162 3.99896 3.49362C4.93596 2.68662 6.15596 2.34971 7.34796 2.56271C7.53096 2.59571 7.68796 2.63761 7.82196 2.68161C8.34996 2.85661 8.73396 3.3138 8.82196 3.8718L9.492 8.12668C9.576 8.65968 9.36799 9.19981 8.95099 9.53781C8.86699 9.60581 8.77996 9.67068 8.68896 9.73068C8.45696 9.88868 8.36896 10.1577 8.47296 10.3967C9.47496 12.7017 11.295 14.5217 13.599 15.5237C13.839 15.6287 14.108 15.5387 14.27 15.3017C14.317 15.2337 14.366 15.1668 14.416 15.1028C14.752 14.6748 15.303 14.4686 15.847 14.5556L20.179 15.2768C20.751 15.3728 21.216 15.7778 21.365 16.3098C21.392 16.4068 21.418 16.5168 21.44 16.6418C21.649 17.8428 21.303 19.0697 20.49 20.0117Z" fill="#41416E"/>
</svg>
