<svg width="24" height="24" viewBox="0 0 24 24" fill="none" xmlns="http://www.w3.org/2000/svg">
<path d="M12 2C6.49 2 2 6.49 2 12C2 17.51 6.49 22 12 22C17.51 22 22 17.51 22 12C22 6.49 17.51 2 12 2ZM12 18C11.45 18 11 17.55 11 17C11 16.45 11.45 16 12 16C12.55 16 13 16.45 13 17C13 17.55 12.55 18 12 18ZM14.04 13.3201C13.12 13.9301 12.97 14.2601 12.95 14.3201C12.81 14.7401 12.42 15 12 15C11.89 15 11.79 14.98 11.68 14.95C11.16 14.77 10.88 14.1999 11.05 13.6799C11.36 12.7799 12.27 12.0899 12.93 11.6499C14.18 10.8199 14.02 9.91988 13.97 9.62988C13.83 8.83988 13.16 8.17003 12.37 8.03003C11.76 7.92003 11.18 8.07997 10.71 8.46997C10.26 8.84997 10 9.41 10 10C10 10.55 9.55 11 9 11C8.45 11 8 10.55 8 10C8 8.82 8.51999 7.69994 9.42999 6.93994C10.34 6.16994 11.54 5.86006 12.72 6.06006C14.33 6.35006 15.65 7.67003 15.94 9.28003C16.22 10.88 15.54 12.3201 14.04 13.3201Z" fill="#41416E"/>
</svg>
