<svg width="24" height="24" viewBox="0 0 24 24" fill="none" xmlns="http://www.w3.org/2000/svg">
<path d="M21.7069 20.293L17.1679 15.7539C18.3109 14.3059 18.9999 12.483 18.9999 10.5C18.9999 5.813 15.1869 2 10.4999 2C5.81288 2 1.99988 5.813 1.99988 10.5C1.99988 15.187 5.81288 19 10.4999 19C12.4839 19 14.3059 18.312 15.7539 17.168L20.2929 21.707C20.4879 21.902 20.7439 22 20.9999 22C21.2559 22 21.5119 21.902 21.7069 21.707C22.0979 21.316 22.0979 20.684 21.7069 20.293ZM3.99988 10.5C3.99988 6.916 6.91588 4 10.4999 4C14.0839 4 16.9999 6.916 16.9999 10.5C16.9999 14.084 14.0839 17 10.4999 17C6.91588 17 3.99988 14.084 3.99988 10.5Z" fill="#41416E"/>
</svg>
