<svg width="24" height="24" viewBox="0 0 24 24" fill="none" xmlns="http://www.w3.org/2000/svg">
<path d="M15 2.5H9C5.42 2.5 2.5 5.42 2.5 9V15C2.5 18.58 5.42 21.5 9 21.5H15C18.58 21.5 21.5 18.58 21.5 15V9C21.5 5.42 18.58 2.5 15 2.5ZM15.71 14.29C16.1 14.68 16.1 15.32 15.71 15.71C15.51 15.9 15.26 16 15 16C14.74 16 14.49 15.9 14.29 15.71L12 13.4199L9.71002 15.71C9.51002 15.9 9.26 16 9 16C8.74 16 8.48998 15.9 8.28998 15.71C7.89998 15.32 7.89998 14.68 8.28998 14.29L10.58 12L8.28998 9.70996C7.89998 9.31996 7.89998 8.68004 8.28998 8.29004C8.67998 7.90004 9.32002 7.90004 9.71002 8.29004L12 10.5801L14.29 8.29004C14.68 7.90004 15.32 7.90004 15.71 8.29004C16.1 8.68004 16.1 9.31996 15.71 9.70996L13.42 12L15.71 14.29Z" fill="#41416E"/>
</svg>
