<svg width="195" height="275" viewBox="0 0 195 275" fill="none" xmlns="http://www.w3.org/2000/svg">
<path d="M160 26.6665C106.667 26.6665 53.3335 33.3332 53.3335 79.9998V206.667C53.3335 232.4 74.2668 253.333 100 253.333L80.0002 273.333V280H109.733L136.4 253.333H186.667L213.333 280H240V273.333L220 253.333C245.734 253.333 266.667 232.4 266.667 206.667V79.9998C266.667 33.3332 218.934 26.6665 160 26.6665ZM100 226.667C88.9335 226.667 80.0002 217.733 80.0002 206.667C80.0002 195.6 88.9335 186.667 100 186.667C111.067 186.667 120 195.6 120 206.667C120 217.733 111.067 226.667 100 226.667ZM146.667 133.333H80.0002V79.9998H146.667V133.333ZM173.334 133.333V79.9998H240V133.333H173.334ZM220 226.667C208.934 226.667 200 217.733 200 206.667C200 195.6 208.934 186.667 220 186.667C231.067 186.667 240 195.6 240 206.667C240 217.733 231.067 226.667 220 226.667Z" fill="#5C5C5C" fill-opacity="0.2"/>
</svg>
