<svg width="24" height="24" viewBox="0 0 24 24" fill="none" xmlns="http://www.w3.org/2000/svg">
<path d="M22 6.25C22 6.803 21.552 7.25 21 7.25H3C2.448 7.25 2 6.803 2 6.25C2 5.697 2.448 5.25 3 5.25H6.55902C6.99002 5.25 7.371 4.97592 7.508 4.56592L7.82397 3.61792C8.09697 2.79992 8.86001 2.25 9.72101 2.25H14.28C15.142 2.25 15.905 2.79994 16.177 3.61694L16.493 4.56689C16.629 4.97489 17.011 5.25 17.442 5.25H21C21.552 5.25 22 5.697 22 6.25ZM19.3 9.28003L18.69 18.48C18.56 20.32 17.02 21.75 15.19 21.75H8.81C6.98 21.75 5.44 20.32 5.31 18.49L4.70001 9.28003C4.69001 9.15003 4.74002 9.00991 4.83002 8.90991C4.93002 8.80991 5.06001 8.75 5.20001 8.75H18.8C18.94 8.75 19.07 8.80991 19.17 8.90991C19.26 9.00991 19.31 9.15003 19.3 9.28003ZM11 12.25C11 11.7 10.55 11.25 10 11.25C9.45 11.25 9 11.7 9 12.25V17.25C9 17.8 9.45 18.25 10 18.25C10.55 18.25 11 17.8 11 17.25V12.25ZM15 12.25C15 11.7 14.55 11.25 14 11.25C13.45 11.25 13 11.7 13 12.25V17.25C13 17.8 13.45 18.25 14 18.25C14.55 18.25 15 17.8 15 17.25V12.25Z" fill="#41416E"/>
</svg>
