<svg width="25" height="24" viewBox="0 0 25 24" fill="none" xmlns="http://www.w3.org/2000/svg">
<path d="M7.50049 7.49951C7.50049 4.74251 9.74349 2.49951 12.5005 2.49951C15.2575 2.49951 17.5005 4.74251 17.5005 7.49951C17.5005 10.2565 15.2575 12.4995 12.5005 12.4995C9.74349 12.4995 7.50049 10.2565 7.50049 7.49951ZM16.6175 13.5706C16.0585 13.4286 15.4505 13.5086 14.9475 13.7886C13.4295 14.6326 11.5715 14.6326 10.0535 13.7886C9.55147 13.5096 8.94248 13.4306 8.38348 13.5706C6.39148 14.0736 5.00049 15.8816 5.00049 17.9666V18.9775C5.00049 19.6155 5.17047 20.2394 5.49347 20.7834C5.75647 21.2254 6.2495 21.5005 6.7785 21.5005H18.2215C18.7505 21.5005 19.2435 21.2265 19.5065 20.7825C19.8295 20.2395 19.9995 19.6155 19.9995 18.9775V17.9666C20.0005 15.8816 18.6095 14.0736 16.6175 13.5706Z" fill="#41416E"/>
</svg>
