<svg width="24" height="24" viewBox="0 0 24 24" fill="none" xmlns="http://www.w3.org/2000/svg">
<path d="M16.53 9.46899C16.823 9.76199 16.823 10.237 16.53 10.53L11.53 15.53C11.384 15.676 11.192 15.75 11 15.75C10.808 15.75 10.616 15.677 10.47 15.53L7.47 12.53C7.177 12.237 7.177 11.762 7.47 11.469C7.763 11.176 8.23801 11.176 8.53101 11.469L11.001 13.939L15.471 9.46899C15.763 9.17699 16.237 9.17699 16.53 9.46899ZM21.75 12C21.75 17.376 17.376 21.75 12 21.75C6.624 21.75 2.25 17.376 2.25 12C2.25 6.624 6.624 2.25 12 2.25C17.376 2.25 21.75 6.624 21.75 12ZM20.25 12C20.25 7.451 16.549 3.75 12 3.75C7.451 3.75 3.75 7.451 3.75 12C3.75 16.549 7.451 20.25 12 20.25C16.549 20.25 20.25 16.549 20.25 12Z" fill="#41416E"/>
</svg>
