<svg width="24" height="24" viewBox="0 0 24 24" fill="none" xmlns="http://www.w3.org/2000/svg">
<path d="M17 4.25H7C4.381 4.25 2.25 6.381 2.25 9V15C2.25 17.619 4.381 19.75 7 19.75H17C19.619 19.75 21.75 17.619 21.75 15V9C21.75 6.381 19.619 4.25 17 4.25ZM7 5.75H17C18.354 5.75 19.515 6.58394 20.003 7.76294L13.803 11.897C12.708 12.626 11.292 12.626 10.198 11.897L3.99799 7.76294C4.48499 6.58294 5.646 5.75 7 5.75ZM17 18.25H7C5.208 18.25 3.75 16.792 3.75 15V9.401L9.36499 13.145C10.165 13.678 11.082 13.9449 12 13.9449C12.917 13.9449 13.834 13.678 14.635 13.145L20.25 9.401V15C20.25 16.792 18.792 18.25 17 18.25Z" fill="#41416E"/>
</svg>
