<svg width="24" height="24" viewBox="0 0 24 24" fill="none" xmlns="http://www.w3.org/2000/svg">
<path d="M19.237 7.177L14.823 2.76294C14.492 2.43194 14.053 2.25 13.586 2.25H9C6.381 2.25 4.25 4.381 4.25 7V17C4.25 19.619 6.381 21.75 9 21.75H15C17.619 21.75 19.75 19.619 19.75 17V8.41394C19.75 7.94694 19.568 7.507 19.237 7.177ZM14.75 4.81006L17.189 7.24902H16.5C15.535 7.24902 14.75 6.46402 14.75 5.49902V4.81006ZM15 20.25H9C7.208 20.25 5.75 18.792 5.75 17V7C5.75 5.208 7.208 3.75 9 3.75H13.25V5.5C13.25 7.292 14.708 8.75 16.5 8.75H18.25V17C18.25 18.792 16.792 20.25 15 20.25Z" fill="#41416E"/>
</svg>
