<svg width="24" height="24" viewBox="0 0 24 24" fill="none" xmlns="http://www.w3.org/2000/svg">
<path d="M12 6.25C9.932 6.25 8.25 7.932 8.25 10C8.25 12.068 9.932 13.75 12 13.75C14.068 13.75 15.75 12.068 15.75 10C15.75 7.932 14.068 6.25 12 6.25ZM12 12.25C10.759 12.25 9.75 11.241 9.75 10C9.75 8.759 10.759 7.75 12 7.75C13.241 7.75 14.25 8.759 14.25 10C14.25 11.241 13.241 12.25 12 12.25ZM11.996 2.25C7.58 2.25 4.25 5.582 4.25 10C4.25 16.208 8.986 20.076 11.021 21.45C11.317 21.65 11.656 21.75 11.996 21.75C12.334 21.75 12.673 21.65 12.969 21.451C15.008 20.074 19.75 16.201 19.75 9.99902C19.75 5.58102 16.417 2.25 11.996 2.25ZM12.13 20.208C12.047 20.264 11.944 20.264 11.861 20.208C10.427 19.24 5.75 15.643 5.75 10C5.75 6.437 8.435 3.75 11.996 3.75C15.561 3.75 18.25 6.437 18.25 10C18.25 15.483 13.97 18.966 12.13 20.208Z" fill="#41416E"/>
</svg>
