<svg width="24" height="24" viewBox="0 0 24 24" fill="none" xmlns="http://www.w3.org/2000/svg">
<path d="M2.25 5C2.25 4.586 2.586 4.25 3 4.25H21C21.414 4.25 21.75 4.586 21.75 5C21.75 5.414 21.414 5.75 21 5.75H3C2.586 5.75 2.25 5.414 2.25 5ZM21 11.25H3C2.586 11.25 2.25 11.586 2.25 12C2.25 12.414 2.586 12.75 3 12.75H21C21.414 12.75 21.75 12.414 21.75 12C21.75 11.586 21.414 11.25 21 11.25ZM21 18.25H3C2.586 18.25 2.25 18.586 2.25 19C2.25 19.414 2.586 19.75 3 19.75H21C21.414 19.75 21.75 19.414 21.75 19C21.75 18.586 21.414 18.25 21 18.25Z" fill="#41416E"/>
</svg>
