<svg width="24" height="24" viewBox="0 0 24 24" fill="none" xmlns="http://www.w3.org/2000/svg">
<path d="M21.6857 16.6001C21.6627 16.4651 21.6347 16.3472 21.6057 16.2422C21.4307 15.6172 20.8867 15.1411 20.2197 15.0311L15.8877 14.3101C15.2497 14.2031 14.6107 14.4501 14.2187 14.9521C14.1647 15.0211 14.1127 15.0911 14.0647 15.1621C13.9937 15.2661 13.8527 15.3631 13.6997 15.2961C11.4527 14.3191 9.67869 12.5451 8.70269 10.2981C8.63469 10.1431 8.72966 10.0071 8.83166 9.93808C8.92666 9.87408 9.01866 9.80512 9.10766 9.73312C9.59466 9.33912 9.8367 8.7091 9.7387 8.0881L9.06768 3.8331C8.96468 3.1811 8.51771 2.64806 7.89971 2.44406C7.75471 2.39606 7.58672 2.3521 7.39172 2.3171C6.12572 2.0911 4.83069 2.44907 3.83569 3.30307C2.79269 4.19907 2.21468 5.50113 2.25268 6.87313C2.47168 14.9951 9.00366 21.5282 17.1257 21.7472C17.1667 21.7482 17.2077 21.7491 17.2487 21.7491C18.5657 21.7491 19.8107 21.1791 20.6797 20.1731C21.5407 19.1761 21.9077 17.8731 21.6857 16.6001ZM19.5427 19.1931C18.9417 19.8881 18.0677 20.2591 17.1647 20.2491C9.84067 20.0511 3.94866 14.1581 3.75066 6.8331C3.72666 5.9141 4.11268 5.04213 4.81268 4.44113C5.34168 3.98713 5.97267 3.74911 6.63067 3.74911C6.79467 3.74911 6.9607 3.76406 7.1267 3.79306C7.2427 3.81406 7.34167 3.83913 7.42767 3.86813C7.51067 3.89513 7.57166 3.9721 7.58666 4.0671L8.25768 8.32211C8.27268 8.41511 8.2367 8.50913 8.1657 8.56613C8.1077 8.61313 8.04866 8.65709 7.98766 8.69809C7.25366 9.19709 6.98171 10.1011 7.32671 10.8961C8.45471 13.4921 10.5057 15.5431 13.1007 16.6711C13.8927 17.0151 14.7987 16.7442 15.3037 16.0072C15.3337 15.9642 15.3647 15.9212 15.3987 15.8772C15.4527 15.8082 15.5467 15.7752 15.6417 15.7892L19.9737 16.5101C20.0657 16.5261 20.1427 16.5821 20.1617 16.6471C20.1797 16.7091 20.1947 16.7781 20.2087 16.8571C20.3527 17.6851 20.1097 18.5361 19.5427 19.1931Z" fill="#41416E"/>
</svg>
