<svg width="24" height="24" viewBox="0 0 24 24" fill="none" xmlns="http://www.w3.org/2000/svg">
<path d="M21.5301 20.469L16.8361 15.775C18.0301 14.344 18.7501 12.505 18.7501 10.5C18.7501 5.951 15.0491 2.25 10.5001 2.25C5.95112 2.25 2.25012 5.951 2.25012 10.5C2.25012 15.049 5.95112 18.75 10.5001 18.75C12.5051 18.75 14.3441 18.0301 15.7751 16.8361L20.4691 21.53C20.6151 21.676 20.8071 21.75 20.9991 21.75C21.1911 21.75 21.3831 21.677 21.5291 21.53C21.8231 21.237 21.8231 20.762 21.5301 20.469ZM3.75012 10.5C3.75012 6.778 6.77812 3.75 10.5001 3.75C14.2221 3.75 17.2501 6.778 17.2501 10.5C17.2501 14.222 14.2221 17.25 10.5001 17.25C6.77812 17.25 3.75012 14.222 3.75012 10.5Z" fill="#41416E"/>
</svg>
