<svg width="24" height="24" viewBox="0 0 24 24" fill="none" xmlns="http://www.w3.org/2000/svg">
<path d="M21.649 9.67444C21.401 8.90444 20.746 8.35453 19.939 8.23853L15.759 7.6405L13.892 3.91248C13.533 3.19548 12.809 2.75049 12 2.75049C11.191 2.75049 10.467 3.19548 10.108 3.91248L8.24097 7.6405L4.06098 8.2395C3.25398 8.3545 2.59899 8.90544 2.35099 9.67444C2.10599 10.4354 2.31298 11.2555 2.89298 11.8115L5.91099 14.7095L5.19898 18.7994C5.06198 19.5834 5.37798 20.3635 6.02298 20.8365C6.39698 21.1105 6.83498 21.2495 7.27698 21.2495C7.61098 21.2495 7.94697 21.1695 8.25797 21.0085L11.999 19.0704L15.74 21.0085C16.464 21.3825 17.32 21.3165 17.976 20.8365C18.621 20.3635 18.937 19.5834 18.8 18.7994L18.088 14.7095L21.106 11.8115C21.687 11.2545 21.894 10.4354 21.649 9.67444ZM20.068 10.7295L16.762 13.9045C16.582 14.0775 16.5 14.3285 16.543 14.5735L17.323 19.0575C17.379 19.3765 17.178 19.5615 17.09 19.6265C17.016 19.6795 16.751 19.8425 16.431 19.6765L12.345 17.5594C12.128 17.4474 11.871 17.4474 11.655 17.5594L7.56897 19.6765C7.24997 19.8435 6.98398 19.6805 6.90998 19.6265C6.82198 19.5615 6.62098 19.3765 6.67698 19.0565L7.45697 14.5735C7.49998 14.3275 7.41698 14.0765 7.23798 13.9045L3.93198 10.7295C3.69398 10.5005 3.74497 10.2365 3.77897 10.1335C3.81397 10.0265 3.93096 9.77251 4.27396 9.72351L8.84198 9.06946C9.08498 9.03446 9.29598 8.88248 9.40598 8.66248L11.449 4.5835C11.6 4.2815 11.885 4.24951 12 4.24951C12.115 4.24951 12.399 4.2815 12.551 4.5835L14.594 8.66248C14.704 8.88248 14.915 9.03446 15.158 9.06946L19.726 9.72253C20.069 9.77153 20.186 10.0254 20.221 10.1324C20.254 10.2364 20.306 10.5005 20.068 10.7295Z" fill="#41416E"/>
</svg>
