<svg width="24" height="24" viewBox="0 0 24 24" fill="none" xmlns="http://www.w3.org/2000/svg">
<path d="M15.53 9.53003L13.06 12L15.53 14.47C15.823 14.763 15.823 15.238 15.53 15.531C15.384 15.677 15.192 15.751 15 15.751C14.808 15.751 14.616 15.678 14.47 15.531L12 13.061L9.53003 15.531C9.38403 15.677 9.192 15.751 9 15.751C8.808 15.751 8.61597 15.678 8.46997 15.531C8.17697 15.238 8.17697 14.763 8.46997 14.47L10.94 12L8.46997 9.53003C8.17697 9.23703 8.17697 8.76199 8.46997 8.46899C8.76297 8.17599 9.23801 8.17599 9.53101 8.46899L12.001 10.939L14.471 8.46899C14.764 8.17599 15.239 8.17599 15.532 8.46899C15.825 8.76199 15.823 9.23703 15.53 9.53003ZM21.75 9V15C21.75 18.722 18.722 21.75 15 21.75H9C5.278 21.75 2.25 18.722 2.25 15V9C2.25 5.278 5.278 2.25 9 2.25H15C18.722 2.25 21.75 5.278 21.75 9ZM20.25 9C20.25 6.105 17.895 3.75 15 3.75H9C6.105 3.75 3.75 6.105 3.75 9V15C3.75 17.895 6.105 20.25 9 20.25H15C17.895 20.25 20.25 17.895 20.25 15V9Z" fill="#41416E"/>
</svg>
