<svg width="24" height="24" viewBox="0 0 24 24" fill="none" xmlns="http://www.w3.org/2000/svg">
<path d="M20.6701 15.5179L19.5641 13.673C19.1911 13.051 18.9951 12.3409 18.9951 11.6169V8.98999C18.9951 5.13599 15.8571 2 12.0001 2C8.14309 2 5.00508 5.13599 5.00508 8.98999V11.6169C5.00508 12.3409 4.80808 13.051 4.43608 13.672L3.33007 15.5179C2.89807 16.2379 2.88808 17.103 3.30108 17.833C3.71408 18.563 4.46308 19 5.30308 19H8.99908C8.99908 20.654 10.3451 22 11.9991 22C13.6531 22 14.9991 20.654 14.9991 19H18.6961C19.5361 19 20.2851 18.563 20.6991 17.833C21.1121 17.103 21.1011 16.2369 20.6701 15.5179ZM11.9991 20C11.4481 20 10.9991 19.552 10.9991 19H12.9991C12.9991 19.552 12.5501 20 11.9991 20ZM18.9581 16.848C18.9261 16.905 18.8491 17 18.6961 17H5.30207C5.14907 17 5.07208 16.904 5.04008 16.848C5.00808 16.792 4.96608 16.677 5.04408 16.547L6.15008 14.7C6.70808 13.768 7.00409 12.7019 7.00409 11.6169V8.98999C7.00409 6.23799 9.24508 4 11.9991 4C14.7531 4 16.9941 6.23799 16.9941 8.98999V11.6169C16.9941 12.7019 17.2891 13.7681 17.8481 14.701L18.9551 16.547C19.0321 16.677 18.9901 16.791 18.9581 16.848Z" fill="#41416E"/>
</svg>
