<svg width="24" height="24" viewBox="0 0 24 24" fill="none" xmlns="http://www.w3.org/2000/svg">
<path d="M12 2C6.486 2 2 6.486 2 12C2 17.514 6.486 22 12 22C17.514 22 22 17.514 22 12C22 6.486 17.514 2 12 2ZM12 20C7.589 20 4 16.411 4 12C4 7.589 7.589 4 12 4C16.411 4 20 7.589 20 12C20 16.411 16.411 20 12 20ZM15.707 10.293C16.098 10.684 16.098 11.316 15.707 11.707L12.707 14.707C12.512 14.902 12.256 15 12 15C11.744 15 11.488 14.902 11.293 14.707L8.29303 11.707C7.90203 11.316 7.90203 10.684 8.29303 10.293C8.68403 9.90197 9.31597 9.90197 9.70697 10.293L12 12.5859L14.293 10.293C14.684 9.90197 15.316 9.90197 15.707 10.293Z" fill="#41416E"/>
</svg>
