<svg width="24" height="24" viewBox="0 0 24 24" fill="none" xmlns="http://www.w3.org/2000/svg">
<path d="M12 2C6.486 2 2 6.486 2 12C2 17.514 6.486 22 12 22C17.514 22 22 17.514 22 12C22 6.486 17.514 2 12 2ZM12 20C7.589 20 4 16.411 4 12C4 7.589 7.589 4 12 4C16.411 4 20 7.589 20 12C20 16.411 16.411 20 12 20ZM15.707 12.293C16.098 12.684 16.098 13.316 15.707 13.707C15.512 13.902 15.256 14 15 14C14.744 14 14.488 13.902 14.293 13.707L12 11.4141L9.70697 13.707C9.31597 14.098 8.68403 14.098 8.29303 13.707C7.90203 13.316 7.90203 12.684 8.29303 12.293L11.293 9.29297C11.684 8.90197 12.316 8.90197 12.707 9.29297L15.707 12.293Z" fill="#41416E"/>
</svg>
