<svg width="24" height="24" viewBox="0 0 24 24" fill="none" xmlns="http://www.w3.org/2000/svg">
<path d="M21 11H22V9C22 6.243 19.757 4 17 4H7C4.243 4 2 6.243 2 9V11H3C3.551 11 4 11.448 4 12C4 12.552 3.551 13 3 13H2V15C2 17.757 4.243 20 7 20H17C19.757 20 22 17.757 22 15V13H21C20.448 13 20 12.552 20 12C20 11.448 20.448 11 21 11ZM20 9.17102C18.836 9.58402 18 10.696 18 12C18 13.304 18.836 14.416 20 14.829V15C20 16.654 18.654 18 17 18H16V16C16 15.447 15.553 15 15 15C14.447 15 14 15.447 14 16V18H7C5.346 18 4 16.654 4 15V14.829C5.164 14.416 6 13.304 6 12C6 10.696 5.164 9.58402 4 9.17102V9C4 7.346 5.346 6 7 6H14V8C14 8.553 14.447 9 15 9C15.553 9 16 8.553 16 8V6H17C18.654 6 20 7.346 20 9V9.17102ZM16 11V13C16 13.553 15.553 14 15 14C14.447 14 14 13.553 14 13V11C14 10.447 14.447 10 15 10C15.553 10 16 10.447 16 11Z" fill="#41416E"/>
</svg>
