<svg width="24" height="24" viewBox="0 0 24 24" fill="none" xmlns="http://www.w3.org/2000/svg">
<path d="M20.3032 4.43799C19.0082 2.86599 17.2062 2 15.2282 2C14.0882 2 12.9852 2.26702 12.0002 2.77502C11.0162 2.26702 9.91219 2 8.77219 2C6.79419 2 4.99218 2.86599 3.69718 4.43799C2.29418 6.14099 1.7122 8.46596 2.1392 10.658C3.1332 15.753 8.2912 19.294 10.4632 20.58C10.9372 20.859 11.4682 21 11.9992 21C12.5302 21 13.0622 20.859 13.5362 20.579C15.7082 19.294 20.8662 15.753 21.8602 10.658C22.2882 8.46596 21.7062 6.14099 20.3032 4.43799ZM19.8972 10.274C19.0582 14.574 14.4572 17.7091 12.5182 18.8571C12.1992 19.0451 11.8012 19.0451 11.4822 18.8571C9.54318 17.7091 4.94119 14.574 4.10319 10.274C3.78919 8.66305 4.21419 6.95598 5.24219 5.70898C6.15019 4.60598 7.4042 4 8.7732 4C9.7432 4 10.6732 4.267 11.4622 4.771C11.7902 4.98 12.2102 4.98 12.5382 4.771C13.3282 4.267 14.2572 4 15.2272 4C16.5972 4 17.8512 4.60598 18.7582 5.70898C19.7862 6.95598 20.2122 8.66305 19.8972 10.274Z" fill="#41416E"/>
</svg>
