<svg width="24" height="24" viewBox="0 0 24 24" fill="none" xmlns="http://www.w3.org/2000/svg">
<path d="M20.135 7.12L15.135 3.09947C13.319 1.63888 10.682 1.63888 8.86501 3.09947L3.86501 7.12C2.68001 8.07339 2 9.49305 2 11.0137V17.008C2 19.7631 4.243 22.004 7 22.004H10V17.007C10 15.9056 10.897 15.0112 12 15.0112C13.103 15.0112 14 15.9066 14 17.007V22.004H17C19.757 22.004 22 19.7631 22 17.008V11.0137C22 9.49305 21.32 8.07339 20.135 7.12ZM20 17.008C20 18.6597 18.654 20.0032 17 20.0032H16V17.007C16 14.8031 14.206 13.0104 12 13.0104C9.794 13.0104 8 14.8031 8 17.007V20.0032H7C5.346 20.0032 4 18.6597 4 17.008V11.0137C4 10.1023 4.408 9.25094 5.118 8.67971L10.118 4.65905C11.209 3.7827 12.792 3.7827 13.882 4.65905L18.882 8.67971C19.593 9.25094 20.001 10.1023 20.001 11.0137V17.008H20Z" fill="#41416E"/>
</svg>
