<svg width="24" height="24" viewBox="0 0 24 24" fill="none" xmlns="http://www.w3.org/2000/svg">
<path d="M13.0012 21C13.0012 21.553 12.5532 22 12.0012 22H8.00116C5.24416 22 3.00116 19.757 3.00116 17V7C3.00116 4.243 5.24416 2 8.00116 2H12.0012C12.5532 2 13.0012 2.447 13.0012 3C13.0012 3.553 12.5532 4 12.0012 4H8.00116C6.34716 4 5.00116 5.346 5.00116 7V17C5.00116 18.654 6.34716 20 8.00116 20H12.0012C12.5532 20 13.0012 20.447 13.0012 21ZM20.9232 12.382C21.0242 12.138 21.0242 11.862 20.9232 11.618C20.8722 11.495 20.7991 11.385 20.7061 11.292L16.7072 7.29297C16.3162 6.90197 15.6842 6.90197 15.2932 7.29297C14.9022 7.68397 14.9022 8.31603 15.2932 8.70703L17.5862 11H10.0002C9.44815 11 9.00015 11.447 9.00015 12C9.00015 12.553 9.44815 13 10.0002 13H17.5862L15.2932 15.293C14.9022 15.684 14.9022 16.316 15.2932 16.707C15.4882 16.902 15.7442 17 16.0002 17C16.2562 17 16.5122 16.902 16.7072 16.707L20.7061 12.708C20.7991 12.615 20.8732 12.505 20.9232 12.382Z" fill="#41416E"/>
</svg>
