<svg width="24" height="24" viewBox="0 0 24 24" fill="none" xmlns="http://www.w3.org/2000/svg">
<path d="M21.9326 16.558C21.9076 16.414 21.8776 16.2869 21.8466 16.1769C21.6456 15.4589 21.0236 14.9128 20.2616 14.7848L15.9306 14.0639C15.2046 13.9469 14.4726 14.2249 14.0256 14.7929C13.9676 14.8659 13.9116 14.9418 13.7996 15.0658C11.6116 14.1148 9.88256 12.3849 8.96856 10.1459C9.07156 10.0769 9.17059 10.0029 9.26459 9.92593C9.82159 9.47693 10.0976 8.75698 9.98559 8.04898L9.31457 3.79385C9.19757 3.04885 8.68557 2.43996 7.97857 2.20596C7.82557 2.15496 7.64558 2.107 7.43658 2.069C6.09658 1.831 4.72554 2.20797 3.67254 3.11197C2.57154 4.05797 1.96356 5.43079 2.00256 6.87979C2.22456 15.1328 8.86459 21.774 17.1186 21.997C17.1616 21.998 17.2056 21.998 17.2486 21.998C18.6376 21.998 19.9506 21.3968 20.8666 20.3368C21.7786 19.2828 22.1666 17.905 21.9326 16.558ZM19.3536 19.0299C18.8026 19.6679 18.0246 20.0159 17.1716 19.9989C9.98057 19.8049 4.19455 14.0188 4.00055 6.82681C3.97855 5.98281 4.33358 5.18301 4.97558 4.63101C5.45758 4.21701 6.03457 3.99893 6.63257 3.99893C6.78057 3.99893 6.92959 4.01297 7.07959 4.03897C7.18259 4.05897 7.27156 4.08087 7.33856 4.10587L8.00458 8.37491C7.95458 8.41491 7.90256 8.45287 7.84656 8.49087C7.01156 9.05887 6.70256 10.089 7.09656 10.996C8.24956 13.65 10.3466 15.7468 12.9996 16.9008C13.9056 17.2948 14.9376 16.987 15.5066 16.152L15.5995 16.037L19.9196 16.7179C19.9346 16.7719 19.9486 16.832 19.9606 16.902C20.0926 17.655 19.8716 18.4319 19.3536 19.0299Z" fill="#41416E"/>
</svg>
