<svg width="24" height="24" viewBox="0 0 24 24" fill="none" xmlns="http://www.w3.org/2000/svg">
<path d="M12 2C6.486 2 2 6.486 2 12C2 17.514 6.486 22 12 22C17.514 22 22 17.514 22 12C22 6.486 17.514 2 12 2ZM12 20C7.589 20 4 16.411 4 12C4 7.589 7.589 4 12 4C16.411 4 20 7.589 20 12C20 16.411 16.411 20 12 20ZM15.938 9.28296C16.219 10.883 15.545 12.3149 14.041 13.3149C13.116 13.9299 12.969 14.259 12.949 14.319C12.808 14.737 12.419 15 12.001 15C11.895 15 11.787 14.983 11.681 14.947C11.158 14.771 10.877 14.2041 11.053 13.6801C11.357 12.7791 12.272 12.089 12.933 11.649C14.177 10.822 14.019 9.92305 13.968 9.62805C13.83 8.84205 13.158 8.16998 12.371 8.03198C11.764 7.92398 11.176 8.07904 10.715 8.46704C10.261 8.84804 10 9.40602 10 9.99902C10 10.552 9.552 10.999 9 10.999C8.448 10.999 8 10.552 8 9.99902C8 8.81402 8.52099 7.69706 9.42899 6.93506C10.336 6.17206 11.536 5.85701 12.717 6.06201C14.33 6.34601 15.654 7.66996 15.938 9.28296ZM13 17C13 17.552 12.552 18 12 18C11.448 18 11 17.552 11 17C11 16.448 11.448 16 12 16C12.552 16 13 16.448 13 17Z" fill="#41416E"/>
</svg>
