<svg width="24" height="24" viewBox="0 0 24 24" fill="none" xmlns="http://www.w3.org/2000/svg">
<path d="M12 16C11.2089 16 10.4355 15.7654 9.77772 15.3259C9.11992 14.8864 8.60723 14.2616 8.30448 13.5307C8.00173 12.7998 7.92252 11.9956 8.07686 11.2196C8.2312 10.4437 8.61216 9.73098 9.17157 9.17157C9.73098 8.61216 10.4437 8.2312 11.2196 8.07686C11.9956 7.92252 12.7998 8.00173 13.5307 8.30448C14.2616 8.60723 14.8864 9.11992 15.3259 9.77772C15.7654 10.4355 16 11.2089 16 12C16 13.0609 15.5786 14.0783 14.8284 14.8284C14.0783 15.5786 13.0609 16 12 16ZM12 10C11.6044 10 11.2178 10.1173 10.8889 10.3371C10.56 10.5568 10.3036 10.8692 10.1522 11.2346C10.0009 11.6001 9.96126 12.0022 10.0384 12.3902C10.1156 12.7781 10.3061 13.1345 10.5858 13.4142C10.8655 13.6939 11.2219 13.8844 11.6098 13.9616C11.9978 14.0387 12.3999 13.9991 12.7654 13.8478C13.1308 13.6964 13.4432 13.44 13.6629 13.1111C13.8827 12.7822 14 12.3956 14 12C14 11.4696 13.7893 10.9609 13.4142 10.5858C13.0391 10.2107 12.5304 10 12 10ZM12.5 22H11.5C10.837 22 10.2011 21.7366 9.73223 21.2678C9.26339 20.7989 9 20.163 9 19.5C9.00199 19.4769 8.99644 19.4538 8.98418 19.4342C8.97192 19.4145 8.95361 19.3994 8.932 19.391C8.883 19.367 8.826 19.419 8.826 19.419C8.35675 19.8889 7.72042 20.1536 7.05636 20.1553C6.3923 20.157 5.75463 19.8955 5.283 19.428L4.577 18.721C4.34458 18.4884 4.16033 18.2122 4.03481 17.9082C3.90929 17.6043 3.84497 17.2786 3.84553 16.9498C3.84609 16.6209 3.91151 16.2954 4.03806 15.9919C4.16461 15.6884 4.34979 15.4128 4.583 15.181C4.59976 15.1658 4.61087 15.1453 4.6145 15.123C4.61813 15.1007 4.61408 15.0777 4.603 15.058C4.59164 15.0409 4.57638 15.0267 4.55847 15.0166C4.54057 15.0065 4.52053 15.0008 4.5 15C3.83696 15 3.20107 14.7366 2.73223 14.2678C2.26339 13.7989 2 13.163 2 12.5V11.5C2 10.837 2.26339 10.2011 2.73223 9.73223C3.20107 9.26339 3.83696 9 4.5 9C4.52231 9.00121 4.54448 8.99577 4.56371 8.98438C4.58293 8.97299 4.59834 8.95615 4.608 8.936C4.61538 8.91915 4.61722 8.90039 4.61327 8.88242C4.60932 8.86445 4.59977 8.8482 4.586 8.836C4.352 8.60386 4.16605 8.32787 4.03879 8.02382C3.91153 7.71976 3.84546 7.3936 3.84434 7.06399C3.84323 6.73438 3.9071 6.40778 4.0323 6.10287C4.1575 5.79796 4.34157 5.52072 4.574 5.287L5.282 4.578C5.75172 4.11103 6.38715 3.84892 7.0495 3.84892C7.71185 3.84892 8.34728 4.11103 8.817 4.578C8.83074 4.59748 8.85099 4.6114 8.87409 4.61727C8.89719 4.62314 8.92163 4.62056 8.943 4.61C9 4.58 9 4.5 9 4.5C9 3.83696 9.26339 3.20107 9.73223 2.73223C10.2011 2.26339 10.837 2 11.5 2H12.5C13.163 2 13.7989 2.26339 14.2678 2.73223C14.7366 3.20107 15 3.83696 15 4.5C15 4.5 14.995 4.6 15.05 4.62C15.0702 4.62632 15.0916 4.62734 15.1123 4.62296C15.1329 4.61858 15.1521 4.60895 15.168 4.595C15.3998 4.35747 15.6768 4.16875 15.9827 4.03994C16.2885 3.91113 16.6171 3.84485 16.949 3.845C17.2775 3.84384 17.6029 3.90795 17.9064 4.03361C18.2099 4.15927 18.4855 4.34398 18.717 4.577L19.417 5.277C19.8857 5.74582 20.149 6.38159 20.149 7.0445C20.149 7.70741 19.8857 8.34318 19.417 8.812C19.403 8.833 19.345 8.876 19.368 8.936C19.3706 8.94705 19.3753 8.95749 19.382 8.9667C19.3886 8.97591 19.397 8.98371 19.4067 8.98966C19.4163 8.99561 19.4271 8.99959 19.4383 9.00136C19.4495 9.00314 19.461 9.00267 19.472 9C19.8023 8.9975 20.1299 9.06025 20.4359 9.18465C20.7419 9.30906 21.0204 9.49267 21.2552 9.72495C21.4901 9.95722 21.6768 10.2336 21.8046 10.5382C21.9324 10.8428 21.9988 11.1697 22 11.5V12.5C22 13.163 21.7366 13.7989 21.2678 14.2678C20.7989 14.7366 20.163 15 19.5 15C19.44 15 19.386 15 19.367 15.049C19.348 15.098 19.358 15.129 19.407 15.17C19.6425 15.4014 19.8299 15.6771 19.9583 15.9813C20.0867 16.2854 20.1535 16.612 20.155 16.9422C20.1565 17.2723 20.0926 17.5995 19.9669 17.9048C19.8413 18.2101 19.6564 18.4875 19.423 18.721L18.723 19.427C18.2533 19.894 17.6178 20.1561 16.9555 20.1561C16.2932 20.1561 15.6577 19.894 15.188 19.427C15.188 19.427 15.132 19.359 15.076 19.379C15.0561 19.385 15.0385 19.3971 15.0258 19.4136C15.013 19.4301 15.0058 19.4502 15.005 19.471C15.0076 19.8018 14.9448 20.1299 14.8202 20.4364C14.6955 20.7428 14.5115 21.0216 14.2786 21.2567C14.0458 21.4917 13.7688 21.6784 13.4636 21.806C13.1583 21.9335 12.8308 21.9995 12.5 22ZM9.671 17.532L9.715 17.55C10.0938 17.7095 10.4174 17.9766 10.6458 18.3182C10.8742 18.6599 10.9974 19.061 11 19.472C10.9973 19.5397 11.0082 19.6073 11.0321 19.6707C11.0559 19.7341 11.0922 19.7922 11.1387 19.8414C11.1853 19.8906 11.2413 19.9299 11.3033 19.9572C11.3654 19.9844 11.4322 19.999 11.5 20H12.5C12.6326 20 12.7598 19.9473 12.8536 19.8536C12.9473 19.7598 13 19.6326 13 19.5C13.0002 19.0803 13.1247 18.67 13.3578 18.321C13.591 17.972 13.9223 17.6999 14.31 17.539C14.6899 17.3825 15.1077 17.3418 15.5107 17.4221C15.9137 17.5023 16.284 17.6999 16.575 17.99C16.6208 18.0404 16.6762 18.081 16.7381 18.1094C16.7999 18.1379 16.8668 18.1536 16.9348 18.1557C17.0029 18.1577 17.0706 18.1461 17.134 18.1214C17.1975 18.0967 17.2553 18.0595 17.304 18.012L18.004 17.312C18.0506 17.2656 18.0875 17.2104 18.1127 17.1496C18.1379 17.0889 18.1509 17.0238 18.1509 16.958C18.1509 16.8922 18.1379 16.8271 18.1127 16.7664C18.0875 16.7056 18.0506 16.6504 18.004 16.604C17.7144 16.3127 17.5154 15.9438 17.4311 15.5418C17.3468 15.1399 17.3808 14.7221 17.529 14.339C17.535 14.323 17.54 14.308 17.547 14.292L17.553 14.278C17.7106 13.8987 17.9774 13.5747 18.3194 13.3472C18.6614 13.1197 19.0632 12.9988 19.474 13C19.5416 13.0025 19.609 12.9915 19.6722 12.9676C19.7355 12.9437 19.7933 12.9074 19.8424 12.8608C19.8914 12.8142 19.9306 12.7583 19.9576 12.6963C19.9847 12.6344 19.9991 12.5676 20 12.5V11.5C20 11.3674 19.9473 11.2402 19.8536 11.1464C19.7598 11.0527 19.6326 11 19.5 11C19.0828 11.0047 18.6739 10.8842 18.3259 10.654C17.9779 10.4239 17.707 10.0947 17.548 9.709L17.529 9.663C17.3772 9.28566 17.3402 8.87191 17.4225 8.47361C17.5049 8.07532 17.703 7.71019 17.992 7.424C18.0419 7.37801 18.0822 7.32248 18.1103 7.26069C18.1384 7.19889 18.1539 7.13209 18.1557 7.06422C18.1576 6.99636 18.1458 6.9288 18.1211 6.86556C18.0965 6.80231 18.0593 6.74466 18.012 6.696L17.312 5.996C17.2655 5.9496 17.2103 5.91282 17.1495 5.88777C17.0888 5.86272 17.0237 5.84988 16.958 5.85C16.8922 5.85001 16.8271 5.86301 16.7664 5.88823C16.7056 5.91346 16.6504 5.95042 16.604 5.997C16.3083 6.29127 15.9327 6.49214 15.5237 6.57463C15.1148 6.65713 14.6906 6.61761 14.304 6.461C13.9177 6.30639 13.5868 6.03922 13.3542 5.69416C13.1217 5.3491 12.9983 4.9421 13 4.526C13.0025 4.45842 12.9915 4.39102 12.9676 4.32776C12.9437 4.2645 12.9074 4.20666 12.8608 4.15765C12.8142 4.10864 12.7583 4.06944 12.6963 4.04236C12.6344 4.01529 12.5676 4.00089 12.5 4H11.5C11.3674 4 11.2402 4.05268 11.1464 4.14645C11.0527 4.24021 11 4.36739 11 4.5C11.003 4.91545 10.8827 5.32245 10.6544 5.66952C10.426 6.0166 10.0999 6.28814 9.71715 6.44979C9.33443 6.61144 8.91237 6.65594 8.50435 6.57765C8.09634 6.49937 7.72071 6.30182 7.425 6.01C7.37934 5.96013 7.32415 5.91992 7.26268 5.89174C7.20122 5.86356 7.13473 5.84798 7.06714 5.84593C6.99956 5.84388 6.93225 5.85539 6.86919 5.8798C6.80613 5.9042 6.7486 5.94099 6.7 5.988L5.988 6.7C5.89426 6.79376 5.84161 6.92092 5.84161 7.0535C5.84161 7.18608 5.89426 7.31324 5.988 7.407C6.28487 7.69762 6.48834 8.07016 6.57242 8.477C6.65649 8.88384 6.61735 9.30651 6.46 9.691C6.43347 9.75737 6.39995 9.82073 6.36 9.88C6.18316 10.2138 5.91978 10.494 5.59746 10.691C5.27514 10.8881 4.90575 10.9948 4.528 11C4.46029 10.9973 4.39273 11.0082 4.3293 11.0321C4.26587 11.0559 4.20785 11.0922 4.15865 11.1387C4.10945 11.1853 4.07006 11.2413 4.04282 11.3033C4.01557 11.3654 4.00101 11.4322 4 11.5V12.5C4 12.6326 4.05268 12.7598 4.14645 12.8536C4.24021 12.9473 4.36739 13 4.5 13C4.91367 12.9953 5.31938 13.1138 5.66542 13.3405C6.01146 13.5672 6.28216 13.8919 6.443 14.273L6.449 14.287C6.458 14.308 6.466 14.328 6.473 14.35C6.61912 14.7281 6.65269 15.1404 6.56964 15.5372C6.4866 15.934 6.29049 16.2982 6.005 16.586C5.95512 16.6331 5.91525 16.6898 5.88776 16.7527C5.86027 16.8156 5.84573 16.8834 5.845 16.952C5.84442 17.0179 5.85704 17.0833 5.88211 17.1443C5.90718 17.2052 5.94421 17.2606 5.991 17.307L6.697 18.013C6.79076 18.1067 6.91792 18.1594 7.0505 18.1594C7.18308 18.1594 7.31024 18.1067 7.404 18.013C7.69242 17.7183 8.06147 17.5155 8.46481 17.4299C8.86815 17.3443 9.28778 17.3798 9.671 17.532Z" fill="#41416E"/>
</svg>
