<svg id="OBJECTS" xmlns="http://www.w3.org/2000/svg" viewBox="0 0 349.15 185.34"><path d="M345.28,349.31c-2.5,3.25-5.45,5.66-4.8,6.76,0,0,1.33,1,5,1,6.3,0,12.5-.48,11.48-1.12-1.41-.89-5.49-1.21-9.39-2.56-1-.33,2.11-2.2,1.27-2.5A18.74,18.74,0,0,1,345.28,349.31Z" transform="translate(-75.43 -171.7)" fill="#002e4f"/><path d="M410.22,355.88s.83,1.16,4,1.16c5.45,0,11.13-.74,10.25-1.3-1.22-.76-10.77-2.75-10.77-2.75l-2.14-2.66-3.63,2Z" transform="translate(-75.43 -171.7)" fill="#002e4f"/><path d="M393,275.55a29.28,29.28,0,0,1-7.12-.85,3.83,3.83,0,0,1,2-7.39c.13,0,8.74,2.24,13.76-2.07,3.36-2.88,4.64-8.32,3.8-16.15l-.27-2.5,7.74-4.39a3.83,3.83,0,1,1,3.77,6.66l-3.42,1.94c.54,9.23-1.7,16.05-6.68,20.29C402.36,274.67,397.12,275.55,393,275.55Z" transform="translate(-75.43 -171.7)" fill="#00a4e2"/><path d="M406.2,254.31c-.14,5.57-1.62,9.6-4.43,12-5.51,4.73-14.95,2.32-15.11,2.28a4.2,4.2,0,0,0-2.2,8.11,18.63,18.63,0,0,0,7.81,1.54c16.28-.58,26.11-14.62,26.29-22.81Z" transform="translate(-75.43 -171.7)" fill="#e1f3f6"/><path d="M383.81,234.84c-1.46-.66-2.89-1.37-4.3-2.11-13.5,7.68-30.74,17.53-31.08,17.87,0,0,8.57,13.64,9.12,14.19.35.35,21.6-14.89,36.88-25.93C390.9,237.49,387.27,236.38,383.81,234.84Z" transform="translate(-75.43 -171.7)" fill="#008dc4"/><path d="M384,234.44c3.54,1.56,7.25,2.69,10.84,4.1,8.41-6.08,14.92-10.81,14.92-10.81l-14.38-4L380,232.47C381.3,233.17,382.65,233.83,384,234.44Z" transform="translate(-75.43 -171.7)" fill="#00afe2"/><polygon points="283.81 44.84 292.28 67.76 308.83 73.83 287.87 35.53 283.81 44.84" fill="#006091"/><polygon points="309.74 79.47 297.47 79.47 308.39 98.54 325.03 105.55 309.74 79.47" fill="#006091"/><path d="M400.45,277.25l-9.76-16.66-41.77,24.49-8.21-14,5.16-83.3,18.77-11,33.78,57.63,11.37-6.66,9.45,16.13-11.36,6.66,9.76,16.66Zm-37.89-64.64-1.06.62-2.87,44.49,22.61-13.25Z" transform="translate(-75.43 -171.7)" fill="#0076ad"/><polygon points="251.4 95.56 265.28 99.37 273.5 113.38 258.82 109.67 251.4 95.56" fill="#008dc4"/><polygon points="251.4 95.56 265.28 99.37 270.44 16.07 257.7 13.02 251.4 95.56" fill="#00afe2"/><polygon points="257.7 13.02 270.44 16.07 289.21 5.06 276.31 1.31 257.7 13.02" fill="#00d2fd"/><path d="M361.06,300.45s2,22,2,29.73c0,0-16,12.49-20,19,1.68,1.28,5,3,7.2,2.92a155,155,0,0,1,22.43-17.5s5.07-14.69,6.64-27.13Z" transform="translate(-75.43 -171.7)" fill="#002e4f"/><path d="M372.49,301.49a21.5,21.5,0,0,0,10.4-2.28c-1-4.4,1.18-17.37,4-24.3,0,0,2.2-4.82.66-6.31-5.7-5.48-10.55-5-12.06-5.09-5.24,4.42-15,17.45-14.59,34.69C363.55,301,369,301.47,372.49,301.49Z" transform="translate(-75.43 -171.7)" fill="#e1f3f6"/><path d="M407.84,352.94a9.79,9.79,0,0,0,5.38-3.25c-6.19-10-28.89-46.91-30.12-49.8,0-.07-.06-.16-.09-.24a22,22,0,0,1-11.17,2.28c-3.35-.13-8.21-.6-11-3.09,0,.18,0,.36,0,.54.47,9.62,32.4,41.71,45,54A15.89,15.89,0,0,0,407.84,352.94Z" transform="translate(-75.43 -171.7)" fill="#00396a"/><path d="M341.94,291.51a8.11,8.11,0,0,1-2.56-.4,7.71,7.71,0,0,1-5-5.54,3.83,3.83,0,1,1,7.34-2.18,2.47,2.47,0,0,0,.18.48c.41,0,1.92-.12,5.61-2.29,3.3-1.93,7.2-4.82,11-7.61,6.37-4.71,12.39-9.16,17.36-10.74a3.83,3.83,0,0,1,2.31,7.3c-3.76,1.19-9.53,5.46-15.12,9.6C354.88,286.18,347.67,291.51,341.94,291.51Z" transform="translate(-75.43 -171.7)" fill="#00a4e2"/><path d="M349.1,288.65c-.47-2.25-1-4.74-2.39-6.59-3.09,1.71-4.4,1.82-4.78,1.81a2.47,2.47,0,0,1-.18-.48,3.83,3.83,0,1,0-7.34,2.18,7.71,7.71,0,0,0,5,5.54,8.11,8.11,0,0,0,2.56.4,16.61,16.61,0,0,0,7.3-2.14C349.19,289.13,349.15,288.89,349.1,288.65Z" transform="translate(-75.43 -171.7)" fill="#00a4e2"/><path d="M380.67,265.73a3.83,3.83,0,0,0-4.8-2.5c-5,1.58-11,6-17.36,10.74-3.77,2.79-7.67,5.68-11,7.61l-.43.25c1.43,1.89,3.9,11.22,3.95,11.43,4.06-2.12,23.52-16.94,27.74-21.41C380.25,270.31,381.31,267.74,380.67,265.73Z" transform="translate(-75.43 -171.7)" fill="#e1f3f6"/><path d="M331.77,281.37" transform="translate(-75.43 -171.7)" fill="none" stroke="#20c6f0" stroke-linecap="round" stroke-miterlimit="10" stroke-width="7.65"/><path d="M336.52,288.42a1.14,1.14,0,0,1-.65-.21c-3-2.15-4.57-6.28-4.63-6.45a1.12,1.12,0,1,1,2.1-.79h0s1.4,3.67,3.84,5.41a1.13,1.13,0,0,1,.26,1.57A1.11,1.11,0,0,1,336.52,288.42Z" transform="translate(-75.43 -171.7)" fill="#00a4e2"/><path d="M336.53,285.68a1.11,1.11,0,0,1-.92-.48c-1.44-2-2.59-6.87-2.72-7.41a1.14,1.14,0,0,1,.84-1.36,1.12,1.12,0,0,1,1.35.85c.32,1.36,1.36,5.2,2.36,6.62a1.12,1.12,0,0,1-.27,1.57A1.09,1.09,0,0,1,336.53,285.68Z" transform="translate(-75.43 -171.7)" fill="#00a4e2"/><path d="M338.08,285a1.1,1.1,0,0,1-1-.7c-1-2.53-1.44-7.83-1.46-8a1.14,1.14,0,0,1,1-1.21,1.12,1.12,0,0,1,1.21,1,33.75,33.75,0,0,0,1.29,7.37,1.13,1.13,0,0,1-.62,1.47A1,1,0,0,1,338.08,285Z" transform="translate(-75.43 -171.7)" fill="#00a4e2"/><path d="M339.77,284.5a1.12,1.12,0,0,1-1.09-.84,13.27,13.27,0,0,1,0-5.68,1.13,1.13,0,0,1,1.36-.83,1.11,1.11,0,0,1,.83,1.35,11,11,0,0,0,0,4.59,1.12,1.12,0,0,1-.81,1.37A1,1,0,0,1,339.77,284.5Z" transform="translate(-75.43 -171.7)" fill="#00a4e2"/><path d="M385,271.85a3.68,3.68,0,0,1-1.54-.35,3.59,3.59,0,0,1-1.71-4.79,21.84,21.84,0,0,1,2.67-4,3.6,3.6,0,0,1,5.51,4.65h0a14.18,14.18,0,0,0-1.67,2.45A3.62,3.62,0,0,1,385,271.85Z" transform="translate(-75.43 -171.7)" fill="#00a4e2"/><path d="M385.54,270a16.94,16.94,0,0,0,1.34,1.34,3.64,3.64,0,0,0,1.4-1.55,14.18,14.18,0,0,1,1.67-2.45,3.6,3.6,0,0,0-5.51-4.65c-.07.09-.36.44-.75.95C383.73,265.9,384,268.26,385.54,270Z" transform="translate(-75.43 -171.7)" fill="#0086cf"/><path d="M397.37,266a6.82,6.82,0,0,1-8.89,3.7h0a6.8,6.8,0,0,1-3.7-8.89l1.8-4.37a6.8,6.8,0,0,1,8.89-3.7h0a6.81,6.81,0,0,1,3.7,8.89Z" transform="translate(-75.43 -171.7)" fill="#00a4e2"/><path d="M385.54,260.32c-.56,2.34-3.92,1.59-5.18.37-1.74-1.69-2.78-6.45,1.08-6.19-2.78-4.19,6.64-8.74,7.62-3.89.74-1.25,1.49-2.38,3.13-2.48,1.18-.08,3.24.84,3.07,2.28a4.88,4.88,0,0,1,6,.12c.56.45,1.56,1.45,1.06,2.17-.28.4-1.7.53-2.17.67.82-.37,4.17.38,3.51,1.77-.3.65-1.95.07-2.43-.07v.15c1.8,1,2.53,2,2.32,4.21-.1,1-.58,3-1.8,3.11-.63.07-1.35-.33-1.34-1,1.5,1.49-.62,5.49-2.51,3.52a2,2,0,0,1,.32-2.74c-1.12-.64-3.55-4-1.82-4.95-.81,0-4.55-1.25-3.36-2.32.32,1.24-1.23,2.86-2.45,2.22.76,1.66-1.49,2.9-2.87,3,.85,1.06-1.75,2.32-2.55.78Z" transform="translate(-75.43 -171.7)" fill="#00396a"/><path d="M257.59,246.73s-2.18-8.37,8.66-10.36l-.83,10.06Z" transform="translate(-75.43 -171.7)" fill="#0089e0"/><path d="M214.15,267.85a15.3,15.3,0,0,1-6.62-1.44c-9.85-4.65-10.94-18.64-11-19.23a3.83,3.83,0,0,1,7.64-.55c.21,2.82,1.82,10.61,6.64,12.87,4,1.87,10.14,0,17.83-5.5a3.83,3.83,0,0,1,4.44,6.24C226,265.31,219.61,267.85,214.15,267.85Z" transform="translate(-75.43 -171.7)" fill="#cde5e8"/><path d="M234.51,275c1.06-2.8,2.05-5.63,3.2-8.4a21.64,21.64,0,0,1-2.35-.31,19,19,0,0,1-9.43-4.53,23.06,23.06,0,0,1-6-8.78,38,38,0,0,1-2.44-12.09,64.15,64.15,0,0,1,5.36-28.07,38.16,38.16,0,0,1,6.72-10.26,22.82,22.82,0,0,1,8.78-6,20.24,20.24,0,0,1,18.22,2.56c1.08-2.16,2.25-4.29,3.36-6.41,1.31-2.5,2.53-5.06,3.69-7.63.5-1.1.93-2.24,1.39-3.36a40.66,40.66,0,0,0-12.66-4.56,39,39,0,0,0-18.7.71,42,42,0,0,0-15.79,8.77A53.12,53.12,0,0,0,206,202.14a78.4,78.4,0,0,0-8.13,42.6,52.93,52.93,0,0,0,5.39,18.73,41.82,41.82,0,0,0,11.45,14,38.56,38.56,0,0,0,15.77,7.28C231.88,281.52,233.26,278.31,234.51,275Z" transform="translate(-75.43 -171.7)" fill="#00afe2"/><path d="M286.34,217.5A53.19,53.19,0,0,0,281,198.76a41.9,41.9,0,0,0-11.45-14,36.52,36.52,0,0,0-4.07-2.78c-.45,1.13-.88,2.26-1.38,3.36-1.19,2.57-2.38,5.13-3.7,7.64-1.12,2.13-2.3,4.27-3.39,6.45.39.3.77.6,1.14.93a23.77,23.77,0,0,1,6,8.8,36.62,36.62,0,0,1,2.53,12,64,64,0,0,1-5.36,28.07,36.45,36.45,0,0,1-6.81,10.32,23.71,23.71,0,0,1-8.85,5.95,18.58,18.58,0,0,1-7.48,1.11c-1.27,3-2.34,6.13-3.5,9.19s-2.44,6-3.77,8.94l.9.19a39.1,39.1,0,0,0,18.7-.72,42,42,0,0,0,15.79-8.76,53.15,53.15,0,0,0,11.91-15.43,78.23,78.23,0,0,0,8.14-42.59Z" transform="translate(-75.43 -171.7)" fill="#006091"/><path d="M243.49,289a39,39,0,0,1-17.12-7.56,41.9,41.9,0,0,1-11.45-14,53.19,53.19,0,0,1-5.39-18.74,78.23,78.23,0,0,1,8.14-42.59,53.15,53.15,0,0,1,11.91-15.43,41.91,41.91,0,0,1,15.8-8.76,41.52,41.52,0,0,1,35.81,6.84,41.94,41.94,0,0,1,11.45,14,53.14,53.14,0,0,1,5.4,18.73,78.23,78.23,0,0,1-8.14,42.59A53.34,53.34,0,0,1,278,279.49a41.87,41.87,0,0,1-15.79,8.76A39,39,0,0,1,243.49,289Zm3.57-18.66a18.88,18.88,0,0,0,10.28-.77,23.51,23.51,0,0,0,8.86-6A36.88,36.88,0,0,0,273,253.27a60.45,60.45,0,0,0,4.25-13.69,59.58,59.58,0,0,0,1.11-14.38,37,37,0,0,0-2.54-12,23.62,23.62,0,0,0-6-8.79,19,19,0,0,0-9.28-4.51,19.2,19.2,0,0,0-10.44.74,22.92,22.92,0,0,0-8.78,6,37.85,37.85,0,0,0-6.72,10.26,59.65,59.65,0,0,0-4.27,13.77,60.29,60.29,0,0,0-1.09,14.29A37.72,37.72,0,0,0,231.66,257a22.8,22.8,0,0,0,6,8.79A19.16,19.16,0,0,0,247.06,270.31Z" transform="translate(-75.43 -171.7)" fill="#0076ad"/><path d="M311,232.77l.29,14.07s-4,3.6-7.61,0L305,231Z" transform="translate(-75.43 -171.7)" fill="#00396a"/><path d="M294.43,345c-.23-.18-1.8-.91-2-1.09a18,18,0,0,1-2.45,3,5.1,5.1,0,0,1,1.85,4.79,21.62,21.62,0,0,1-2.44,1.85c-2.19,1.08-6.23,2.58-6.23,2.58l10.17.8,7.54-7.73A47.3,47.3,0,0,1,294.43,345Z" transform="translate(-75.43 -171.7)" fill="#002e4f"/><path d="M254.6,345.55c-1.62-.28-3.67,1-5,0a33.1,33.1,0,0,0-.25,4.38l-15,6.2h19.21c.17-2.05-.2-4,.08-5.91C253.76,349.25,254.42,346.49,254.6,345.55Z" transform="translate(-75.43 -171.7)" fill="#002e4f"/><path d="M272.11,277.28l-17,32.3s6.89,5.83,13.67,7.77l12.74-38.06Z" transform="translate(-75.43 -171.7)" fill="#cde5e8"/><path d="M290.72,347.72a23.52,23.52,0,0,0,2.7-3.55c-4.4-3.77-6.55-7.65-12.52-14.33-2.47-2.77,4.07-18.6,5.66-21.26,2.86-4.77,3.3-8.23,5.53-16.4l-16.59,6.2c-4,14.15-8.56,28.31-3.94,35.06,4.87,7.14,13.53,12.89,17.7,15.76C289.42,349.31,290.58,347.62,290.72,347.72Z" transform="translate(-75.43 -171.7)" fill="#002e4f"/><path d="M262.77,245.06a1.08,1.08,0,0,1-.66-.21,1.12,1.12,0,0,1-.25-1.57,9.53,9.53,0,0,0,1.63-3.41,1.13,1.13,0,0,1,2.22.39,11.82,11.82,0,0,1-2,4.34A1.12,1.12,0,0,1,262.77,245.06Z" transform="translate(-75.43 -171.7)" fill="#00a4e2"/><path d="M290.92,295.6c4.94-13.57,9.16-34.86,10.74-43.35a23.11,23.11,0,0,0-2.44-.84c-1.47-.4-3.22-.88-4.73-.41a9,9,0,0,0-2.1,1.05,23.58,23.58,0,0,0-.87,3.4S280.9,275.74,274,289.57A69.31,69.31,0,0,1,290.92,295.6Z" transform="translate(-75.43 -171.7)" fill="#f6ee9e"/><path d="M273.79,290h0l-1.73,3.5h0c-1.36,2.41-2.83,4.64-4.25,6.78-13.65,20.6-18.81,37-19.72,44.78,1.3,1,6.23,1.59,7.88,1.87,2.52-12.87,9.07-21.09,20.82-30.8,3.93-3.25,6.87-7.38,9.46-10.81a38.85,38.85,0,0,0,4.53-9.28A68.63,68.63,0,0,0,273.79,290Z" transform="translate(-75.43 -171.7)" fill="#00396a"/><path d="M260.54,295.65a3.83,3.83,0,0,1-1.26-7.44c4.64-1.61,11.77-8,16.57-14.77a257.7,257.7,0,0,1,16.87-21.79,3.83,3.83,0,1,1,5.7,5.11h0a254,254,0,0,0-16.32,21.09c-4.74,6.72-13.12,15.1-20.31,17.59A4,4,0,0,1,260.54,295.65Z" transform="translate(-75.43 -171.7)" fill="#00a4e2"/><path d="M299,253.52h-.27a3.62,3.62,0,0,1-3.33-3.86,22.09,22.09,0,0,1,1.05-4.71,3.6,3.6,0,0,1,6.81,2.34,14.19,14.19,0,0,0-.67,2.9A3.62,3.62,0,0,1,299,253.52Z" transform="translate(-75.43 -171.7)" fill="#00a4e2"/><path d="M300,249.72a17.54,17.54,0,0,0,2.07,2,3.61,3.61,0,0,0,.47-1.52,14.19,14.19,0,0,1,.67-2.9,3.6,3.6,0,0,0-6.36-3.22C297.2,246.09,298.86,248.38,300,249.72Z" transform="translate(-75.43 -171.7)" fill="#0086cf"/><path d="M309.3,241.92a6.8,6.8,0,0,1-7,6.65h0a6.8,6.8,0,0,1-6.65-7l.1-4.72a6.83,6.83,0,0,1,7-6.66h0a6.82,6.82,0,0,1,6.66,7Z" transform="translate(-75.43 -171.7)" fill="#00a4e2"/><path d="M255.13,294.6a14.25,14.25,0,0,1-5.38-1.27,1.13,1.13,0,0,1,.88-2.08c3,1.25,5.32,1.43,6.82.52a1.12,1.12,0,1,1,1.16,1.92A6.59,6.59,0,0,1,255.13,294.6Z" transform="translate(-75.43 -171.7)" fill="#00a4e2"/><path d="M256.48,296.23a19.74,19.74,0,0,1-4.86-.74l-.51-.12a1.13,1.13,0,0,1,.52-2.19l.52.12a14.39,14.39,0,0,0,8.52.07,1.11,1.11,0,0,1,1.37.81,1.13,1.13,0,0,1-.81,1.37A19.06,19.06,0,0,1,256.48,296.23Z" transform="translate(-75.43 -171.7)" fill="#00a4e2"/><path d="M255.05,292.38a9.57,9.57,0,0,1-6.07-2.29,1.12,1.12,0,0,1-.07-1.59,1.14,1.14,0,0,1,1.59-.07,7.12,7.12,0,0,0,6.18,1.49,1.13,1.13,0,1,1,.56,2.18A9.07,9.07,0,0,1,255.05,292.38Z" transform="translate(-75.43 -171.7)" fill="#00a4e2"/><path d="M257.41,291.17h-.13a7.31,7.31,0,0,1-5.46-3.32,1.13,1.13,0,0,1,2-1.1,5,5,0,0,0,3.75,2.19,1.12,1.12,0,0,1-.13,2.24Z" transform="translate(-75.43 -171.7)" fill="#00a4e2"/><path d="M270.86,246.69l-.18,0c-1.86-.31-7-1.11-8.14-1.11a1.13,1.13,0,1,1,0-2.25c1.58,0,7.8,1,8.51,1.14a1.13,1.13,0,0,1-.19,2.24Z" transform="translate(-75.43 -171.7)" fill="#00a4e2"/><path d="M270.14,249.05a1,1,0,0,1-.29,0,57.58,57.58,0,0,0-7.9-1.61,1.14,1.14,0,0,1-1.06-1.19,1.12,1.12,0,0,1,1.19-1.06,58.54,58.54,0,0,1,8.36,1.69,1.12,1.12,0,0,1-.3,2.21Z" transform="translate(-75.43 -171.7)" fill="#00a4e2"/><path d="M269.6,251.53a1,1,0,0,1-.34-.06c-5.07-1.63-6.32-1.73-7-1.79a4.46,4.46,0,0,1-.94-.14,1.13,1.13,0,1,1,.58-2.18,2.48,2.48,0,0,0,.54.08c.81.07,2.18.18,7.5,1.89a1.13,1.13,0,0,1-.35,2.2Z" transform="translate(-75.43 -171.7)" fill="#00a4e2"/><path d="M267.38,253.33h-.09c-5.07-.37-5.28-3.12-5.29-3.44l2.25,0v-.07s.23,1.1,3.21,1.31a1.13,1.13,0,0,1-.08,2.25Z" transform="translate(-75.43 -171.7)" fill="#00a4e2"/><path d="M263.13,252a6.5,6.5,0,0,0-2.5-.45c-1.28,0-3-2.18-3-4.43,0,0-.63-6.64,6.39-3.64Z" transform="translate(-75.43 -171.7)" fill="#00a4e2"/><path d="M285.22,271.73l-9.84,48.43s15.24,3.67,24.58-1.71l2.36-67.29S291.87,247.51,285.22,271.73Z" transform="translate(-75.43 -171.7)" fill="#cde5e8"/><path d="M287.5,298.38l9.42-.51s.22,14.41-5.4,13.85C291.52,311.72,283.81,313.4,287.5,298.38Z" transform="translate(-75.43 -171.7)" fill="#e1f3f6"/><path d="M299.33,250a5.63,5.63,0,0,0-7.95.43,261,261,0,0,0-17,22c-.65.92-1.35,1.85-2.11,2.77l-1,1.23,1.09,1.15c1.16,1.23,2.38,2.42,3.56,3.58l1.9,1.88,1.39,1.4,1.27-1.51c1.13-1.35,2.17-2.7,3.1-4A255.15,255.15,0,0,1,299.76,258,5.65,5.65,0,0,0,299.33,250Z" transform="translate(-75.43 -171.7)" fill="#e1f3f6"/><rect x="273.69" y="271.98" width="5.69" height="13.31" transform="translate(-190.98 126.42) rotate(-48.06)" fill="#f8fdff"/><path d="M288.85,244.62l8.66,3.39s3.68-17.9,1-20.59C298.5,227.42,288.85,226.51,288.85,244.62Z" transform="translate(-75.43 -171.7)" fill="#00396a"/><path d="M299,230.54c.31.46,7,4.94,12.29,3.7,0,0-.9-7.92-13.2-6.78Z" transform="translate(-75.43 -171.7)" fill="#00396a"/><path d="M304.19,239a3.77,3.77,0,1,1-3.77-3.76A3.76,3.76,0,0,1,304.19,239Z" transform="translate(-75.43 -171.7)" fill="none" stroke="#dddd67" stroke-miterlimit="10" stroke-width="0.87"/><path d="M312.68,239.72a3.27,3.27,0,1,1-3.27-3.27A3.26,3.26,0,0,1,312.68,239.72Z" transform="translate(-75.43 -171.7)" fill="none" stroke="#dddd67" stroke-miterlimit="10" stroke-width="0.75"/><path d="M304.19,239a2,2,0,0,1,2,.26" transform="translate(-75.43 -171.7)" fill="none" stroke="#dddd67" stroke-miterlimit="10" stroke-width="0.87"/><path d="M194.7,245.57h-.27a3.6,3.6,0,0,1-3.33-3.85,21,21,0,0,1,1.05-4.72,3.6,3.6,0,1,1,6.81,2.35,14.59,14.59,0,0,0-.68,2.89A3.58,3.58,0,0,1,194.7,245.57Z" transform="translate(-75.43 -171.7)" fill="#0086cf"/><path d="M192.56,345.53a29.56,29.56,0,0,0,11.25,2.76c3.89-6.92,15.61-25.67,4.95-41.05l-15.08-8.11S208.76,314.87,192.56,345.53Z" transform="translate(-75.43 -171.7)" fill="#002e4f"/><path d="M200.36,351.66s1.39-2.83,2.48-4.72c-.81-.1-4.47-.25-6-.83a75.43,75.43,0,0,1-6.64,10h20.26Z" transform="translate(-75.43 -171.7)" fill="#002e4f"/><path d="M225.42,308.14c-2.52-4.89-20.82-19.62-22.47-28.08-.15-.75-.28-1.52-.39-2.3-2.93,1.55-6.75,2-9.77,2.13-3.43.17-5.48.38-8.8-1.23.28,5.25-.57,10.32,2.49,15.63,6.08,10.56,26.27,19.59,28.53,23.08,4.44,6.88,6,21.81,7.49,30.92,2.38,0,8-.11,10.33-.93C232.05,342.69,233.32,323.46,225.42,308.14Z" transform="translate(-75.43 -171.7)" fill="#00396a"/><path d="M231.73,350.84s-.66-2.66-.85-3.9c-2.32.81-3.67,0-6,0,.36,2.26.09,6.48.3,9h19.21Z" transform="translate(-75.43 -171.7)" fill="#002e4f"/><path d="M192.93,282.65c2.92-.13,9.07-.95,11.53-3.41-.5-4-2.3-10.48-1.66-15.68,2.14-17.63-6.47-22.91-6.47-22.91s-4-2.77-7.17.54c-4.85,5-9.57,19.09-9.1,39.94C183.4,282.85,189.42,282.81,192.93,282.65Z" transform="translate(-75.43 -171.7)" fill="#cde5e8"/><path d="M237.07,288.21a4.36,4.36,0,0,1-.87-.09c-13.87-3.22-25.61-11.53-34-24A64.3,64.3,0,0,1,193.72,246a3.83,3.83,0,0,1,7.42-1.88,57.55,57.55,0,0,0,7.6,16c7.35,10.89,17.17,17.83,29.19,20.62a3.82,3.82,0,0,1-.86,7.55Z" transform="translate(-75.43 -171.7)" fill="#00a4e2"/><path d="M228.64,276.72a48.26,48.26,0,0,1-19.34-17.05,57.14,57.14,0,0,1-7.5-15.76,4.49,4.49,0,0,0-5.47-3.26,4.49,4.49,0,0,0-3.26,5.46v.09a64.6,64.6,0,0,0,8.59,20.06,57.57,57.57,0,0,0,26.43,21.83.74.74,0,0,0,.25.05.66.66,0,0,0,.38-.12.69.69,0,0,0,.3-.56V277.33A.66.66,0,0,0,228.64,276.72Z" transform="translate(-75.43 -171.7)" fill="#e1f3f6"/><path d="M239.91,288.49a20.38,20.38,0,0,1-3.9-.41,1.13,1.13,0,0,1,.44-2.21c3.35.67,6.15.42,8.31-.73a1.14,1.14,0,0,1,1.53.47,1.12,1.12,0,0,1-.47,1.52A12.36,12.36,0,0,1,239.91,288.49Z" transform="translate(-75.43 -171.7)" fill="#00a4e2"/><path d="M240.07,286a11.87,11.87,0,0,1-1.65-.12,1.13,1.13,0,1,1,.33-2.23,12.29,12.29,0,0,0,7-1.36,1.13,1.13,0,0,1,1.53.42,1.11,1.11,0,0,1-.41,1.53A14.89,14.89,0,0,1,240.07,286Z" transform="translate(-75.43 -171.7)" fill="#00a4e2"/><path d="M239.07,283.75h-.53a1.13,1.13,0,0,1-1-1.2,1.11,1.11,0,0,1,1.19-1.05,5.08,5.08,0,0,0,4.07-1.47,1.13,1.13,0,0,1,1.75,1.42A7.18,7.18,0,0,1,239.07,283.75Z" transform="translate(-75.43 -171.7)" fill="#00a4e2"/><path d="M235.18,281.86a1.13,1.13,0,0,1,0-2.25,4.78,4.78,0,0,0,3.59-1.89,1.12,1.12,0,0,1,1.85,1.28A7.06,7.06,0,0,1,235.18,281.86Z" transform="translate(-75.43 -171.7)" fill="#00a4e2"/><path d="M231.5,256.45a1.11,1.11,0,0,1-.91-.47,11.74,11.74,0,0,1-2-4.33,1.13,1.13,0,1,1,2.22-.38,9.7,9.7,0,0,0,1.63,3.4,1.12,1.12,0,0,1-.25,1.57A1.15,1.15,0,0,1,231.5,256.45Z" transform="translate(-75.43 -171.7)" fill="#00a4e2"/><path d="M231.74,257l-.22,0a55,55,0,0,0-7.39-.48,1.13,1.13,0,1,1,0-2.25,56,56,0,0,1,7.82.52,1.13,1.13,0,0,1-.21,2.23Z" transform="translate(-75.43 -171.7)" fill="#00a4e2"/><path d="M223.51,259.29a1.12,1.12,0,0,1-.14-2.24c.72-.09,7-.86,9.08-.5a1.13,1.13,0,0,1-.39,2.22c-1.29-.23-5.84.19-8.41.51Z" transform="translate(-75.43 -171.7)" fill="#00a4e2"/><path d="M225,261.84a1.13,1.13,0,0,1-.21-2.23,32.1,32.1,0,0,0,4.78-1.19c.61-.2,1.38-.44,2.53-.78a1.13,1.13,0,0,1,.63,2.17c-1.12.32-1.84.55-2.48.76a34.51,34.51,0,0,1-5,1.25Z" transform="translate(-75.43 -171.7)" fill="#00a4e2"/><path d="M227.4,263.63a1.13,1.13,0,0,1-.19-2.24c3.64-.62,4.37-2,4.37-2a1.13,1.13,0,0,1,2.14.71c-.14.44-1.11,2.65-6.13,3.51Z" transform="translate(-75.43 -171.7)" fill="#00a4e2"/><path d="M231.74,262.27l-.86-9.17a4.35,4.35,0,0,1,4,4.51C234.89,259,234.48,260.58,231.74,262.27Z" transform="translate(-75.43 -171.7)" fill="#00a4e2"/><path d="M206.41,232.39a7.2,7.2,0,0,1-5.12,8.79h0a7.2,7.2,0,0,1-8.8-5.12l-1.27-4.82a7.19,7.19,0,0,1,5.11-8.8h0a7.19,7.19,0,0,1,8.8,5.12Z" transform="translate(-75.43 -171.7)" fill="#00a4e2"/><path d="M205.73,229.83a9.5,9.5,0,0,1-2.51,4.06,10.72,10.72,0,0,1-10.86,1.68l.13.49a7.2,7.2,0,0,0,13.92-3.67Z" transform="translate(-75.43 -171.7)" fill="#00396a"/><path d="M192.47,235.8c-2.7-1.74-5.62-8.33-1.35-9.77,2.64-.9,1.58,7.24,1.58,9.54Z" transform="translate(-75.43 -171.7)" fill="#00396a"/><path d="M190.3,226.57c-3.26-2.37.79-9.06,8.85-9.06,5,0,5,3.82,1.51,5.88-2.87,1.71-7.3.71-9.45,3.63Z" transform="translate(-75.43 -171.7)" fill="#00396a"/><path d="M205.73,231.31a66.35,66.35,0,0,1-4.27-7.23c-.56-1.25-1.32-3.39,1.2-1.87,2.1,1.27,3.25,5.76,3.05,8Z" transform="translate(-75.43 -171.7)" fill="#00396a"/><path d="M148.71,247.31a47.62,47.62,0,0,0-3.73,3.51l-16.25,33.94,12.09-15.62,12.85-26.55C152,244.18,150.38,245.76,148.71,247.31Z" transform="translate(-75.43 -171.7)" fill="#006091"/><path d="M139.07,241.74c1.18-1.61,2.31-3.5,3.65-5.17l-28.44-13.88-27,2.7,47.28,21.8C136.13,245.42,137.69,243.63,139.07,241.74Z" transform="translate(-75.43 -171.7)" fill="#006091"/><path d="M143.13,236.77c-1.51,1.89-2.74,4.12-4.19,5.88-1.3,1.59-2.61,3.17-3.95,4.73l21.5,9.91,7.8-10.19Z" transform="translate(-75.43 -171.7)" fill="#00afe2"/><path d="M110.76,276.16l8.34-17.42-43.67-20.9,7-14.65,71.92-42.36,19.62,9.4-28.84,60.25L157,256.17,149,273l-11.89-5.69-8.33,17.42Zm32.35-67.58-1.1-.53-38.47,22.52,23.63,11.31Z" transform="translate(-75.43 -171.7)" fill="#0076ad"/><polygon points="81.6 84.48 88.86 75.4 83.16 88.05 73.26 101.88 81.6 84.48" fill="#006091"/><path d="M154.24,242.08l28.36-62.17L174,190.23l-28.84,60.25C145.94,249.71,153.78,242.54,154.24,242.08Z" transform="translate(-75.43 -171.7)" fill="#006091"/><polygon points="7.01 51.49 19.83 40.33 90.1 0 78.93 9.13 7.01 51.49" fill="#009ee7"/><polygon points="78.93 9.13 98.56 18.53 107.17 8.22 90.1 0 78.93 9.13" fill="#00d2fd"/><path d="M130.27,226.24c-2.41-1.72-4.07-1-5.23-.78a3.28,3.28,0,0,1-2.22-.5,1.12,1.12,0,1,0-1.22,1.88,9.82,9.82,0,0,0,2.75,1.11c-1.87,1.71-3.78,3.77-3.89,3.89a1.12,1.12,0,0,0,.07,1.59,1.1,1.1,0,0,0,.76.29,1.15,1.15,0,0,0,.83-.36s1.35-1.46,2.83-2.89c-1.38,1.73-2.67,3.52-2.91,3.85a1.13,1.13,0,0,0,.92,1.79,1.13,1.13,0,0,0,.91-.47c.74-1,1.78-2.42,2.77-3.67-.37.73-.84,1.56-1.77,3.07a1.12,1.12,0,0,0,.36,1.55,1.13,1.13,0,0,0,1.55-.36l1-1.58a1.12,1.12,0,0,0,.43,1.36,1.14,1.14,0,0,0,.61.18,1.11,1.11,0,0,0,.94-.51,11.88,11.88,0,0,0,1.79-4l.05,0C132.18,228.56,131.42,227.06,130.27,226.24ZM128,234.16c.37-.65.62-1.15.86-1.64A12,12,0,0,1,128,234.16Z" transform="translate(-75.43 -171.7)" fill="#00a4e2"/><path d="M95.8,239c-3.56-.2-8.74,6.77-3.45,8.67-4.78-.11-6,6.66-1.57,8.53-7.68-1.5-6.79,8.46-3.15,12.07A4.14,4.14,0,0,0,83,272.8c.38,2.58,1.4,6.16,7.79,8.08s10.3-1.67,13.48-5.06c2,4.16,12.09-1.46,11-6.43,3.79,1.34,7.19-3,7.27-6.41s-2.28-5.92-4.52-8.1c1.58-1.45,1.88-4.12,1.46-6.17-.69-3.4-4.94-3.73-4.94-6.44,0-.94.18-3.88-.63-5.17-1.28-2.06-3.51-4.09-6.32-3.09C95.8,228.41,95.8,239,95.8,239Z" transform="translate(-75.43 -171.7)" fill="#00396a"/><path d="M102.68,348.29c-3.24-.57-3.77-.41-7-1.19l-7.42,9.08h28.81l-16.73-4.5Z" transform="translate(-75.43 -171.7)" fill="#002e4f"/><path d="M156.34,350.89l-1.71-2.24a22.24,22.24,0,0,1-4.87,2.45l4.55,5.08h16.88Z" transform="translate(-75.43 -171.7)" fill="#002e4f"/><path d="M92.65,348.32c3.23.79,6.46,1.61,9.73,2.16l23.79-29.27-4-11.63-16.66-19.21,4.8,27.22Z" transform="translate(-75.43 -171.7)" fill="#002e4f"/><path d="M125,282.31c-6.52-1.73-15.38.46-21.73,2.86,0,0,3.9,15.51,6.46,20.13,7.44,13.47,39.66,47.09,39.66,47.09,1.77-.6,5.18-3.09,6.74-4.1Z" transform="translate(-75.43 -171.7)" fill="#00396a"/><path d="M102.42,291.23c6.3-2.36,19-6.36,25.44-4.74,0,0-8.6-20.18-12.5-24.63-2.63-3-17-11.47-17-.41A127,127,0,0,0,102.42,291.23Z" transform="translate(-75.43 -171.7)" fill="#cde5e8"/><path d="M108,260.51l-.25.08a3.61,3.61,0,0,1-4.42-2.54,22.39,22.39,0,0,1-.57-4.8,3.61,3.61,0,0,1,7.21,0,13.69,13.69,0,0,0,.32,3A3.61,3.61,0,0,1,108,260.51Z" transform="translate(-75.43 -171.7)" fill="#00a4e2"/><path d="M110.43,257a4.21,4.21,0,0,0-.12-.78,13.69,13.69,0,0,1-.32-3,3.61,3.61,0,0,0-7.21,0c0,.05,0,.16,0,.31C104.56,255.56,107.49,256.51,110.43,257Z" transform="translate(-75.43 -171.7)" fill="#0086cf"/><path d="M114,246.15a6.81,6.81,0,0,1-4.37,8.58h0a6.83,6.83,0,0,1-8.59-4.37l-1.46-4.5a6.81,6.81,0,0,1,4.38-8.58h0a6.82,6.82,0,0,1,8.58,4.37Z" transform="translate(-75.43 -171.7)" fill="#00a4e2"/><path d="M154.06,242.53a1.18,1.18,0,0,0-.48-.23l.54-.59a1.12,1.12,0,0,0-.06-1.59l-.18-.14a1.13,1.13,0,0,0-.15-1.46,1.12,1.12,0,0,0-1.15-.23c.51-.52.83-.88.87-.92a1.13,1.13,0,0,0-1.69-1.49,24.1,24.1,0,0,1-5,4.22,6.08,6.08,0,0,0-2.64-2.26,1.13,1.13,0,0,0-.81,2.1,3.83,3.83,0,0,1,1.58,1.42,5.21,5.21,0,0,0-.26,1c-16.57,22.42-38.53,14.46-39.53,14.08a3.83,3.83,0,0,0-2.75,7.14,39.63,39.63,0,0,0,13.31,2.15,41.81,41.81,0,0,0,4.88-.28c8.27-1,20.5-5.72,30.28-18.32a6.91,6.91,0,0,0,.68-.45,7.09,7.09,0,0,0,.61-.44l0,0a17.91,17.91,0,0,0,2.1-2.14A1.14,1.14,0,0,0,154.06,242.53Z" transform="translate(-75.43 -171.7)" fill="#00a4e2"/><path d="M123.56,256.54l-.93.2a33.27,33.27,0,0,1-7,.74,30.78,30.78,0,0,1-10.27-1.63,4.51,4.51,0,0,0-5.82,2.58,4.06,4.06,0,0,0,.08,3.44c2.2,3.9,8.24,5.48,16,5.48a43,43,0,0,0,5-.29,30.92,30.92,0,0,0,3.11-.51l.65-.17a27.15,27.15,0,0,1-1.13-5.73A34,34,0,0,1,123.56,256.54Z" transform="translate(-75.43 -171.7)" fill="#e1f3f6"/><path d="M99.38,249.48c2.37-1.51,3.18-4.32,2.92-7.14,2.08,1.4,3.72.55,5-1.85,3.93,5.51,9.91-2.68,1.75-5.65-6.53-2.37-12.93,4.09-11.25,10.58Z" transform="translate(-75.43 -171.7)" fill="#00396a"/></svg>