<svg width="24" height="26" viewBox="0 0 24 26" fill="none" xmlns="http://www.w3.org/2000/svg">
<path d="M22.8376 17.3974L21.4551 15.0912C20.9889 14.3137 20.7439 13.4262 20.7439 12.5212V9.23749C20.7439 4.41999 16.8214 0.5 12.0001 0.5C7.17886 0.5 3.25635 4.41999 3.25635 9.23749V12.5212C3.25635 13.4262 3.0101 14.3137 2.5451 15.09L1.16259 17.3974C0.622593 18.2974 0.610104 19.3788 1.12635 20.2913C1.6426 21.2038 2.57885 21.75 3.62885 21.75H8.24885C8.24885 23.8175 9.93135 25.5 11.9989 25.5C14.0664 25.5 15.7489 23.8175 15.7489 21.75H20.3701C21.4201 21.75 22.3563 21.2038 22.8738 20.2913C23.3901 19.3788 23.3764 18.2962 22.8376 17.3974ZM11.9989 23C11.3101 23 10.7489 22.44 10.7489 21.75H13.2489C13.2489 22.44 12.6876 23 11.9989 23ZM20.6976 19.06C20.6576 19.1313 20.5614 19.25 20.3701 19.25H3.62759C3.43634 19.25 3.3401 19.13 3.3001 19.06C3.2601 18.99 3.2076 18.8462 3.3051 18.6837L4.6876 16.3749C5.3851 15.2099 5.75511 13.8774 5.75511 12.5212V9.23749C5.75511 5.79749 8.55635 3 11.9989 3C15.4414 3 18.2426 5.79749 18.2426 9.23749V12.5212C18.2426 13.8774 18.6114 15.2101 19.3101 16.3763L20.6938 18.6837C20.7901 18.8462 20.7376 18.9888 20.6976 19.06Z" fill="#1F3C88"/>
</svg>
