<svg width="24" height="24" viewBox="0 0 24 24" fill="none" xmlns="http://www.w3.org/2000/svg">
<path d="M17.272 6.508L16.009 4.61298C15.544 3.91598 14.767 3.5 13.929 3.5H10.07C9.23201 3.5 8.45499 3.91598 7.98999 4.61298L6.72699 6.508C4.37199 6.65 2.5 8.61 2.5 11V16C2.5 18.481 4.519 20.5 7 20.5H17C19.481 20.5 21.5 18.481 21.5 16V11C21.499 8.61 19.627 6.65 17.272 6.508ZM20.499 16C20.499 17.93 18.929 19.5 16.999 19.5H6.99899C5.06899 19.5 3.49899 17.93 3.49899 16V11C3.49899 9.07 5.06899 7.5 6.99899 7.5C7.16599 7.5 7.32198 7.41698 7.41498 7.27698L8.82098 5.16803C9.09998 4.75003 9.567 4.5 10.069 4.5H13.928C14.43 4.5 14.897 4.75003 15.176 5.16803L16.582 7.27698C16.675 7.41598 16.831 7.5 16.998 7.5C18.928 7.5 20.498 9.07 20.498 11V16H20.499ZM11.999 9.5C10.069 9.5 8.49899 11.07 8.49899 13C8.49899 14.93 10.069 16.5 11.999 16.5C13.929 16.5 15.499 14.93 15.499 13C15.499 11.07 13.929 9.5 11.999 9.5ZM11.999 15.5C10.621 15.5 9.49899 14.378 9.49899 13C9.49899 11.622 10.621 10.5 11.999 10.5C13.377 10.5 14.499 11.622 14.499 13C14.499 14.378 13.377 15.5 11.999 15.5ZM18.849 10C18.849 10.469 18.468 10.85 17.999 10.85C17.53 10.85 17.149 10.469 17.149 10C17.149 9.531 17.53 9.15002 17.999 9.15002C18.468 9.15002 18.849 9.53 18.849 10Z" fill="#41416E"/>
</svg>
