<svg width="24" height="24" viewBox="0 0 24 24" fill="none" xmlns="http://www.w3.org/2000/svg">
<path d="M11 19.5H16.7C16.11 20.97 14.68 22 13 22H6C3.79 22 2 20.21 2 18V10C2 7.96 3.53 6.28003 5.5 6.03003V14C5.5 17.03 7.97 19.5 11 19.5ZM19.5 6.25H21.62C21.56 6.16 21.49 6.08 21.41 6L18 2.59009C17.92 2.51009 17.84 2.43989 17.75 2.38989V4.5C17.75 5.46 18.54 6.25 19.5 6.25ZM19.5 7.75C17.71 7.75 16.25 6.29 16.25 4.5V2H11C8.79 2 7 3.79 7 6V14C7 16.21 8.79 18 11 18H18C20.21 18 22 16.21 22 14V7.75H19.5Z" fill="#41416E"/>
</svg>
