<svg width="24" height="24" viewBox="0 0 24 24" fill="none" xmlns="http://www.w3.org/2000/svg">
<path fill-rule="evenodd" clip-rule="evenodd" d="M20.7644 19.2929C21.155 19.6834 21.155 20.3166 20.7644 20.7071C20.3739 21.0976 19.7408 21.0976 19.3502 20.7071L12.0288 13.3856L4.70729 20.7071C4.31676 21.0976 3.6836 21.0976 3.29307 20.7071C2.90255 20.3166 2.90255 19.6834 3.29307 19.2929L10.6145 11.9714L3.29289 4.64977C2.90237 4.25925 2.90237 3.62608 3.29289 3.23556C3.68342 2.84503 4.31658 2.84503 4.70711 3.23556L12.0288 10.5572L19.3504 3.23556C19.7409 2.84503 20.3741 2.84504 20.7646 3.23556C21.1551 3.62608 21.1551 4.25925 20.7646 4.64977L13.443 11.9714L20.7644 19.2929Z" fill="black"/>
</svg>
