<svg width="24" height="24" viewBox="0 0 24 24" fill="none" xmlns="http://www.w3.org/2000/svg">
<path d="M10.36 11.71L3.19 6.62012C3.98 5.35012 5.4 4.5 7 4.5H17C18.6 4.5 20.01 5.34011 20.81 6.61011L13.66 11.6899C12.65 12.3599 11.35 12.36 10.36 11.71ZM21.48 8.6001L14.8 13.3401C13.94 13.9101 12.96 14.1899 11.99 14.1899C11.03 14.1899 10.07 13.9101 9.22998 13.3501L2.52002 8.6001C2.51002 8.7301 2.5 8.87 2.5 9V15C2.5 17.48 4.52 19.5 7 19.5H17C19.48 19.5 21.5 17.48 21.5 15V9C21.5 8.87 21.49 8.7301 21.48 8.6001Z" fill="#41416E"/>
</svg>
