<svg width="24" height="24" viewBox="0 0 24 24" fill="none" xmlns="http://www.w3.org/2000/svg">
<path d="M21.2293 10.1144C20.6533 9.1544 19.6933 7.8504 18.3573 6.7004L20.5273 4.53042C20.8203 4.23742 20.8203 3.76238 20.5273 3.46938C20.2343 3.17638 19.7593 3.17638 19.4663 3.46938L13.9333 9.0024L13.9313 9.00338L13.9303 9.00442L3.4653 19.4694C3.1723 19.7624 3.1723 20.2374 3.4653 20.5304C3.6113 20.6764 3.8033 20.7504 3.9953 20.7504C4.1873 20.7504 4.3793 20.6774 4.5253 20.5304L6.8353 18.2204C8.4193 19.2324 10.1523 19.7504 11.9973 19.7504C16.9443 19.7504 19.9033 16.0774 21.2283 13.8854C21.9263 12.7224 21.9263 11.2784 21.2293 10.1144ZM14.7473 12.0004C14.7473 13.5174 13.5133 14.7504 11.9973 14.7504C11.5193 14.7504 11.0683 14.6184 10.6663 14.3924L14.3883 10.6704C14.6153 11.0714 14.7473 11.5224 14.7473 12.0004ZM19.9453 13.1124C18.7853 15.0314 16.2103 18.2504 11.9993 18.2504C10.5583 18.2504 9.20131 17.8553 7.94031 17.1173L9.57529 15.4824C10.2783 15.9774 11.1133 16.2504 11.9963 16.2504C14.3393 16.2504 16.2463 14.3434 16.2463 12.0004C16.2463 11.1174 15.9733 10.2824 15.4783 9.57937L17.2953 7.76241C18.5273 8.80041 19.4143 10.0044 19.9433 10.8854C20.3543 11.5734 20.3543 12.4274 19.9453 13.1124ZM4.1283 15.7833C3.6303 15.1933 3.1733 14.5554 2.7703 13.8874C2.0743 12.7214 2.07429 11.2774 2.76929 10.1154C4.09429 7.92338 7.05331 4.25039 12.0003 4.25039C12.9563 4.25039 13.8803 4.38839 14.8253 4.67239C15.2213 4.79139 15.4473 5.20941 15.3273 5.60641C15.2083 6.00341 14.7903 6.22836 14.3933 6.10836C13.5903 5.86736 12.8073 5.75039 11.9993 5.75039C7.7893 5.75039 5.21329 8.96939 4.05329 10.8884C3.64429 11.5734 3.6443 12.4274 4.0553 13.1154C4.4163 13.7134 4.8263 14.2864 5.2743 14.8164C5.5413 15.1324 5.50131 15.6064 5.18531 15.8734C5.04431 15.9924 4.8733 16.0504 4.7023 16.0504C4.4883 16.0504 4.2763 15.9593 4.1283 15.7833ZM12.1883 8.43539C12.2513 8.84439 11.9713 9.22737 11.5613 9.29037C10.4013 9.46937 9.4673 10.4044 9.2883 11.5634C9.2313 11.9344 8.91231 12.1994 8.54831 12.1994C8.51031 12.1994 8.47129 12.1964 8.43329 12.1904C8.02329 12.1274 7.74331 11.7444 7.80631 11.3354C8.08831 9.50741 9.50632 8.09037 11.3333 7.80837C11.7363 7.74637 12.1243 8.02639 12.1883 8.43539Z" fill="#41416E"/>
</svg>
