<svg width="24" height="24" viewBox="0 0 24 24" fill="none" xmlns="http://www.w3.org/2000/svg">
<path d="M20.9525 8.83428C19.7805 5.48828 16.8715 3.09726 13.3615 2.59426C12.4805 2.46826 11.5205 2.46826 10.6395 2.59426C7.12947 3.09726 4.22148 5.48827 3.05048 8.82927C2.68548 9.83827 2.50049 10.9053 2.50049 11.9993C2.50049 13.0933 2.68546 14.1603 3.04846 15.1653C4.22046 18.5113 7.12947 20.9023 10.6395 21.4053C11.0825 21.4683 11.5405 21.5003 11.9995 21.5003C12.4585 21.5003 12.9165 21.4683 13.3605 21.4053C16.8705 20.9023 19.7785 18.5113 20.9495 15.1703C21.3145 14.1613 21.4995 13.0943 21.4995 12.0003C21.4995 10.9063 21.3155 9.83928 20.9525 8.83428ZM19.7235 8.50127H16.1055C15.7555 6.84827 15.1545 5.28126 14.3145 3.81926C16.7225 4.49426 18.6915 6.20327 19.7235 8.50127ZM15.5005 12.0003C15.5005 12.8383 15.4165 13.6753 15.2785 14.5013H8.72247C8.58447 13.6773 8.50049 12.8393 8.50049 12.0003C8.50049 11.1623 8.58447 10.3273 8.72247 9.50127H15.2795C15.4165 10.3243 15.5005 11.1613 15.5005 12.0003ZM12.9965 3.56926C13.9865 5.08626 14.6795 6.74227 15.0785 8.50127H8.92346C9.32146 6.74527 10.0135 5.08826 11.0045 3.56926C11.3305 3.53126 11.6615 3.50026 12.0005 3.50026C12.3395 3.50026 12.6705 3.53126 12.9965 3.56926ZM9.6875 3.81926C8.8465 5.28326 8.24451 6.85127 7.89551 8.50127H4.27747C5.30747 6.20427 7.2775 4.49426 9.6875 3.81926ZM3.88751 9.50127H7.7135C7.5845 10.3263 7.50146 11.1623 7.50146 12.0003C7.50146 12.8403 7.58448 13.6773 7.71448 14.5013H3.88947C3.63747 13.6983 3.50146 12.8603 3.50146 12.0003C3.50046 11.1413 3.63551 10.3053 3.88751 9.50127ZM4.27948 15.5013H7.89746C8.24746 17.1523 8.84848 18.7193 9.68848 20.1803C7.27948 19.5063 5.31148 17.7983 4.27948 15.5013ZM11.0045 20.4303C10.0145 18.9133 9.32246 17.2583 8.92346 15.5013H15.0775C14.6795 17.2573 13.9865 18.9123 12.9965 20.4303C12.3405 20.5063 11.6605 20.5063 11.0045 20.4303ZM14.3135 20.1813C15.1535 18.7193 15.7555 17.1513 16.1045 15.5023H19.7225C18.6915 17.7973 16.7225 19.5063 14.3135 20.1813ZM20.1125 14.5013H16.2875C16.4175 13.6753 16.5005 12.8383 16.5005 12.0003C16.5005 11.1613 16.4175 10.3253 16.2885 9.50127H20.1135C20.3655 10.3033 20.5005 11.1403 20.5005 12.0003C20.5005 12.8593 20.3655 13.6973 20.1125 14.5013Z" fill="#41416E"/>
</svg>
