<svg width="24" height="24" viewBox="0 0 24 24" fill="none" xmlns="http://www.w3.org/2000/svg">
<path d="M12 2.25C6.624 2.25 2.25 6.624 2.25 12C2.25 17.376 6.624 21.75 12 21.75C17.376 21.75 21.75 17.376 21.75 12C21.75 6.624 17.376 2.25 12 2.25ZM12 20.25C7.451 20.25 3.75 16.549 3.75 12C3.75 7.451 7.451 3.75 12 3.75C16.549 3.75 20.25 7.451 20.25 12C20.25 16.549 16.549 20.25 12 20.25ZM13 8C13 8.552 12.552 9 12 9C11.448 9 11 8.552 11 8C11 7.448 11.448 7 12 7C12.552 7 13 7.448 13 8ZM12.75 12V16C12.75 16.414 12.414 16.75 12 16.75C11.586 16.75 11.25 16.414 11.25 16V12C11.25 11.586 11.586 11.25 12 11.25C12.414 11.25 12.75 11.586 12.75 12Z" fill="#41416E"/>
</svg>
