<svg width="24" height="24" viewBox="0 0 24 24" fill="none" xmlns="http://www.w3.org/2000/svg">
<path d="M16.75 9.59302V7C16.75 4.381 14.619 2.25 12 2.25C9.381 2.25 7.25 4.381 7.25 7V9.59399C5.496 10.293 4.25 12 4.25 14V17C4.25 19.619 6.381 21.75 9 21.75H15C17.619 21.75 19.75 19.619 19.75 17V14C19.75 12 18.504 10.292 16.75 9.59302ZM8.75 7C8.75 5.208 10.208 3.75 12 3.75C13.792 3.75 15.25 5.208 15.25 7V9.27502C15.165 9.27002 15.086 9.25 15 9.25H9C8.914 9.25 8.835 9.27102 8.75 9.27502V7ZM18.25 17C18.25 18.792 16.792 20.25 15 20.25H9C7.208 20.25 5.75 18.792 5.75 17V14C5.75 12.208 7.208 10.75 9 10.75H15C16.792 10.75 18.25 12.208 18.25 14V17ZM12.75 15V16C12.75 16.414 12.414 16.75 12 16.75C11.586 16.75 11.25 16.414 11.25 16V15C11.25 14.586 11.586 14.25 12 14.25C12.414 14.25 12.75 14.586 12.75 15Z" fill="#41416E"/>
</svg>
