<svg width="24" height="24" viewBox="0 0 24 24" fill="none" xmlns="http://www.w3.org/2000/svg">
<path d="M12.7502 21C12.7502 21.414 12.4142 21.75 12.0002 21.75H8.00018C5.38118 21.75 3.25018 19.619 3.25018 17V7C3.25018 4.381 5.38118 2.25 8.00018 2.25H12.0002C12.4142 2.25 12.7502 2.586 12.7502 3C12.7502 3.414 12.4142 3.75 12.0002 3.75H8.00018C6.20818 3.75 4.75018 5.208 4.75018 7V17C4.75018 18.792 6.20818 20.25 8.00018 20.25H12.0002C12.4142 20.25 12.7502 20.586 12.7502 21ZM20.5302 11.47L16.5302 7.46997C16.2372 7.17697 15.7622 7.17697 15.4692 7.46997C15.1762 7.76297 15.1762 8.23801 15.4692 8.53101L18.1892 11.251H10.0002C9.58618 11.251 9.25018 11.587 9.25018 12.001C9.25018 12.415 9.58618 12.751 10.0002 12.751H18.1892L15.4692 15.4709C15.1762 15.7639 15.1762 16.239 15.4692 16.532C15.6152 16.678 15.8072 16.752 15.9992 16.752C16.1912 16.752 16.3832 16.679 16.5292 16.532L20.5292 12.532C20.8232 12.237 20.8232 11.763 20.5302 11.47Z" fill="#41416E"/>
</svg>
