<svg width="20" height="20" viewBox="0 0 20 20" fill="none" xmlns="http://www.w3.org/2000/svg">
<path d="M18.3064 1.6955C17.5354 0.924496 16.5114 0.500488 15.4214 0.500488C14.3324 0.500488 13.3074 0.924496 12.5364 1.6955L2.00347 12.2285C1.63247 12.5995 1.39044 13.0685 1.30444 13.5855L0.514459 18.3235C0.460459 18.6445 0.566441 18.9735 0.796441 19.2035C0.986441 19.3945 1.24543 19.4995 1.51043 19.4995C1.56543 19.4995 1.62045 19.4955 1.67645 19.4855L6.41546 18.6955C6.93246 18.6095 7.40048 18.3685 7.77148 17.9975L18.3044 7.46448C19.0754 6.69348 19.4994 5.6695 19.4994 4.5795C19.4994 3.4895 19.0764 2.4655 18.3064 1.6955ZM7.06548 17.2915C6.84248 17.5145 6.56143 17.6585 6.25243 17.7105L1.50243 18.4885L2.29247 13.7505C2.34447 13.4395 2.48848 13.1585 2.71148 12.9365L10.9714 4.67648L15.3265 9.0325L7.06548 17.2915ZM17.5995 6.75848L16.0325 8.3255L11.6775 3.96948L13.2444 2.4025C13.8264 1.8205 14.5995 1.50049 15.4225 1.50049C16.2455 1.50049 17.0195 1.8205 17.6005 2.4025C18.1825 2.9845 18.5024 3.75747 18.5024 4.58047C18.5024 5.40347 18.1815 6.17648 17.5995 6.75848Z" fill="#41416E"/>
</svg>
