<svg width="30" height="30" viewBox="0 0 30 30" fill="none" xmlns="http://www.w3.org/2000/svg">
<path fill-rule="evenodd" clip-rule="evenodd" d="M15.5 9.25C14.8096 9.25 14.25 9.80964 14.25 10.5V14.25H10.5C9.80964 14.25 9.25 14.8096 9.25 15.5C9.25 16.1903 9.80964 16.75 10.5 16.75H14.25V20.5C14.25 21.1904 14.8096 21.75 15.5 21.75C16.1903 21.75 16.75 21.1904 16.75 20.5V16.75H20.5C21.1904 16.75 21.75 16.1903 21.75 15.5C21.75 14.8096 21.1904 14.25 20.5 14.25H16.75V10.5C16.75 9.80964 16.1903 9.25 15.5 9.25Z" fill="#1F3C88"/>
<path fill-rule="evenodd" clip-rule="evenodd" d="M15.5 28C22.4036 28 28 22.4036 28 15.5C28 8.59644 22.4036 3 15.5 3C8.59644 3 3 8.59644 3 15.5C3 22.4036 8.59644 28 15.5 28ZM15.5 25.8125C21.1954 25.8125 25.8125 21.1954 25.8125 15.5C25.8125 9.80457 21.1954 5.18751 15.5 5.18751C9.80457 5.18751 5.18751 9.80457 5.18751 15.5C5.18751 21.1954 9.80457 25.8125 15.5 25.8125Z" fill="#1F3C88"/>
</svg>
