<svg width="24" height="24" viewBox="0 0 24 24" fill="none" xmlns="http://www.w3.org/2000/svg">
<path d="M12 15.75C11.2583 15.75 10.5333 15.5301 9.91661 15.118C9.29993 14.706 8.81928 14.1203 8.53545 13.4351C8.25162 12.7498 8.17736 11.9958 8.32205 11.2684C8.46675 10.541 8.8239 9.8728 9.34835 9.34835C9.8728 8.8239 10.541 8.46675 11.2684 8.32205C11.9958 8.17736 12.7498 8.25162 13.4351 8.53545C14.1203 8.81928 14.706 9.29993 15.118 9.91661C15.5301 10.5333 15.75 11.2583 15.75 12C15.7489 12.9942 15.3535 13.9474 14.6505 14.6505C13.9474 15.3535 12.9942 15.7489 12 15.75ZM12 9.75C11.555 9.75 11.12 9.88196 10.75 10.1292C10.38 10.3764 10.0916 10.7278 9.92127 11.139C9.75097 11.5501 9.70642 12.0025 9.79323 12.439C9.88005 12.8754 10.0943 13.2763 10.409 13.591C10.7237 13.9057 11.1246 14.12 11.561 14.2068C11.9975 14.2936 12.4499 14.249 12.861 14.0787C13.2722 13.9084 13.6236 13.62 13.8708 13.25C14.118 12.88 14.25 12.445 14.25 12C14.2495 11.4034 14.0122 10.8314 13.5904 10.4096C13.1686 9.98775 12.5966 9.75053 12 9.75ZM12.5 21.75H11.5C10.9034 21.7495 10.3314 21.5122 9.90959 21.0904C9.48775 20.6686 9.25053 20.0966 9.25 19.5C9.25126 19.4279 9.231 19.357 9.19182 19.2965C9.15264 19.2359 9.0963 19.1884 9.03 19.16H9.022C8.96161 19.135 8.89515 19.1285 8.83106 19.1413C8.76697 19.1541 8.70813 19.1857 8.662 19.232C8.23683 19.6524 7.66416 19.8899 7.06627 19.8938C6.46839 19.8977 5.89265 19.6678 5.462 19.253L4.762 18.547C4.55243 18.3379 4.38617 18.0895 4.27273 17.8161C4.15929 17.5427 4.10089 17.2495 4.10089 16.9535C4.10089 16.6575 4.15929 16.3643 4.27273 16.0909C4.38617 15.8175 4.55243 15.5691 4.762 15.36C4.81163 15.3091 4.84534 15.2448 4.85902 15.175C4.87269 15.1052 4.86574 15.0329 4.839 14.967C4.81457 14.9047 4.77214 14.851 4.71711 14.8129C4.66207 14.7748 4.59694 14.7539 4.53 14.753C4.23205 14.7559 3.93647 14.6998 3.6603 14.5879C3.38413 14.4761 3.13283 14.3107 2.92089 14.1012C2.70894 13.8918 2.54054 13.6425 2.4254 13.3677C2.31026 13.0929 2.25065 12.798 2.25 12.5V11.5C2.25053 10.9034 2.48775 10.3314 2.90959 9.90959C3.33144 9.48775 3.90343 9.25053 4.5 9.25C4.57203 9.25146 4.64285 9.23128 4.70328 9.19206C4.76372 9.15284 4.811 9.09638 4.839 9.03V9.022C4.86373 8.96156 4.87009 8.89518 4.85729 8.83114C4.84448 8.76711 4.81308 8.70827 4.767 8.662C4.55398 8.45414 4.38431 8.20608 4.26783 7.93219C4.15135 7.65829 4.09036 7.36401 4.08841 7.06638C4.08646 6.76876 4.14357 6.4737 4.25645 6.1983C4.36933 5.92291 4.53572 5.67264 4.746 5.462L5.455 4.753C5.88315 4.34288 6.45312 4.11394 7.046 4.11394C7.63888 4.11394 8.20886 4.34288 8.637 4.753C8.68753 4.80554 8.7526 4.84179 8.82386 4.85711C8.89513 4.87243 8.96934 4.86613 9.037 4.839C9.09903 4.81466 9.15236 4.77233 9.19014 4.71745C9.22792 4.66256 9.24842 4.59763 9.249 4.531C9.24596 4.23313 9.3019 3.93761 9.41357 3.66145C9.52525 3.3853 9.69047 3.13397 9.8997 2.92195C10.1089 2.70992 10.3581 2.54139 10.6327 2.42607C10.9074 2.31075 11.2021 2.25091 11.5 2.25H12.5C13.0966 2.25053 13.6686 2.48775 14.0904 2.90959C14.5122 3.33144 14.7495 3.90343 14.75 4.5C14.7464 4.57038 14.7647 4.64014 14.8023 4.69975C14.8399 4.75935 14.895 4.80589 14.96 4.833C15.0232 4.85994 15.0928 4.86833 15.1607 4.85717C15.2285 4.84601 15.2917 4.81578 15.343 4.77C15.5519 4.55592 15.8015 4.38581 16.0771 4.26971C16.3528 4.15361 16.6489 4.09387 16.948 4.094C17.2436 4.09318 17.5364 4.151 17.8095 4.26411C18.0826 4.37723 18.3306 4.5434 18.539 4.753L19.245 5.453C19.4539 5.66193 19.6197 5.90997 19.7327 6.18296C19.8458 6.45594 19.904 6.74852 19.904 7.044C19.904 7.33948 19.8458 7.63206 19.7327 7.90504C19.6197 8.17803 19.4539 8.42607 19.245 8.635C19.1919 8.68192 19.1547 8.74412 19.1384 8.81306C19.1221 8.882 19.1276 8.95429 19.154 9.02L19.16 9.034C19.1844 9.09565 19.2266 9.1486 19.2813 9.18603C19.336 9.22346 19.4007 9.24365 19.467 9.244C19.7655 9.2407 20.0616 9.29659 20.3383 9.40846C20.615 9.52033 20.8668 9.68595 21.0791 9.89575C21.2914 10.1055 21.46 10.3553 21.5752 10.6307C21.6903 10.9061 21.7498 11.2015 21.75 11.5V12.5C21.7495 13.0966 21.5122 13.6686 21.0904 14.0904C20.6686 14.5122 20.0966 14.7495 19.5 14.75C19.4296 14.7464 19.3599 14.7647 19.3003 14.8023C19.2406 14.8399 19.1941 14.895 19.167 14.96C19.1404 15.0233 19.1322 15.0928 19.1434 15.1606C19.1545 15.2283 19.1845 15.2915 19.23 15.343C19.4428 15.5511 19.6121 15.7994 19.7283 16.0734C19.8444 16.3475 19.905 16.6418 19.9066 16.9395C19.9082 17.2371 19.8507 17.5321 19.7375 17.8073C19.6242 18.0826 19.4575 18.3326 19.247 18.543L18.547 19.249C18.1189 19.6591 17.5489 19.8881 16.956 19.8881C16.3631 19.8881 15.7931 19.6591 15.365 19.249C15.318 19.1961 15.2558 19.1589 15.1869 19.1426C15.118 19.1263 15.0457 19.1317 14.98 19.158C14.9164 19.1829 14.8613 19.2257 14.8216 19.2813C14.7818 19.3368 14.759 19.4027 14.756 19.471C14.7588 19.7691 14.7025 20.0648 14.5904 20.3411C14.4783 20.6173 14.3126 20.8687 14.1028 21.0805C13.8931 21.2924 13.6435 21.4607 13.3684 21.5756C13.0933 21.6905 12.7981 21.7497 12.5 21.75ZM9.691 17.818C10.0038 17.9681 10.2685 18.2023 10.4556 18.4945C10.6426 18.7866 10.7446 19.1251 10.75 19.472C10.7472 19.5726 10.7645 19.6727 10.8008 19.7665C10.8372 19.8603 10.8919 19.946 10.9617 20.0184C11.0315 20.0908 11.1151 20.1486 11.2075 20.1884C11.3 20.2282 11.3994 20.2491 11.5 20.25H12.5C12.6989 20.25 12.8897 20.171 13.0303 20.0303C13.171 19.8897 13.25 19.6989 13.25 19.5C13.2495 19.1304 13.3585 18.769 13.5631 18.4613C13.7678 18.1536 14.059 17.9134 14.4 17.771C14.7344 17.6324 15.1025 17.5964 15.4574 17.6676C15.8123 17.7389 16.138 17.9141 16.393 18.171C16.4619 18.2447 16.5449 18.3037 16.6371 18.3448C16.7293 18.3858 16.8287 18.408 16.9296 18.4099C17.0304 18.4119 17.1307 18.3936 17.2243 18.3562C17.318 18.3187 17.4033 18.2629 17.475 18.192L18.181 17.492C18.3219 17.351 18.401 17.1598 18.401 16.9605C18.401 16.7612 18.3219 16.57 18.181 16.429C17.9242 16.1704 17.7483 15.8426 17.6749 15.4856C17.6016 15.1285 17.6339 14.7579 17.768 14.419V14.405L17.775 14.388C17.9125 14.0528 18.1468 13.7662 18.448 13.5649C18.7493 13.3636 19.1037 13.2568 19.466 13.258C19.5664 13.2607 19.6664 13.2433 19.7601 13.2068C19.8537 13.1704 19.9392 13.1157 20.0114 13.0459C20.0837 12.976 20.1413 12.8925 20.1809 12.8002C20.2205 12.7078 20.2412 12.6085 20.242 12.508V11.508C20.242 11.3091 20.163 11.1183 20.0223 10.9777C19.8817 10.837 19.6909 10.758 19.492 10.758C19.1255 10.7625 18.7659 10.6574 18.4596 10.456C18.1533 10.2547 17.9142 9.9663 17.773 9.628C17.6277 9.28936 17.5877 8.91485 17.6582 8.55316C17.7286 8.19148 17.9063 7.85936 18.168 7.6C18.2434 7.52905 18.3036 7.44356 18.345 7.34868C18.3865 7.25381 18.4082 7.15152 18.409 7.048C18.4093 6.94948 18.39 6.85189 18.3522 6.7609C18.3145 6.66992 18.259 6.58735 18.189 6.518L17.489 5.812C17.4192 5.7424 17.3364 5.68723 17.2453 5.64965C17.1542 5.61207 17.0566 5.59282 16.958 5.593C16.8592 5.59253 16.7613 5.61185 16.6702 5.6498C16.579 5.68776 16.4963 5.74359 16.427 5.814C16.1681 6.0704 15.8403 6.24596 15.4834 6.31929C15.1265 6.39262 14.756 6.36056 14.417 6.227L14.4 6.224L14.383 6.217C14.0478 6.07952 13.7612 5.84518 13.5599 5.54395C13.3586 5.24272 13.2518 4.8883 13.253 4.526C13.2557 4.42555 13.2383 4.32558 13.2018 4.23194C13.1654 4.13829 13.1107 4.05284 13.0409 3.98059C12.971 3.90834 12.8875 3.85073 12.7952 3.81114C12.7028 3.77155 12.6035 3.75076 12.503 3.75H11.503C11.3041 3.75 11.1133 3.82902 10.9727 3.96967C10.832 4.11032 10.753 4.30109 10.753 4.5C10.7573 4.86911 10.6504 5.23098 10.4462 5.53847C10.242 5.84597 9.9499 6.08485 9.608 6.224C9.2716 6.36196 8.90215 6.39835 8.5453 6.32869C8.18845 6.25902 7.85981 6.08635 7.6 5.832C7.53095 5.75889 7.44802 5.70028 7.35606 5.65958C7.2641 5.61888 7.16495 5.59691 7.0644 5.59496C6.96386 5.593 6.86393 5.6111 6.77046 5.64819C6.67699 5.68529 6.59184 5.74063 6.52 5.811L5.811 6.52C5.74131 6.58965 5.68602 6.67235 5.6483 6.76338C5.61058 6.8544 5.59116 6.95197 5.59116 7.0505C5.59116 7.14903 5.61058 7.2466 5.6483 7.33762C5.68602 7.42865 5.74131 7.51135 5.811 7.581C6.07455 7.83717 6.25525 8.16647 6.32976 8.52637C6.40427 8.88627 6.36918 9.26025 6.229 9.6C6.21532 9.63423 6.19963 9.66763 6.182 9.7C6.03065 10.0111 5.79585 10.274 5.50379 10.4594C5.21173 10.6448 4.87391 10.7454 4.528 10.75C4.42742 10.7472 4.3273 10.7645 4.23348 10.8008C4.13966 10.8372 4.05403 10.8919 3.98159 10.9617C3.90915 11.0315 3.85136 11.1151 3.8116 11.2075C3.77183 11.3 3.75089 11.3994 3.75 11.5V12.5C3.75 12.6989 3.82902 12.8897 3.96967 13.0303C4.11032 13.171 4.30109 13.25 4.5 13.25C4.86698 13.2453 5.22692 13.3509 5.53322 13.5531C5.83952 13.7552 6.07807 14.0447 6.218 14.384L6.224 14.397L6.229 14.411C6.3631 14.7473 6.39668 15.1153 6.32567 15.4703C6.25467 15.8254 6.08213 16.1521 5.829 16.411C5.75524 16.4809 5.69646 16.5651 5.65623 16.6585C5.61601 16.7518 5.59517 16.8524 5.595 16.954C5.59425 17.0528 5.61323 17.1507 5.65084 17.2421C5.68845 17.3334 5.74392 17.4164 5.814 17.486L6.52 18.186C6.66289 18.3225 6.85289 18.3987 7.0505 18.3987C7.24811 18.3987 7.43811 18.3225 7.581 18.186C7.83758 17.9231 8.16704 17.743 8.52689 17.6691C8.88675 17.5951 9.26051 17.6306 9.6 17.771C9.63117 17.785 9.66155 17.8007 9.691 17.818Z" fill="#41416E"/>
</svg>
