<svg width="120" height="120" viewBox="0 0 120 120" fill="none" xmlns="http://www.w3.org/2000/svg">
<path fill-rule="evenodd" clip-rule="evenodd" d="M60.69 107.411C96.465 97.1959 102.5 76.816 102.5 35.011C102.5 33.936 101.81 32.9806 100.79 32.6306C86.1601 27.7506 66.5099 17.9708 61.8549 13.2508C61.3899 12.7808 60.7549 12.5111 60.0949 12.5061C59.4649 12.4011 58.795 12.7613 58.32 13.2263C53.17 18.3063 38.5351 27.8258 19.3201 33.2508C18.2451 33.5557 17.5 34.5355 17.5 35.6555C17.5 77.0155 23.5401 97.1859 59.3201 107.411C59.5451 107.476 59.7749 107.511 60.0049 107.511C60.2349 107.511 60.465 107.476 60.69 107.411ZM71.1667 49.5385V56.4384C74.62 58.1461 77 61.6308 77 65.6923V72.6154C77 78.3385 72.2867 83 66.5 83H52.5C46.7133 83 42 78.3385 42 72.6154V65.6923C42 61.6308 44.38 58.1461 47.8333 56.4384V49.5385C47.8333 43.1692 53.06 38 59.5 38C65.94 38 71.1667 43.1692 71.1667 49.5385ZM59.5 72.6154C60.7833 72.6154 61.8333 71.5769 61.8333 70.3077V68C61.8333 66.7308 60.7833 65.6923 59.5 65.6923C58.2167 65.6923 57.1667 66.7308 57.1667 68V70.3077C57.1667 71.5769 58.2167 72.6154 59.5 72.6154ZM52.5 55.3077H66.5V49.5385C66.5 45.7308 63.35 42.6154 59.5 42.6154C55.65 42.6154 52.5 45.7308 52.5 49.5385V55.3077Z" fill="#1F3C88"/>
</svg>
