<svg width="24" height="24" viewBox="0 0 24 24" fill="none" xmlns="http://www.w3.org/2000/svg">
<path fill-rule="evenodd" clip-rule="evenodd" d="M8.42373 8.02337H4.78449C4.35436 8.02337 3.97255 8.38114 4.00155 8.81144L4.73616 18.9936C4.81349 20.0959 5.49977 21 6.79501 21H17.2052C18.37 21 19.1723 20.2699 19.2641 18.9936L19.9939 8.80661C20.0277 8.37631 19.6411 8.02337 19.2109 8.02337H15.5765C15.4654 6.79049 15.1222 5.67849 14.6293 4.82756C13.972 3.70105 13.0489 3 12.0001 3C10.9514 3 10.0234 3.69621 9.37099 4.82756C8.87803 5.68332 8.53489 6.79049 8.42373 8.02337ZM14.6583 8.02337H9.33233C9.44349 6.95971 9.73346 6.00725 10.1539 5.28687C10.6469 4.43594 11.2993 3.90894 12.0001 3.90894C12.6961 3.90894 13.3534 4.43594 13.8367 5.28203C14.2571 6.00725 14.5519 6.95488 14.6583 8.02337ZM9.25996 16.9146C9.14397 17.0838 9.18747 17.311 9.35662 17.4271C9.48711 17.5189 9.61277 17.5963 9.73359 17.664C10.7002 18.2538 11.6185 18.5439 12.4062 18.5439C13.2472 18.5391 13.9383 18.2103 14.3878 17.5479C14.3904 17.5435 14.3933 17.5386 14.3964 17.5335C14.4098 17.5108 14.427 17.4818 14.4506 17.4464C14.5762 17.2434 14.6681 17.0355 14.7261 16.8276C14.8566 16.3634 14.8324 15.8896 14.6391 15.44C14.4506 15.0048 14.0978 14.6035 13.571 14.2844C13.252 14.0911 12.8654 13.9267 12.4111 13.7961C11.5701 13.5592 10.966 13.2546 10.676 12.863C10.4247 12.5246 10.4199 12.0798 10.7292 11.5141C10.9128 11.1757 11.3285 10.9629 11.8746 10.9194C12.4449 10.8759 13.1312 11.0161 13.8513 11.3836C14.0349 11.4803 14.2524 11.4077 14.3491 11.224C14.4457 11.0403 14.3733 10.8179 14.1896 10.726C13.3438 10.2957 12.5126 10.1313 11.8214 10.1845C11.0192 10.2474 10.386 10.6003 10.0767 11.166C9.61277 12.0218 9.6466 12.7276 10.0816 13.3127C10.4779 13.8445 11.2125 14.2409 12.2081 14.5214C12.5996 14.6277 12.9234 14.7679 13.1843 14.9275C13.5758 15.1644 13.8271 15.4496 13.9576 15.7446C14.0784 16.025 14.0929 16.3344 14.0059 16.6342C13.9625 16.7792 13.8996 16.9291 13.8126 17.0693C13.8102 17.0767 13.8039 17.0854 13.7957 17.0967C13.788 17.1074 13.7786 17.1205 13.7691 17.137C13.4647 17.5866 12.9862 17.809 12.3966 17.809C11.7441 17.809 10.9612 17.5528 10.1106 17.0355C9.98974 16.9629 9.87858 16.8904 9.77226 16.8179C9.6031 16.7019 9.37595 16.7454 9.25996 16.9146Z" fill="#EA501F"/>
</svg>
