<svg width="20" height="20" viewBox="0 0 20 20" fill="none" xmlns="http://www.w3.org/2000/svg">
<path d="M18.2392 7.99548C18.0076 7.27798 17.3967 6.76548 16.6451 6.65881L13.2701 6.17552L11.7626 3.16638C11.4276 2.49805 10.7526 2.08301 10.0001 2.08301C9.24756 2.08301 8.57257 2.49805 8.23757 3.16638L6.73005 6.17552L3.35506 6.65881C2.6034 6.76631 1.99257 7.27798 1.7609 7.99548C1.53173 8.70715 1.72589 9.47133 2.26589 9.99133L4.70089 12.3313L4.12673 15.6306C3.99923 16.3622 4.29423 17.0905 4.8959 17.5313C5.2434 17.7863 5.65257 17.9163 6.06424 17.9163C6.37507 17.9163 6.68838 17.8422 6.97755 17.6913L9.99922 16.1264L13.0209 17.6913C13.6951 18.0413 14.4926 17.978 15.1034 17.5313C15.7051 17.0905 16.0001 16.3622 15.8726 15.6306L15.2984 12.3313L17.7334 9.99133C18.2742 9.47133 18.4684 8.70632 18.2392 7.99548ZM16.5792 8.78965L13.8242 11.4363C13.6242 11.6272 13.5334 11.9064 13.5809 12.1806L14.2309 15.9163C14.2551 16.0538 14.1834 16.1397 14.1184 16.1864C14.0709 16.2206 13.9442 16.2913 13.7884 16.2113L10.3834 14.448C10.1434 14.323 9.85674 14.323 9.61674 14.448L6.21174 16.2113C6.0559 16.2913 5.92924 16.2206 5.88174 16.1864C5.81674 16.1389 5.74507 16.0538 5.76923 15.9163L6.41923 12.1806C6.46673 11.9072 6.37507 11.628 6.1759 11.4363L3.4209 8.78965C3.31674 8.68965 3.32339 8.58049 3.34756 8.50716C3.36839 8.44299 3.42755 8.3314 3.59089 8.3089L7.39757 7.76385C7.66841 7.72469 7.90256 7.55636 8.02423 7.31219L9.72673 3.91305C9.79756 3.77055 9.92839 3.74967 9.99922 3.74967C10.0701 3.74967 10.2009 3.77055 10.2717 3.91305L11.9742 7.31219C12.0959 7.55636 12.3309 7.72469 12.6009 7.76385L16.4084 8.3089C16.5717 8.3314 16.6309 8.44299 16.6517 8.50716C16.6767 8.58049 16.6834 8.68965 16.5792 8.78965Z" fill="#5C5C5C"/>
</svg>
