<svg width="26" height="25" viewBox="0 0 26 25" fill="none" xmlns="http://www.w3.org/2000/svg">
<path d="M22.5821 12.115L19.3226 15.2318L20.092 19.6286C20.2176 20.3463 19.9266 21.062 19.3321 21.4953C18.726 21.9359 17.9347 21.9964 17.2668 21.6537L13.2307 19.5734L9.19454 21.6537C8.90774 21.8016 8.59686 21.8745 8.28808 21.8745C7.87986 21.8745 7.47475 21.7463 7.12933 21.4953C6.53584 21.062 6.24382 20.3463 6.36943 19.6286L7.13875 15.2318L3.87927 12.115C3.34545 11.6045 3.15387 10.8536 3.37997 10.1557C3.60815 9.44947 4.21315 8.94641 4.95842 8.84016L9.46877 8.19726L11.4848 4.19208C11.8155 3.53374 12.4854 3.12549 13.2307 3.12549C13.976 3.12549 14.6459 3.53479 14.9766 4.19208L16.9926 8.19726L21.503 8.84016C22.2472 8.94641 22.8522 9.44947 23.0804 10.1557C23.3065 10.8536 23.1159 11.6045 22.5821 12.115Z" fill="#F7B633"/>
</svg>
