<svg width="24" height="24" viewBox="0 0 24 24" fill="none" xmlns="http://www.w3.org/2000/svg">
<path fill-rule="evenodd" clip-rule="evenodd" d="M14.8505 6.42261L14.8236 6.42494C13.8817 6.50625 12.8523 6.73694 12.0035 7.15969C11.1011 6.70669 10.1806 6.46331 9.17504 6.38794L9.15949 6.38677C9.42708 5.05939 10.599 4.05836 12.0124 4.05836C13.4262 4.05836 14.6086 5.0781 14.8505 6.42261ZM15.9126 6.33028C16.7425 6.26112 17.5727 6.27316 18.4034 6.2852C18.7234 6.28984 19.0433 6.29447 19.3634 6.29447H20V6.92928V15.3862V15.7103C20 18.6204 17.6137 21 14.6944 21H4V6.29447H4.63635C5.00194 6.29447 5.36694 6.28694 5.73172 6.27941C6.51969 6.26313 7.30659 6.24687 8.09609 6.30669C8.41116 4.43101 10.0458 3 12.0165 3C13.988 3 15.6234 4.44333 15.9126 6.33028ZM8.54408 8.76047C10.1012 8.76047 11.4366 9.71037 11.9996 11.06C12.5627 9.71037 13.898 8.76047 15.4554 8.76047C17.5216 8.76047 19.1961 10.432 19.1961 12.4909C19.1961 14.5506 17.5216 16.2214 15.4554 16.2214C14.9226 16.2214 14.4158 16.1103 13.957 15.9101L13.7218 16.1587C13.2688 16.6366 12.8162 17.1145 12.3634 17.5929L12.3386 17.619L11.9994 17.9775L11.6608 17.619C11.3912 17.3348 11.1217 17.0502 10.8523 16.7656C10.6607 16.5632 10.4692 16.3608 10.2776 16.1587L10.0425 15.9099C9.5837 16.1102 9.07687 16.2214 8.54408 16.2214C6.47819 16.2214 4.80347 14.5506 4.80347 12.4909C4.80347 10.432 6.47819 8.76047 8.54408 8.76047ZM11.5834 14.666C11.7194 14.6405 11.8588 14.6276 11.9994 14.6276C12.1401 14.6276 12.2795 14.6405 12.4155 14.6659C12.25 14.4362 12.1099 14.187 11.9995 13.9223C11.8891 14.187 11.749 14.4363 11.5834 14.666ZM8.93419 10.5657C10.0414 10.5657 10.9397 11.4609 10.9397 12.5639C10.9397 13.6687 10.0414 14.5636 8.93419 14.5636C7.82619 14.5636 6.92869 13.6687 6.92869 12.5639C6.92869 12.196 7.0292 11.8513 7.20367 11.5547C7.3467 11.9077 7.69291 12.1554 8.09899 12.1554C8.63212 12.1554 9.06503 11.7254 9.06503 11.1935C9.06503 10.9539 8.97726 10.7356 8.83314 10.5679C8.86646 10.5657 8.9006 10.5657 8.93419 10.5657ZM15.0645 10.5657C16.1727 10.5657 17.0705 11.4609 17.0705 12.5639C17.0705 13.6687 16.1727 14.5636 15.0645 14.5636C13.9576 14.5636 13.0598 13.6687 13.0598 12.5639C13.0598 12.196 13.1598 11.8513 13.3337 11.5547C13.4775 11.9077 13.8245 12.1554 14.2301 12.1554C14.7632 12.1554 15.1953 11.7254 15.1953 11.1935C15.1953 10.9539 15.1086 10.7356 14.964 10.5679C14.9978 10.5657 15.0309 10.5657 15.0645 10.5657ZM11.6489 12.4909C11.6489 10.7816 10.2586 9.39527 8.54408 9.39527H8.54407C8.49331 9.39527 8.44283 9.39649 8.39267 9.39889C6.74796 9.47762 5.43956 10.8322 5.43956 12.4909C5.43956 14.2 6.82901 15.5866 8.54408 15.5866C10.2586 15.5866 11.6489 14.2 11.6489 12.4909ZM15.4554 9.39527C15.4777 9.39527 15.5 9.3955 15.5222 9.39597C17.2056 9.43148 18.5601 10.8039 18.5601 12.4909C18.5601 14.2 17.1696 15.5866 15.4554 15.5866C13.7408 15.5866 12.3508 14.2 12.3508 12.4909C12.3508 12.1925 12.3932 11.9039 12.4723 11.6308L12.4722 11.6306C12.8419 10.3548 14.012 9.41748 15.4056 9.39566L15.4127 9.39556C15.4269 9.39537 15.4411 9.39527 15.4554 9.39527H15.4554ZM13.3822 15.8397C13.1675 16.0668 12.9525 16.2939 12.7373 16.5209L12.6451 16.6183L12.5644 16.7034C12.3895 16.888 12.2146 17.0726 12.0398 17.2574L11.9995 17.3001C11.6696 16.9511 11.3395 16.6029 11.0095 16.2544L11.0084 16.2533L11.0006 16.2451C10.8726 16.11 10.7446 15.9749 10.6165 15.8397C10.9078 15.3392 11.4544 15.0917 11.9995 15.0928C12.008 15.0928 12.0165 15.0928 12.0251 15.0929C12.0584 15.0933 12.0917 15.0947 12.1249 15.0969C12.6272 15.1312 13.1138 15.3776 13.3822 15.8397Z" fill="#070D59"/>
</svg>
