<svg width="24" height="24" viewBox="0 0 24 24" fill="none" xmlns="http://www.w3.org/2000/svg">
<path d="M21 5.5H17.441C16.795 5.5 16.223 5.088 16.018 4.474L15.702 3.52499C15.497 2.91199 14.926 2.5 14.279 2.5H9.71997C9.07397 2.5 8.502 2.91199 8.297 3.52499L7.98199 4.474C7.77699 5.088 7.20502 5.5 6.55902 5.5H3C2.724 5.5 2.5 5.724 2.5 6C2.5 6.276 2.724 6.5 3 6.5H4.53198L5.31403 18.233C5.43603 20.065 6.97003 21.5 8.80603 21.5H15.193C17.029 21.5 18.563 20.065 18.685 18.233L19.467 6.5H21C21.276 6.5 21.5 6.276 21.5 6C21.5 5.724 21.276 5.5 21 5.5ZM9.24597 3.84201C9.31397 3.63701 9.50501 3.5 9.72101 3.5H14.28C14.495 3.5 14.686 3.63701 14.754 3.84201L15.07 4.79099C15.157 5.05099 15.284 5.289 15.442 5.5H8.55798C8.71598 5.289 8.84403 5.05099 8.93103 4.79099L9.24597 3.84201ZM17.688 18.166C17.601 19.475 16.505 20.499 15.194 20.499H8.80701C7.49501 20.499 6.39999 19.474 6.31299 18.166L5.53497 6.49899H6.55902C6.66602 6.49899 6.77098 6.487 6.87598 6.474C6.91698 6.485 6.95598 6.49899 7.00098 6.49899H17.001C17.045 6.49899 17.085 6.485 17.126 6.474C17.23 6.487 17.335 6.49899 17.443 6.49899H18.467L17.688 18.166ZM14.5 11V16C14.5 16.276 14.276 16.5 14 16.5C13.724 16.5 13.5 16.276 13.5 16V11C13.5 10.724 13.724 10.5 14 10.5C14.276 10.5 14.5 10.723 14.5 11ZM10.5 11V16C10.5 16.276 10.276 16.5 10 16.5C9.724 16.5 9.5 16.276 9.5 16V11C9.5 10.724 9.724 10.5 10 10.5C10.276 10.5 10.5 10.723 10.5 11Z" fill="#41416E"/>
</svg>
