<svg width="24" height="24" viewBox="0 0 24 24" fill="none" xmlns="http://www.w3.org/2000/svg">
<path d="M21 11.0001C21.553 11.0001 22 11.4481 22 12.0001L22 16.0001C22 18.7571 19.757 21.0001 17 21.0001L7 21.0001C4.243 21.0001 2 18.7571 2 16.0001L2 12.0001C2 11.4481 2.447 11.0001 3 11.0001C3.553 11.0001 4 11.4481 4 12.0001L4 16.0001C4 17.6541 5.346 19.0001 7 19.0001L17 19.0001C18.654 19.0001 20 17.6541 20 16.0001L20 12.0001C20 11.4471 20.447 11.0001 21 11.0001ZM11.293 3.29312L7.29297 7.29312C6.90197 7.68412 6.90197 8.31612 7.29297 8.70712C7.68397 9.09812 8.31603 9.09812 8.70703 8.70712L11 6.41412L11 14.0001C11 14.5521 11.447 15.0001 12 15.0001C12.553 15.0001 13 14.5521 13 14.0001L13 6.41412L15.293 8.70712C15.684 9.09812 16.316 9.09812 16.707 8.70712C16.902 8.51212 17 8.25612 17 8.00012C17 7.74412 16.902 7.48812 16.707 7.29312L12.707 3.29312C12.316 2.90212 11.683 2.90212 11.293 3.29312Z" fill="#41416E"/>
</svg>
