<svg width="24" height="24" viewBox="0 0 24 24" fill="none" xmlns="http://www.w3.org/2000/svg">
<path d="M11.999 12.7498C14.894 12.7498 17.249 10.3948 17.249 7.49976C17.249 4.60476 14.894 2.24976 11.999 2.24976C9.10396 2.24976 6.74896 4.60476 6.74896 7.49976C6.74896 10.3948 9.10396 12.7498 11.999 12.7498ZM11.999 3.74976C14.067 3.74976 15.749 5.43176 15.749 7.49976C15.749 9.56776 14.067 11.2498 11.999 11.2498C9.93096 11.2498 8.24896 9.56776 8.24896 7.49976C8.24896 5.43176 9.93096 3.74976 11.999 3.74976ZM19.749 17.9668V18.9778C19.749 19.9128 19.408 20.8088 18.788 21.4998C18.64 21.6658 18.4349 21.7498 18.2289 21.7498C18.0509 21.7498 17.8719 21.6867 17.7289 21.5587C17.4199 21.2827 17.395 20.8088 17.671 20.4998C18.044 20.0828 18.2499 19.5428 18.2499 18.9788V17.9678C18.2499 16.4538 17.2459 15.1437 15.8069 14.7827C15.5539 14.7187 15.282 14.7538 15.061 14.8788C13.16 15.9368 10.8339 15.9327 8.94495 14.8817C8.71895 14.7527 8.44697 14.7157 8.19397 14.7817C6.75497 15.1437 5.74994 16.4538 5.74994 17.9678V18.9788C5.74994 19.5438 5.95598 20.0838 6.32898 20.4998C6.60498 20.8088 6.57894 21.2827 6.27094 21.5587C5.96094 21.8357 5.48698 21.8087 5.21198 21.5007C4.59198 20.8087 4.25098 19.9128 4.25098 18.9788V17.9678C4.25098 15.7658 5.72194 13.8578 7.82794 13.3278C8.45094 13.1698 9.12795 13.2598 9.68195 13.5758C11.1119 14.3718 12.884 14.3748 14.326 13.5728C14.873 13.2608 15.55 13.1717 16.175 13.3287C18.278 13.8557 19.749 15.7638 19.749 17.9668Z" fill="#41416E"/>
</svg>
